G04 #@! TF.GenerationSoftware,KiCad,Pcbnew,(5.1.4-0)*
G04 #@! TF.CreationDate,2020-07-13T22:24:35+08:00*
G04 #@! TF.ProjectId,attiny3217,61747469-6e79-4333-9231-372e6b696361,rev?*
G04 #@! TF.SameCoordinates,Original*
G04 #@! TF.FileFunction,Legend,Top*
G04 #@! TF.FilePolarity,Positive*
%FSLAX46Y46*%
G04 Gerber Fmt 4.6, Leading zero omitted, Abs format (unit mm)*
G04 Created by KiCad (PCBNEW (5.1.4-0)) date 2020-07-13 22:24:35*
%MOMM*%
%LPD*%
G04 APERTURE LIST*
%ADD10C,0.150000*%
%ADD11C,0.120000*%
G04 APERTURE END LIST*
D10*
X140254028Y-65838438D02*
X140206409Y-65981295D01*
X140158790Y-66028914D01*
X140063552Y-66076533D01*
X139920695Y-66076533D01*
X139825457Y-66028914D01*
X139777838Y-65981295D01*
X139730219Y-65886057D01*
X139730219Y-65505104D01*
X140730219Y-65505104D01*
X140730219Y-65838438D01*
X140682600Y-65933676D01*
X140634980Y-65981295D01*
X140539742Y-66028914D01*
X140444504Y-66028914D01*
X140349266Y-65981295D01*
X140301647Y-65933676D01*
X140254028Y-65838438D01*
X140254028Y-65505104D01*
X139730219Y-67028914D02*
X139730219Y-66457485D01*
X139730219Y-66743200D02*
X140730219Y-66743200D01*
X140587361Y-66647961D01*
X140492123Y-66552723D01*
X140444504Y-66457485D01*
X140304828Y-68302238D02*
X140257209Y-68445095D01*
X140209590Y-68492714D01*
X140114352Y-68540333D01*
X139971495Y-68540333D01*
X139876257Y-68492714D01*
X139828638Y-68445095D01*
X139781019Y-68349857D01*
X139781019Y-67968904D01*
X140781019Y-67968904D01*
X140781019Y-68302238D01*
X140733400Y-68397476D01*
X140685780Y-68445095D01*
X140590542Y-68492714D01*
X140495304Y-68492714D01*
X140400066Y-68445095D01*
X140352447Y-68397476D01*
X140304828Y-68302238D01*
X140304828Y-67968904D01*
X140685780Y-68921285D02*
X140733400Y-68968904D01*
X140781019Y-69064142D01*
X140781019Y-69302238D01*
X140733400Y-69397476D01*
X140685780Y-69445095D01*
X140590542Y-69492714D01*
X140495304Y-69492714D01*
X140352447Y-69445095D01*
X139781019Y-68873666D01*
X139781019Y-69492714D01*
X140254028Y-70842238D02*
X140206409Y-70985095D01*
X140158790Y-71032714D01*
X140063552Y-71080333D01*
X139920695Y-71080333D01*
X139825457Y-71032714D01*
X139777838Y-70985095D01*
X139730219Y-70889857D01*
X139730219Y-70508904D01*
X140730219Y-70508904D01*
X140730219Y-70842238D01*
X140682600Y-70937476D01*
X140634980Y-70985095D01*
X140539742Y-71032714D01*
X140444504Y-71032714D01*
X140349266Y-70985095D01*
X140301647Y-70937476D01*
X140254028Y-70842238D01*
X140254028Y-70508904D01*
X140730219Y-71413666D02*
X140730219Y-72032714D01*
X140349266Y-71699380D01*
X140349266Y-71842238D01*
X140301647Y-71937476D01*
X140254028Y-71985095D01*
X140158790Y-72032714D01*
X139920695Y-72032714D01*
X139825457Y-71985095D01*
X139777838Y-71937476D01*
X139730219Y-71842238D01*
X139730219Y-71556523D01*
X139777838Y-71461285D01*
X139825457Y-71413666D01*
X140254028Y-73280638D02*
X140206409Y-73423495D01*
X140158790Y-73471114D01*
X140063552Y-73518733D01*
X139920695Y-73518733D01*
X139825457Y-73471114D01*
X139777838Y-73423495D01*
X139730219Y-73328257D01*
X139730219Y-72947304D01*
X140730219Y-72947304D01*
X140730219Y-73280638D01*
X140682600Y-73375876D01*
X140634980Y-73423495D01*
X140539742Y-73471114D01*
X140444504Y-73471114D01*
X140349266Y-73423495D01*
X140301647Y-73375876D01*
X140254028Y-73280638D01*
X140254028Y-72947304D01*
X140396885Y-74375876D02*
X139730219Y-74375876D01*
X140777838Y-74137780D02*
X140063552Y-73899685D01*
X140063552Y-74518733D01*
X140304828Y-75896838D02*
X140257209Y-76039695D01*
X140209590Y-76087314D01*
X140114352Y-76134933D01*
X139971495Y-76134933D01*
X139876257Y-76087314D01*
X139828638Y-76039695D01*
X139781019Y-75944457D01*
X139781019Y-75563504D01*
X140781019Y-75563504D01*
X140781019Y-75896838D01*
X140733400Y-75992076D01*
X140685780Y-76039695D01*
X140590542Y-76087314D01*
X140495304Y-76087314D01*
X140400066Y-76039695D01*
X140352447Y-75992076D01*
X140304828Y-75896838D01*
X140304828Y-75563504D01*
X140781019Y-77039695D02*
X140781019Y-76563504D01*
X140304828Y-76515885D01*
X140352447Y-76563504D01*
X140400066Y-76658742D01*
X140400066Y-76896838D01*
X140352447Y-76992076D01*
X140304828Y-77039695D01*
X140209590Y-77087314D01*
X139971495Y-77087314D01*
X139876257Y-77039695D01*
X139828638Y-76992076D01*
X139781019Y-76896838D01*
X139781019Y-76658742D01*
X139828638Y-76563504D01*
X139876257Y-76515885D01*
X140254028Y-78487638D02*
X140206409Y-78630495D01*
X140158790Y-78678114D01*
X140063552Y-78725733D01*
X139920695Y-78725733D01*
X139825457Y-78678114D01*
X139777838Y-78630495D01*
X139730219Y-78535257D01*
X139730219Y-78154304D01*
X140730219Y-78154304D01*
X140730219Y-78487638D01*
X140682600Y-78582876D01*
X140634980Y-78630495D01*
X140539742Y-78678114D01*
X140444504Y-78678114D01*
X140349266Y-78630495D01*
X140301647Y-78582876D01*
X140254028Y-78487638D01*
X140254028Y-78154304D01*
X140730219Y-79582876D02*
X140730219Y-79392400D01*
X140682600Y-79297161D01*
X140634980Y-79249542D01*
X140492123Y-79154304D01*
X140301647Y-79106685D01*
X139920695Y-79106685D01*
X139825457Y-79154304D01*
X139777838Y-79201923D01*
X139730219Y-79297161D01*
X139730219Y-79487638D01*
X139777838Y-79582876D01*
X139825457Y-79630495D01*
X139920695Y-79678114D01*
X140158790Y-79678114D01*
X140254028Y-79630495D01*
X140301647Y-79582876D01*
X140349266Y-79487638D01*
X140349266Y-79297161D01*
X140301647Y-79201923D01*
X140254028Y-79154304D01*
X140158790Y-79106685D01*
X140203228Y-80926038D02*
X140155609Y-81068895D01*
X140107990Y-81116514D01*
X140012752Y-81164133D01*
X139869895Y-81164133D01*
X139774657Y-81116514D01*
X139727038Y-81068895D01*
X139679419Y-80973657D01*
X139679419Y-80592704D01*
X140679419Y-80592704D01*
X140679419Y-80926038D01*
X140631800Y-81021276D01*
X140584180Y-81068895D01*
X140488942Y-81116514D01*
X140393704Y-81116514D01*
X140298466Y-81068895D01*
X140250847Y-81021276D01*
X140203228Y-80926038D01*
X140203228Y-80592704D01*
X140679419Y-81497466D02*
X140679419Y-82164133D01*
X139679419Y-81735561D01*
X139965133Y-83207314D02*
X139965133Y-83683504D01*
X139679419Y-83112076D02*
X140679419Y-83445409D01*
X139679419Y-83778742D01*
X140679419Y-84016838D02*
X140679419Y-84683504D01*
X139679419Y-84254933D01*
X140015933Y-85747314D02*
X140015933Y-86223504D01*
X139730219Y-85652076D02*
X140730219Y-85985409D01*
X139730219Y-86318742D01*
X140730219Y-87080647D02*
X140730219Y-86890171D01*
X140682600Y-86794933D01*
X140634980Y-86747314D01*
X140492123Y-86652076D01*
X140301647Y-86604457D01*
X139920695Y-86604457D01*
X139825457Y-86652076D01*
X139777838Y-86699695D01*
X139730219Y-86794933D01*
X139730219Y-86985409D01*
X139777838Y-87080647D01*
X139825457Y-87128266D01*
X139920695Y-87175885D01*
X140158790Y-87175885D01*
X140254028Y-87128266D01*
X140301647Y-87080647D01*
X140349266Y-86985409D01*
X140349266Y-86794933D01*
X140301647Y-86699695D01*
X140254028Y-86652076D01*
X140158790Y-86604457D01*
X140015933Y-88236514D02*
X140015933Y-88712704D01*
X139730219Y-88141276D02*
X140730219Y-88474609D01*
X139730219Y-88807942D01*
X140730219Y-89617466D02*
X140730219Y-89141276D01*
X140254028Y-89093657D01*
X140301647Y-89141276D01*
X140349266Y-89236514D01*
X140349266Y-89474609D01*
X140301647Y-89569847D01*
X140254028Y-89617466D01*
X140158790Y-89665085D01*
X139920695Y-89665085D01*
X139825457Y-89617466D01*
X139777838Y-89569847D01*
X139730219Y-89474609D01*
X139730219Y-89236514D01*
X139777838Y-89141276D01*
X139825457Y-89093657D01*
X139965133Y-91030514D02*
X139965133Y-91506704D01*
X139679419Y-90935276D02*
X140679419Y-91268609D01*
X139679419Y-91601942D01*
X140346085Y-92363847D02*
X139679419Y-92363847D01*
X140727038Y-92125752D02*
X140012752Y-91887657D01*
X140012752Y-92506704D01*
X140628619Y-93891123D02*
X140628619Y-93414933D01*
X140152428Y-93367314D01*
X140200047Y-93414933D01*
X140247666Y-93510171D01*
X140247666Y-93748266D01*
X140200047Y-93843504D01*
X140152428Y-93891123D01*
X140057190Y-93938742D01*
X139819095Y-93938742D01*
X139723857Y-93891123D01*
X139676238Y-93843504D01*
X139628619Y-93748266D01*
X139628619Y-93510171D01*
X139676238Y-93414933D01*
X139723857Y-93367314D01*
X140628619Y-94224457D02*
X139628619Y-94557790D01*
X140628619Y-94891123D01*
X129062171Y-66470161D02*
X129109790Y-66327304D01*
X129157409Y-66279685D01*
X129252647Y-66232066D01*
X129395504Y-66232066D01*
X129490742Y-66279685D01*
X129538361Y-66327304D01*
X129585980Y-66422542D01*
X129585980Y-66803495D01*
X128585980Y-66803495D01*
X128585980Y-66470161D01*
X128633600Y-66374923D01*
X128681219Y-66327304D01*
X128776457Y-66279685D01*
X128871695Y-66279685D01*
X128966933Y-66327304D01*
X129014552Y-66374923D01*
X129062171Y-66470161D01*
X129062171Y-66803495D01*
X128585980Y-65613019D02*
X128585980Y-65517780D01*
X128633600Y-65422542D01*
X128681219Y-65374923D01*
X128776457Y-65327304D01*
X128966933Y-65279685D01*
X129205028Y-65279685D01*
X129395504Y-65327304D01*
X129490742Y-65374923D01*
X129538361Y-65422542D01*
X129585980Y-65517780D01*
X129585980Y-65613019D01*
X129538361Y-65708257D01*
X129490742Y-65755876D01*
X129395504Y-65803495D01*
X129205028Y-65851114D01*
X128966933Y-65851114D01*
X128776457Y-65803495D01*
X128681219Y-65755876D01*
X128633600Y-65708257D01*
X128585980Y-65613019D01*
X129439942Y-68721266D02*
X129487561Y-68768885D01*
X129535180Y-68911742D01*
X129535180Y-69006980D01*
X129487561Y-69149838D01*
X129392323Y-69245076D01*
X129297085Y-69292695D01*
X129106609Y-69340314D01*
X128963752Y-69340314D01*
X128773276Y-69292695D01*
X128678038Y-69245076D01*
X128582800Y-69149838D01*
X128535180Y-69006980D01*
X128535180Y-68911742D01*
X128582800Y-68768885D01*
X128630419Y-68721266D01*
X128535180Y-68102219D02*
X128535180Y-68006980D01*
X128582800Y-67911742D01*
X128630419Y-67864123D01*
X128725657Y-67816504D01*
X128916133Y-67768885D01*
X129154228Y-67768885D01*
X129344704Y-67816504D01*
X129439942Y-67864123D01*
X129487561Y-67911742D01*
X129535180Y-68006980D01*
X129535180Y-68102219D01*
X129487561Y-68197457D01*
X129439942Y-68245076D01*
X129344704Y-68292695D01*
X129154228Y-68340314D01*
X128916133Y-68340314D01*
X128725657Y-68292695D01*
X128630419Y-68245076D01*
X128582800Y-68197457D01*
X128535180Y-68102219D01*
X129541542Y-71210466D02*
X129589161Y-71258085D01*
X129636780Y-71400942D01*
X129636780Y-71496180D01*
X129589161Y-71639038D01*
X129493923Y-71734276D01*
X129398685Y-71781895D01*
X129208209Y-71829514D01*
X129065352Y-71829514D01*
X128874876Y-71781895D01*
X128779638Y-71734276D01*
X128684400Y-71639038D01*
X128636780Y-71496180D01*
X128636780Y-71400942D01*
X128684400Y-71258085D01*
X128732019Y-71210466D01*
X129636780Y-70258085D02*
X129636780Y-70829514D01*
X129636780Y-70543800D02*
X128636780Y-70543800D01*
X128779638Y-70639038D01*
X128874876Y-70734276D01*
X128922495Y-70829514D01*
X129490742Y-73801266D02*
X129538361Y-73848885D01*
X129585980Y-73991742D01*
X129585980Y-74086980D01*
X129538361Y-74229838D01*
X129443123Y-74325076D01*
X129347885Y-74372695D01*
X129157409Y-74420314D01*
X129014552Y-74420314D01*
X128824076Y-74372695D01*
X128728838Y-74325076D01*
X128633600Y-74229838D01*
X128585980Y-74086980D01*
X128585980Y-73991742D01*
X128633600Y-73848885D01*
X128681219Y-73801266D01*
X128681219Y-73420314D02*
X128633600Y-73372695D01*
X128585980Y-73277457D01*
X128585980Y-73039361D01*
X128633600Y-72944123D01*
X128681219Y-72896504D01*
X128776457Y-72848885D01*
X128871695Y-72848885D01*
X129014552Y-72896504D01*
X129585980Y-73467933D01*
X129585980Y-72848885D01*
X129490742Y-76341266D02*
X129538361Y-76388885D01*
X129585980Y-76531742D01*
X129585980Y-76626980D01*
X129538361Y-76769838D01*
X129443123Y-76865076D01*
X129347885Y-76912695D01*
X129157409Y-76960314D01*
X129014552Y-76960314D01*
X128824076Y-76912695D01*
X128728838Y-76865076D01*
X128633600Y-76769838D01*
X128585980Y-76626980D01*
X128585980Y-76531742D01*
X128633600Y-76388885D01*
X128681219Y-76341266D01*
X128585980Y-76007933D02*
X128585980Y-75388885D01*
X128966933Y-75722219D01*
X128966933Y-75579361D01*
X129014552Y-75484123D01*
X129062171Y-75436504D01*
X129157409Y-75388885D01*
X129395504Y-75388885D01*
X129490742Y-75436504D01*
X129538361Y-75484123D01*
X129585980Y-75579361D01*
X129585980Y-75865076D01*
X129538361Y-75960314D01*
X129490742Y-76007933D01*
X129439942Y-78881266D02*
X129487561Y-78928885D01*
X129535180Y-79071742D01*
X129535180Y-79166980D01*
X129487561Y-79309838D01*
X129392323Y-79405076D01*
X129297085Y-79452695D01*
X129106609Y-79500314D01*
X128963752Y-79500314D01*
X128773276Y-79452695D01*
X128678038Y-79405076D01*
X128582800Y-79309838D01*
X128535180Y-79166980D01*
X128535180Y-79071742D01*
X128582800Y-78928885D01*
X128630419Y-78881266D01*
X128868514Y-78024123D02*
X129535180Y-78024123D01*
X128487561Y-78262219D02*
X129201847Y-78500314D01*
X129201847Y-77881266D01*
X129541542Y-81472066D02*
X129589161Y-81519685D01*
X129636780Y-81662542D01*
X129636780Y-81757780D01*
X129589161Y-81900638D01*
X129493923Y-81995876D01*
X129398685Y-82043495D01*
X129208209Y-82091114D01*
X129065352Y-82091114D01*
X128874876Y-82043495D01*
X128779638Y-81995876D01*
X128684400Y-81900638D01*
X128636780Y-81757780D01*
X128636780Y-81662542D01*
X128684400Y-81519685D01*
X128732019Y-81472066D01*
X128636780Y-80567304D02*
X128636780Y-81043495D01*
X129112971Y-81091114D01*
X129065352Y-81043495D01*
X129017733Y-80948257D01*
X129017733Y-80710161D01*
X129065352Y-80614923D01*
X129112971Y-80567304D01*
X129208209Y-80519685D01*
X129446304Y-80519685D01*
X129541542Y-80567304D01*
X129589161Y-80614923D01*
X129636780Y-80710161D01*
X129636780Y-80948257D01*
X129589161Y-81043495D01*
X129541542Y-81091114D01*
X129300266Y-84508885D02*
X129300266Y-84032695D01*
X129585980Y-84604123D02*
X128585980Y-84270790D01*
X129585980Y-83937457D01*
X129585980Y-83080314D02*
X129585980Y-83651742D01*
X129585980Y-83366028D02*
X128585980Y-83366028D01*
X128728838Y-83461266D01*
X128824076Y-83556504D01*
X128871695Y-83651742D01*
X129401866Y-87099685D02*
X129401866Y-86623495D01*
X129687580Y-87194923D02*
X128687580Y-86861590D01*
X129687580Y-86528257D01*
X128782819Y-86242542D02*
X128735200Y-86194923D01*
X128687580Y-86099685D01*
X128687580Y-85861590D01*
X128735200Y-85766352D01*
X128782819Y-85718733D01*
X128878057Y-85671114D01*
X128973295Y-85671114D01*
X129116152Y-85718733D01*
X129687580Y-86290161D01*
X129687580Y-85671114D01*
X129401866Y-89639685D02*
X129401866Y-89163495D01*
X129687580Y-89734923D02*
X128687580Y-89401590D01*
X129687580Y-89068257D01*
X128687580Y-88830161D02*
X128687580Y-88211114D01*
X129068533Y-88544447D01*
X129068533Y-88401590D01*
X129116152Y-88306352D01*
X129163771Y-88258733D01*
X129259009Y-88211114D01*
X129497104Y-88211114D01*
X129592342Y-88258733D01*
X129639961Y-88306352D01*
X129687580Y-88401590D01*
X129687580Y-88687304D01*
X129639961Y-88782542D01*
X129592342Y-88830161D01*
X129611380Y-91936819D02*
X129135190Y-92270152D01*
X129611380Y-92508247D02*
X128611380Y-92508247D01*
X128611380Y-92127295D01*
X128659000Y-92032057D01*
X128706619Y-91984438D01*
X128801857Y-91936819D01*
X128944714Y-91936819D01*
X129039952Y-91984438D01*
X129087571Y-92032057D01*
X129135190Y-92127295D01*
X129135190Y-92508247D01*
X129563761Y-91555866D02*
X129611380Y-91413009D01*
X129611380Y-91174914D01*
X129563761Y-91079676D01*
X129516142Y-91032057D01*
X129420904Y-90984438D01*
X129325666Y-90984438D01*
X129230428Y-91032057D01*
X129182809Y-91079676D01*
X129135190Y-91174914D01*
X129087571Y-91365390D01*
X129039952Y-91460628D01*
X128992333Y-91508247D01*
X128897095Y-91555866D01*
X128801857Y-91555866D01*
X128706619Y-91508247D01*
X128659000Y-91460628D01*
X128611380Y-91365390D01*
X128611380Y-91127295D01*
X128659000Y-90984438D01*
X128611380Y-90698723D02*
X128611380Y-90127295D01*
X129611380Y-90413009D02*
X128611380Y-90413009D01*
X128735200Y-93667295D02*
X128687580Y-93762533D01*
X128687580Y-93905390D01*
X128735200Y-94048247D01*
X128830438Y-94143485D01*
X128925676Y-94191104D01*
X129116152Y-94238723D01*
X129259009Y-94238723D01*
X129449485Y-94191104D01*
X129544723Y-94143485D01*
X129639961Y-94048247D01*
X129687580Y-93905390D01*
X129687580Y-93810152D01*
X129639961Y-93667295D01*
X129592342Y-93619676D01*
X129259009Y-93619676D01*
X129259009Y-93810152D01*
X132918200Y-73026542D02*
X132965819Y-73074161D01*
X132918200Y-73121780D01*
X132870580Y-73074161D01*
X132918200Y-73026542D01*
X132918200Y-73121780D01*
X137375923Y-91882980D02*
X136899733Y-91882980D01*
X136852114Y-92359171D01*
X136899733Y-92311552D01*
X136994971Y-92263933D01*
X137233066Y-92263933D01*
X137328304Y-92311552D01*
X137375923Y-92359171D01*
X137423542Y-92454409D01*
X137423542Y-92692504D01*
X137375923Y-92787742D01*
X137328304Y-92835361D01*
X137233066Y-92882980D01*
X136994971Y-92882980D01*
X136899733Y-92835361D01*
X136852114Y-92787742D01*
X137709257Y-91882980D02*
X138042590Y-92882980D01*
X138375923Y-91882980D01*
X132994590Y-91857580D02*
X132994590Y-92667104D01*
X133042209Y-92762342D01*
X133089828Y-92809961D01*
X133185066Y-92857580D01*
X133375542Y-92857580D01*
X133470780Y-92809961D01*
X133518400Y-92762342D01*
X133566019Y-92667104D01*
X133566019Y-91857580D01*
X134042209Y-92857580D02*
X134042209Y-91857580D01*
X134423161Y-91857580D01*
X134518400Y-91905200D01*
X134566019Y-91952819D01*
X134613638Y-92048057D01*
X134613638Y-92190914D01*
X134566019Y-92286152D01*
X134518400Y-92333771D01*
X134423161Y-92381390D01*
X134042209Y-92381390D01*
X135042209Y-92857580D02*
X135042209Y-91857580D01*
X135280304Y-91857580D01*
X135423161Y-91905200D01*
X135518400Y-92000438D01*
X135566019Y-92095676D01*
X135613638Y-92286152D01*
X135613638Y-92429009D01*
X135566019Y-92619485D01*
X135518400Y-92714723D01*
X135423161Y-92809961D01*
X135280304Y-92857580D01*
X135042209Y-92857580D01*
X136042209Y-92857580D02*
X136042209Y-91857580D01*
X131910104Y-91930600D02*
X131814866Y-91882980D01*
X131672009Y-91882980D01*
X131529152Y-91930600D01*
X131433914Y-92025838D01*
X131386295Y-92121076D01*
X131338676Y-92311552D01*
X131338676Y-92454409D01*
X131386295Y-92644885D01*
X131433914Y-92740123D01*
X131529152Y-92835361D01*
X131672009Y-92882980D01*
X131767247Y-92882980D01*
X131910104Y-92835361D01*
X131957723Y-92787742D01*
X131957723Y-92454409D01*
X131767247Y-92454409D01*
D11*
X134802378Y-76757600D02*
X134285222Y-76757600D01*
X134802378Y-75337600D02*
X134285222Y-75337600D01*
X132053400Y-90174578D02*
X132053400Y-89657422D01*
X130633400Y-90174578D02*
X130633400Y-89657422D01*
X130408800Y-84191600D02*
X130408800Y-86876600D01*
X130408800Y-86876600D02*
X132328800Y-86876600D01*
X132328800Y-86876600D02*
X132328800Y-84191600D01*
X131131600Y-80538200D02*
X133816600Y-80538200D01*
X131131600Y-78618200D02*
X131131600Y-80538200D01*
X133816600Y-78618200D02*
X131131600Y-78618200D01*
X125720800Y-64684600D02*
X127050800Y-64684600D01*
X125720800Y-66014600D02*
X125720800Y-64684600D01*
X125720800Y-67284600D02*
X128380800Y-67284600D01*
X128380800Y-67284600D02*
X128380800Y-95284600D01*
X125720800Y-67284600D02*
X125720800Y-95284600D01*
X125720800Y-95284600D02*
X128380800Y-95284600D01*
X140833800Y-95411600D02*
X143493800Y-95411600D01*
X140833800Y-67411600D02*
X140833800Y-95411600D01*
X143493800Y-67411600D02*
X143493800Y-95411600D01*
X140833800Y-67411600D02*
X143493800Y-67411600D01*
X140833800Y-66141600D02*
X140833800Y-64811600D01*
X140833800Y-64811600D02*
X142163800Y-64811600D01*
X138413800Y-95623200D02*
X130673800Y-95623200D01*
X130673800Y-95623200D02*
X130673800Y-98283200D01*
X130673800Y-98283200D02*
X138413800Y-98283200D01*
X138413800Y-98283200D02*
X138413800Y-95623200D01*
X137463800Y-98283200D02*
X137463800Y-104283200D01*
X137463800Y-104283200D02*
X136703800Y-104283200D01*
X136703800Y-104283200D02*
X136703800Y-98283200D01*
X137403800Y-98283200D02*
X137403800Y-104283200D01*
X137283800Y-98283200D02*
X137283800Y-104283200D01*
X137163800Y-98283200D02*
X137163800Y-104283200D01*
X137043800Y-98283200D02*
X137043800Y-104283200D01*
X136923800Y-98283200D02*
X136923800Y-104283200D01*
X136803800Y-98283200D02*
X136803800Y-104283200D01*
X137463800Y-95293200D02*
X137463800Y-95623200D01*
X136703800Y-95293200D02*
X136703800Y-95623200D01*
X135813800Y-95623200D02*
X135813800Y-98283200D01*
X134923800Y-98283200D02*
X134923800Y-104283200D01*
X134923800Y-104283200D02*
X134163800Y-104283200D01*
X134163800Y-104283200D02*
X134163800Y-98283200D01*
X134923800Y-95226129D02*
X134923800Y-95623200D01*
X134163800Y-95226129D02*
X134163800Y-95623200D01*
X133273800Y-95623200D02*
X133273800Y-98283200D01*
X132383800Y-98283200D02*
X132383800Y-104283200D01*
X132383800Y-104283200D02*
X131623800Y-104283200D01*
X131623800Y-104283200D02*
X131623800Y-98283200D01*
X132383800Y-95226129D02*
X132383800Y-95623200D01*
X131623800Y-95226129D02*
X131623800Y-95623200D01*
X137083800Y-92913200D02*
X138353800Y-92913200D01*
X138353800Y-92913200D02*
X138353800Y-94183200D01*
X137720000Y-85551778D02*
X137720000Y-85034622D01*
X139140000Y-85551778D02*
X139140000Y-85034622D01*
X137542200Y-90098378D02*
X137542200Y-89581222D01*
X138962200Y-90098378D02*
X138962200Y-89581222D01*
X136935978Y-78868200D02*
X136418822Y-78868200D01*
X136935978Y-80288200D02*
X136418822Y-80288200D01*
X132947800Y-89496200D02*
X132947800Y-83376200D01*
X132947800Y-83376200D02*
X136647800Y-83376200D01*
X136647800Y-83376200D02*
X136647800Y-89496200D01*
X136647800Y-89496200D02*
X132947800Y-89496200D01*
X132433800Y-68570600D02*
X132433800Y-68095600D01*
X132433800Y-68095600D02*
X132908800Y-68095600D01*
X136653800Y-71840600D02*
X136653800Y-72315600D01*
X136653800Y-72315600D02*
X136178800Y-72315600D01*
X136653800Y-68570600D02*
X136653800Y-68095600D01*
X136653800Y-68095600D02*
X136178800Y-68095600D01*
X132433800Y-71840600D02*
X132433800Y-72315600D01*
D10*
X134326333Y-78131942D02*
X134278714Y-78179561D01*
X134135857Y-78227180D01*
X134040619Y-78227180D01*
X133897761Y-78179561D01*
X133802523Y-78084323D01*
X133754904Y-77989085D01*
X133707285Y-77798609D01*
X133707285Y-77655752D01*
X133754904Y-77465276D01*
X133802523Y-77370038D01*
X133897761Y-77274800D01*
X134040619Y-77227180D01*
X134135857Y-77227180D01*
X134278714Y-77274800D01*
X134326333Y-77322419D01*
X135278714Y-78227180D02*
X134707285Y-78227180D01*
X134993000Y-78227180D02*
X134993000Y-77227180D01*
X134897761Y-77370038D01*
X134802523Y-77465276D01*
X134707285Y-77512895D01*
X131100533Y-87987142D02*
X131052914Y-88034761D01*
X130910057Y-88082380D01*
X130814819Y-88082380D01*
X130671961Y-88034761D01*
X130576723Y-87939523D01*
X130529104Y-87844285D01*
X130481485Y-87653809D01*
X130481485Y-87510952D01*
X130529104Y-87320476D01*
X130576723Y-87225238D01*
X130671961Y-87130000D01*
X130814819Y-87082380D01*
X130910057Y-87082380D01*
X131052914Y-87130000D01*
X131100533Y-87177619D01*
X131481485Y-87177619D02*
X131529104Y-87130000D01*
X131624342Y-87082380D01*
X131862438Y-87082380D01*
X131957676Y-87130000D01*
X132005295Y-87177619D01*
X132052914Y-87272857D01*
X132052914Y-87368095D01*
X132005295Y-87510952D01*
X131433866Y-88082380D01*
X132052914Y-88082380D01*
X130605304Y-83332580D02*
X130605304Y-82332580D01*
X130843400Y-82332580D01*
X130986257Y-82380200D01*
X131081495Y-82475438D01*
X131129114Y-82570676D01*
X131176733Y-82761152D01*
X131176733Y-82904009D01*
X131129114Y-83094485D01*
X131081495Y-83189723D01*
X130986257Y-83284961D01*
X130843400Y-83332580D01*
X130605304Y-83332580D01*
X132129114Y-83332580D02*
X131557685Y-83332580D01*
X131843400Y-83332580D02*
X131843400Y-82332580D01*
X131748161Y-82475438D01*
X131652923Y-82570676D01*
X131557685Y-82618295D01*
X131138704Y-81757780D02*
X131138704Y-80757780D01*
X131376800Y-80757780D01*
X131519657Y-80805400D01*
X131614895Y-80900638D01*
X131662514Y-80995876D01*
X131710133Y-81186352D01*
X131710133Y-81329209D01*
X131662514Y-81519685D01*
X131614895Y-81614923D01*
X131519657Y-81710161D01*
X131376800Y-81757780D01*
X131138704Y-81757780D01*
X132091085Y-80853019D02*
X132138704Y-80805400D01*
X132233942Y-80757780D01*
X132472038Y-80757780D01*
X132567276Y-80805400D01*
X132614895Y-80853019D01*
X132662514Y-80948257D01*
X132662514Y-81043495D01*
X132614895Y-81186352D01*
X132043466Y-81757780D01*
X132662514Y-81757780D01*
X126692066Y-95845380D02*
X126692066Y-96559666D01*
X126644447Y-96702523D01*
X126549209Y-96797761D01*
X126406352Y-96845380D01*
X126311114Y-96845380D01*
X127692066Y-96845380D02*
X127120638Y-96845380D01*
X127406352Y-96845380D02*
X127406352Y-95845380D01*
X127311114Y-95988238D01*
X127215876Y-96083476D01*
X127120638Y-96131095D01*
X141855866Y-95870780D02*
X141855866Y-96585066D01*
X141808247Y-96727923D01*
X141713009Y-96823161D01*
X141570152Y-96870780D01*
X141474914Y-96870780D01*
X142284438Y-95966019D02*
X142332057Y-95918400D01*
X142427295Y-95870780D01*
X142665390Y-95870780D01*
X142760628Y-95918400D01*
X142808247Y-95966019D01*
X142855866Y-96061257D01*
X142855866Y-96156495D01*
X142808247Y-96299352D01*
X142236819Y-96870780D01*
X142855866Y-96870780D01*
X134083466Y-95896180D02*
X134083466Y-96610466D01*
X134035847Y-96753323D01*
X133940609Y-96848561D01*
X133797752Y-96896180D01*
X133702514Y-96896180D01*
X134464419Y-95896180D02*
X135083466Y-95896180D01*
X134750133Y-96277133D01*
X134892990Y-96277133D01*
X134988228Y-96324752D01*
X135035847Y-96372371D01*
X135083466Y-96467609D01*
X135083466Y-96705704D01*
X135035847Y-96800942D01*
X134988228Y-96848561D01*
X134892990Y-96896180D01*
X134607276Y-96896180D01*
X134512038Y-96848561D01*
X134464419Y-96800942D01*
X138187133Y-83281780D02*
X137853800Y-82805590D01*
X137615704Y-83281780D02*
X137615704Y-82281780D01*
X137996657Y-82281780D01*
X138091895Y-82329400D01*
X138139514Y-82377019D01*
X138187133Y-82472257D01*
X138187133Y-82615114D01*
X138139514Y-82710352D01*
X138091895Y-82757971D01*
X137996657Y-82805590D01*
X137615704Y-82805590D01*
X139139514Y-83281780D02*
X138568085Y-83281780D01*
X138853800Y-83281780D02*
X138853800Y-82281780D01*
X138758561Y-82424638D01*
X138663323Y-82519876D01*
X138568085Y-82567495D01*
X138085533Y-88006180D02*
X137752200Y-87529990D01*
X137514104Y-88006180D02*
X137514104Y-87006180D01*
X137895057Y-87006180D01*
X137990295Y-87053800D01*
X138037914Y-87101419D01*
X138085533Y-87196657D01*
X138085533Y-87339514D01*
X138037914Y-87434752D01*
X137990295Y-87482371D01*
X137895057Y-87529990D01*
X137514104Y-87529990D01*
X138466485Y-87101419D02*
X138514104Y-87053800D01*
X138609342Y-87006180D01*
X138847438Y-87006180D01*
X138942676Y-87053800D01*
X138990295Y-87101419D01*
X139037914Y-87196657D01*
X139037914Y-87291895D01*
X138990295Y-87434752D01*
X138418866Y-88006180D01*
X139037914Y-88006180D01*
X137653733Y-81680580D02*
X137320400Y-81204390D01*
X137082304Y-81680580D02*
X137082304Y-80680580D01*
X137463257Y-80680580D01*
X137558495Y-80728200D01*
X137606114Y-80775819D01*
X137653733Y-80871057D01*
X137653733Y-81013914D01*
X137606114Y-81109152D01*
X137558495Y-81156771D01*
X137463257Y-81204390D01*
X137082304Y-81204390D01*
X137987066Y-80680580D02*
X138606114Y-80680580D01*
X138272780Y-81061533D01*
X138415638Y-81061533D01*
X138510876Y-81109152D01*
X138558495Y-81156771D01*
X138606114Y-81252009D01*
X138606114Y-81490104D01*
X138558495Y-81585342D01*
X138510876Y-81632961D01*
X138415638Y-81680580D01*
X138129923Y-81680580D01*
X138034685Y-81632961D01*
X137987066Y-81585342D01*
X133616866Y-81405361D02*
X133759723Y-81452980D01*
X133997819Y-81452980D01*
X134093057Y-81405361D01*
X134140676Y-81357742D01*
X134188295Y-81262504D01*
X134188295Y-81167266D01*
X134140676Y-81072028D01*
X134093057Y-81024409D01*
X133997819Y-80976790D01*
X133807342Y-80929171D01*
X133712104Y-80881552D01*
X133664485Y-80833933D01*
X133616866Y-80738695D01*
X133616866Y-80643457D01*
X133664485Y-80548219D01*
X133712104Y-80500600D01*
X133807342Y-80452980D01*
X134045438Y-80452980D01*
X134188295Y-80500600D01*
X134521628Y-80452980D02*
X134759723Y-81452980D01*
X134950200Y-80738695D01*
X135140676Y-81452980D01*
X135378771Y-80452980D01*
X136283533Y-81452980D02*
X135712104Y-81452980D01*
X135997819Y-81452980D02*
X135997819Y-80452980D01*
X135902580Y-80595838D01*
X135807342Y-80691076D01*
X135712104Y-80738695D01*
X133807295Y-73442580D02*
X133807295Y-74252104D01*
X133854914Y-74347342D01*
X133902533Y-74394961D01*
X133997771Y-74442580D01*
X134188247Y-74442580D01*
X134283485Y-74394961D01*
X134331104Y-74347342D01*
X134378723Y-74252104D01*
X134378723Y-73442580D01*
X135378723Y-74442580D02*
X134807295Y-74442580D01*
X135093009Y-74442580D02*
X135093009Y-73442580D01*
X134997771Y-73585438D01*
X134902533Y-73680676D01*
X134807295Y-73728295D01*
M02*
