M48
; DRILL file {KiCad (5.1.4-0)} date 2020 July 13, Monday 22:24:11
; FORMAT={-:-/ absolute / metric / decimal}
; #@! TF.CreationDate,2020-07-13T22:24:11+08:00
; #@! TF.GenerationSoftware,Kicad,Pcbnew,(5.1.4-0)
; #@! TF.FileFunction,Plated,1,2,PTH
FMAT,2
METRIC
T1C0.400
T2C1.000
%
G90
G05
T1
X131.47Y-72.796
X132.715Y-81.382
X132.715Y-82.753
X133.198Y-86.081
X133.553Y-88.392
X133.604Y-77.699
X133.985Y-74.6
X134.569Y-86.081
X135.534Y-77.8
X135.611Y-73.939
X136.296Y-86.208
X137.77Y-77.699
X138.049Y-81.559
X139.649Y-81.509
T2
X127.051Y-66.015
X127.051Y-68.555
X127.051Y-71.095
X127.051Y-73.635
X127.051Y-76.175
X127.051Y-78.715
X127.051Y-81.255
X127.051Y-83.795
X127.051Y-86.335
X127.051Y-88.875
X127.051Y-91.415
X127.051Y-93.955
X132.004Y-94.183
X134.544Y-94.183
X137.084Y-94.183
X142.164Y-66.142
X142.164Y-68.682
X142.164Y-71.222
X142.164Y-73.762
X142.164Y-76.302
X142.164Y-78.842
X142.164Y-81.382
X142.164Y-83.922
X142.164Y-86.462
X142.164Y-89.002
X142.164Y-91.542
X142.164Y-94.082
T0
M30
