G04 #@! TF.GenerationSoftware,KiCad,Pcbnew,(5.1.4-0)*
G04 #@! TF.CreationDate,2020-07-13T22:24:35+08:00*
G04 #@! TF.ProjectId,attiny3217,61747469-6e79-4333-9231-372e6b696361,rev?*
G04 #@! TF.SameCoordinates,Original*
G04 #@! TF.FileFunction,Copper,L2,Bot*
G04 #@! TF.FilePolarity,Positive*
%FSLAX46Y46*%
G04 Gerber Fmt 4.6, Leading zero omitted, Abs format (unit mm)*
G04 Created by KiCad (PCBNEW (5.1.4-0)) date 2020-07-13 22:24:35*
%MOMM*%
%LPD*%
G04 APERTURE LIST*
%ADD10O,1.700000X1.700000*%
%ADD11R,1.700000X1.700000*%
%ADD12C,0.800000*%
%ADD13C,0.500000*%
%ADD14C,0.250000*%
%ADD15C,0.254000*%
G04 APERTURE END LIST*
D10*
X127050800Y-93954600D03*
X127050800Y-91414600D03*
X127050800Y-88874600D03*
X127050800Y-86334600D03*
X127050800Y-83794600D03*
X127050800Y-81254600D03*
X127050800Y-78714600D03*
X127050800Y-76174600D03*
X127050800Y-73634600D03*
X127050800Y-71094600D03*
X127050800Y-68554600D03*
D11*
X127050800Y-66014600D03*
X142163800Y-66141600D03*
D10*
X142163800Y-68681600D03*
X142163800Y-71221600D03*
X142163800Y-73761600D03*
X142163800Y-76301600D03*
X142163800Y-78841600D03*
X142163800Y-81381600D03*
X142163800Y-83921600D03*
X142163800Y-86461600D03*
X142163800Y-89001600D03*
X142163800Y-91541600D03*
X142163800Y-94081600D03*
D11*
X137083800Y-94183200D03*
D10*
X134543800Y-94183200D03*
X132003800Y-94183200D03*
D12*
X136296400Y-86207600D03*
X135534400Y-77800200D03*
X133985000Y-74599800D03*
X132715000Y-81381600D03*
X132715000Y-82753200D03*
X133604000Y-77698600D03*
X133197600Y-86080600D03*
X134569200Y-86080600D03*
X131470400Y-72796400D03*
X133553200Y-88392000D03*
X138049000Y-81559400D03*
X139649200Y-81508600D03*
X137769600Y-77698600D03*
X135610600Y-73939400D03*
D13*
X136296400Y-78562200D02*
X135534400Y-77800200D01*
X136296400Y-86207600D02*
X136296400Y-78562200D01*
D14*
X131470400Y-86309200D02*
X133553200Y-88392000D01*
X131470400Y-72796400D02*
X131470400Y-86309200D01*
X139598400Y-81559400D02*
X139649200Y-81508600D01*
X138049000Y-81559400D02*
X139598400Y-81559400D01*
X137769600Y-77698600D02*
X138607800Y-78536800D01*
X138607800Y-78536800D02*
X139496800Y-78536800D01*
X139496800Y-78536800D02*
X140614400Y-79654400D01*
X140614400Y-87452200D02*
X142163800Y-89001600D01*
X140614400Y-79654400D02*
X140614400Y-87452200D01*
X136010599Y-74339399D02*
X136493199Y-74339399D01*
X135610600Y-73939400D02*
X136010599Y-74339399D01*
X136493199Y-74339399D02*
X137044599Y-74890799D01*
X137044599Y-74890799D02*
X137044599Y-85634999D01*
X137044599Y-85634999D02*
X140614400Y-89204800D01*
X140614400Y-89992200D02*
X142163800Y-91541600D01*
X140614400Y-89204800D02*
X140614400Y-89992200D01*
D15*
G36*
X143586698Y-64535572D02*
G01*
X143586768Y-65016488D01*
X143544337Y-64937106D01*
X143464985Y-64840415D01*
X143368294Y-64761063D01*
X143257980Y-64702098D01*
X143138282Y-64665788D01*
X143013800Y-64653528D01*
X141313800Y-64653528D01*
X141189318Y-64665788D01*
X141069620Y-64702098D01*
X140959306Y-64761063D01*
X140862615Y-64840415D01*
X140783263Y-64937106D01*
X140724298Y-65047420D01*
X140687988Y-65167118D01*
X140675728Y-65291600D01*
X140675728Y-66991600D01*
X140687988Y-67116082D01*
X140724298Y-67235780D01*
X140783263Y-67346094D01*
X140862615Y-67442785D01*
X140959306Y-67522137D01*
X141069620Y-67581102D01*
X141138487Y-67601993D01*
X141108666Y-67626466D01*
X140923094Y-67852586D01*
X140785201Y-68110566D01*
X140700287Y-68390489D01*
X140671615Y-68681600D01*
X140700287Y-68972711D01*
X140785201Y-69252634D01*
X140923094Y-69510614D01*
X141108666Y-69736734D01*
X141334786Y-69922306D01*
X141389591Y-69951600D01*
X141334786Y-69980894D01*
X141108666Y-70166466D01*
X140923094Y-70392586D01*
X140785201Y-70650566D01*
X140700287Y-70930489D01*
X140671615Y-71221600D01*
X140700287Y-71512711D01*
X140785201Y-71792634D01*
X140923094Y-72050614D01*
X141108666Y-72276734D01*
X141334786Y-72462306D01*
X141389591Y-72491600D01*
X141334786Y-72520894D01*
X141108666Y-72706466D01*
X140923094Y-72932586D01*
X140785201Y-73190566D01*
X140700287Y-73470489D01*
X140671615Y-73761600D01*
X140700287Y-74052711D01*
X140785201Y-74332634D01*
X140923094Y-74590614D01*
X141108666Y-74816734D01*
X141334786Y-75002306D01*
X141389591Y-75031600D01*
X141334786Y-75060894D01*
X141108666Y-75246466D01*
X140923094Y-75472586D01*
X140785201Y-75730566D01*
X140700287Y-76010489D01*
X140671615Y-76301600D01*
X140700287Y-76592711D01*
X140785201Y-76872634D01*
X140923094Y-77130614D01*
X141108666Y-77356734D01*
X141334786Y-77542306D01*
X141389591Y-77571600D01*
X141334786Y-77600894D01*
X141108666Y-77786466D01*
X140923094Y-78012586D01*
X140785201Y-78270566D01*
X140700287Y-78550489D01*
X140689976Y-78655175D01*
X140060604Y-78025802D01*
X140036801Y-77996799D01*
X139921076Y-77901826D01*
X139789047Y-77831254D01*
X139645786Y-77787797D01*
X139534133Y-77776800D01*
X139534122Y-77776800D01*
X139496800Y-77773124D01*
X139459478Y-77776800D01*
X138922602Y-77776800D01*
X138804600Y-77658798D01*
X138804600Y-77596661D01*
X138764826Y-77396702D01*
X138686805Y-77208344D01*
X138573537Y-77038826D01*
X138429374Y-76894663D01*
X138259856Y-76781395D01*
X138071498Y-76703374D01*
X137871539Y-76663600D01*
X137804599Y-76663600D01*
X137804599Y-74928121D01*
X137808275Y-74890798D01*
X137804599Y-74853475D01*
X137804599Y-74853466D01*
X137793602Y-74741813D01*
X137750145Y-74598552D01*
X137679573Y-74466523D01*
X137584600Y-74350798D01*
X137555602Y-74327001D01*
X137057002Y-73828401D01*
X137033200Y-73799398D01*
X136917475Y-73704425D01*
X136785446Y-73633853D01*
X136642185Y-73590396D01*
X136583938Y-73584659D01*
X136527805Y-73449144D01*
X136414537Y-73279626D01*
X136270374Y-73135463D01*
X136100856Y-73022195D01*
X135912498Y-72944174D01*
X135712539Y-72904400D01*
X135508661Y-72904400D01*
X135308702Y-72944174D01*
X135120344Y-73022195D01*
X134950826Y-73135463D01*
X134806663Y-73279626D01*
X134693395Y-73449144D01*
X134615374Y-73637502D01*
X134575600Y-73837461D01*
X134575600Y-74041339D01*
X134615374Y-74241298D01*
X134693395Y-74429656D01*
X134806663Y-74599174D01*
X134950826Y-74743337D01*
X135120344Y-74856605D01*
X135308702Y-74934626D01*
X135508661Y-74974400D01*
X135586374Y-74974400D01*
X135718352Y-75044945D01*
X135861613Y-75088402D01*
X135973266Y-75099399D01*
X135973276Y-75099399D01*
X136010598Y-75103075D01*
X136047921Y-75099399D01*
X136178398Y-75099399D01*
X136284599Y-75205601D01*
X136284599Y-77086688D01*
X136194174Y-76996263D01*
X136024656Y-76882995D01*
X135836298Y-76804974D01*
X135636339Y-76765200D01*
X135432461Y-76765200D01*
X135232502Y-76804974D01*
X135044144Y-76882995D01*
X134874626Y-76996263D01*
X134730463Y-77140426D01*
X134617195Y-77309944D01*
X134539174Y-77498302D01*
X134499400Y-77698261D01*
X134499400Y-77902139D01*
X134539174Y-78102098D01*
X134617195Y-78290456D01*
X134730463Y-78459974D01*
X134874626Y-78604137D01*
X135044144Y-78717405D01*
X135232502Y-78795426D01*
X135289356Y-78806735D01*
X135411401Y-78928780D01*
X135411400Y-85669146D01*
X135379195Y-85717344D01*
X135301174Y-85905702D01*
X135261400Y-86105661D01*
X135261400Y-86309539D01*
X135301174Y-86509498D01*
X135379195Y-86697856D01*
X135492463Y-86867374D01*
X135636626Y-87011537D01*
X135806144Y-87124805D01*
X135994502Y-87202826D01*
X136194461Y-87242600D01*
X136398339Y-87242600D01*
X136598298Y-87202826D01*
X136786656Y-87124805D01*
X136956174Y-87011537D01*
X137100337Y-86867374D01*
X137141127Y-86806328D01*
X139854400Y-89519602D01*
X139854400Y-89954878D01*
X139850724Y-89992200D01*
X139854400Y-90029522D01*
X139854400Y-90029533D01*
X139865397Y-90141186D01*
X139893717Y-90234544D01*
X139908854Y-90284446D01*
X139979426Y-90416476D01*
X140019342Y-90465113D01*
X140074400Y-90532201D01*
X140103398Y-90555999D01*
X140723003Y-91175605D01*
X140700287Y-91250489D01*
X140671615Y-91541600D01*
X140700287Y-91832711D01*
X140785201Y-92112634D01*
X140923094Y-92370614D01*
X141108666Y-92596734D01*
X141334786Y-92782306D01*
X141389591Y-92811600D01*
X141334786Y-92840894D01*
X141108666Y-93026466D01*
X140923094Y-93252586D01*
X140785201Y-93510566D01*
X140700287Y-93790489D01*
X140671615Y-94081600D01*
X140700287Y-94372711D01*
X140785201Y-94652634D01*
X140923094Y-94910614D01*
X141108666Y-95136734D01*
X141334786Y-95322306D01*
X141592766Y-95460199D01*
X141872689Y-95545113D01*
X142090850Y-95566600D01*
X142236750Y-95566600D01*
X142454911Y-95545113D01*
X142734834Y-95460199D01*
X142992814Y-95322306D01*
X143218934Y-95136734D01*
X143404506Y-94910614D01*
X143542399Y-94652634D01*
X143591101Y-94492084D01*
X143591583Y-97770255D01*
X125728271Y-97774986D01*
X125721882Y-94601267D01*
X125779159Y-94721520D01*
X125953212Y-94954869D01*
X126169445Y-95149778D01*
X126419548Y-95298757D01*
X126693909Y-95396081D01*
X126923800Y-95275414D01*
X126923800Y-94081600D01*
X127177800Y-94081600D01*
X127177800Y-95275414D01*
X127407691Y-95396081D01*
X127682052Y-95298757D01*
X127932155Y-95149778D01*
X128148388Y-94954869D01*
X128322441Y-94721520D01*
X128408857Y-94540091D01*
X130562319Y-94540091D01*
X130659643Y-94814452D01*
X130808622Y-95064555D01*
X131003531Y-95280788D01*
X131236880Y-95454841D01*
X131499701Y-95580025D01*
X131646910Y-95624676D01*
X131876800Y-95503355D01*
X131876800Y-94310200D01*
X130682986Y-94310200D01*
X130562319Y-94540091D01*
X128408857Y-94540091D01*
X128447625Y-94458699D01*
X128492276Y-94311490D01*
X128370955Y-94081600D01*
X127177800Y-94081600D01*
X126923800Y-94081600D01*
X126903800Y-94081600D01*
X126903800Y-93827600D01*
X126923800Y-93827600D01*
X126923800Y-93807600D01*
X127177800Y-93807600D01*
X127177800Y-93827600D01*
X128370955Y-93827600D01*
X128371636Y-93826309D01*
X130562319Y-93826309D01*
X130682986Y-94056200D01*
X131876800Y-94056200D01*
X131876800Y-92863045D01*
X132130800Y-92863045D01*
X132130800Y-94056200D01*
X132150800Y-94056200D01*
X132150800Y-94310200D01*
X132130800Y-94310200D01*
X132130800Y-95503355D01*
X132360690Y-95624676D01*
X132507899Y-95580025D01*
X132770720Y-95454841D01*
X133004069Y-95280788D01*
X133198978Y-95064555D01*
X133268599Y-94947677D01*
X133303094Y-95012214D01*
X133488666Y-95238334D01*
X133714786Y-95423906D01*
X133972766Y-95561799D01*
X134252689Y-95646713D01*
X134470850Y-95668200D01*
X134616750Y-95668200D01*
X134834911Y-95646713D01*
X135114834Y-95561799D01*
X135372814Y-95423906D01*
X135598934Y-95238334D01*
X135623407Y-95208513D01*
X135644298Y-95277380D01*
X135703263Y-95387694D01*
X135782615Y-95484385D01*
X135879306Y-95563737D01*
X135989620Y-95622702D01*
X136109318Y-95659012D01*
X136233800Y-95671272D01*
X137933800Y-95671272D01*
X138058282Y-95659012D01*
X138177980Y-95622702D01*
X138288294Y-95563737D01*
X138384985Y-95484385D01*
X138464337Y-95387694D01*
X138523302Y-95277380D01*
X138559612Y-95157682D01*
X138571872Y-95033200D01*
X138571872Y-93333200D01*
X138559612Y-93208718D01*
X138523302Y-93089020D01*
X138464337Y-92978706D01*
X138384985Y-92882015D01*
X138288294Y-92802663D01*
X138177980Y-92743698D01*
X138058282Y-92707388D01*
X137933800Y-92695128D01*
X136233800Y-92695128D01*
X136109318Y-92707388D01*
X135989620Y-92743698D01*
X135879306Y-92802663D01*
X135782615Y-92882015D01*
X135703263Y-92978706D01*
X135644298Y-93089020D01*
X135623407Y-93157887D01*
X135598934Y-93128066D01*
X135372814Y-92942494D01*
X135114834Y-92804601D01*
X134834911Y-92719687D01*
X134616750Y-92698200D01*
X134470850Y-92698200D01*
X134252689Y-92719687D01*
X133972766Y-92804601D01*
X133714786Y-92942494D01*
X133488666Y-93128066D01*
X133303094Y-93354186D01*
X133268599Y-93418723D01*
X133198978Y-93301845D01*
X133004069Y-93085612D01*
X132770720Y-92911559D01*
X132507899Y-92786375D01*
X132360690Y-92741724D01*
X132130800Y-92863045D01*
X131876800Y-92863045D01*
X131646910Y-92741724D01*
X131499701Y-92786375D01*
X131236880Y-92911559D01*
X131003531Y-93085612D01*
X130808622Y-93301845D01*
X130659643Y-93551948D01*
X130562319Y-93826309D01*
X128371636Y-93826309D01*
X128492276Y-93597710D01*
X128447625Y-93450501D01*
X128322441Y-93187680D01*
X128148388Y-92954331D01*
X127932155Y-92759422D01*
X127815277Y-92689801D01*
X127879814Y-92655306D01*
X128105934Y-92469734D01*
X128291506Y-92243614D01*
X128429399Y-91985634D01*
X128514313Y-91705711D01*
X128542985Y-91414600D01*
X128514313Y-91123489D01*
X128429399Y-90843566D01*
X128291506Y-90585586D01*
X128105934Y-90359466D01*
X127879814Y-90173894D01*
X127825009Y-90144600D01*
X127879814Y-90115306D01*
X128105934Y-89929734D01*
X128291506Y-89703614D01*
X128429399Y-89445634D01*
X128514313Y-89165711D01*
X128542985Y-88874600D01*
X128514313Y-88583489D01*
X128429399Y-88303566D01*
X128291506Y-88045586D01*
X128105934Y-87819466D01*
X127879814Y-87633894D01*
X127825009Y-87604600D01*
X127879814Y-87575306D01*
X128105934Y-87389734D01*
X128291506Y-87163614D01*
X128429399Y-86905634D01*
X128514313Y-86625711D01*
X128542985Y-86334600D01*
X128514313Y-86043489D01*
X128429399Y-85763566D01*
X128291506Y-85505586D01*
X128105934Y-85279466D01*
X127879814Y-85093894D01*
X127825009Y-85064600D01*
X127879814Y-85035306D01*
X128105934Y-84849734D01*
X128291506Y-84623614D01*
X128429399Y-84365634D01*
X128514313Y-84085711D01*
X128542985Y-83794600D01*
X128514313Y-83503489D01*
X128429399Y-83223566D01*
X128291506Y-82965586D01*
X128105934Y-82739466D01*
X127879814Y-82553894D01*
X127825009Y-82524600D01*
X127879814Y-82495306D01*
X128105934Y-82309734D01*
X128291506Y-82083614D01*
X128429399Y-81825634D01*
X128514313Y-81545711D01*
X128542985Y-81254600D01*
X128514313Y-80963489D01*
X128429399Y-80683566D01*
X128291506Y-80425586D01*
X128105934Y-80199466D01*
X127879814Y-80013894D01*
X127825009Y-79984600D01*
X127879814Y-79955306D01*
X128105934Y-79769734D01*
X128291506Y-79543614D01*
X128429399Y-79285634D01*
X128514313Y-79005711D01*
X128542985Y-78714600D01*
X128514313Y-78423489D01*
X128429399Y-78143566D01*
X128291506Y-77885586D01*
X128105934Y-77659466D01*
X127879814Y-77473894D01*
X127825009Y-77444600D01*
X127879814Y-77415306D01*
X128105934Y-77229734D01*
X128291506Y-77003614D01*
X128429399Y-76745634D01*
X128514313Y-76465711D01*
X128542985Y-76174600D01*
X128514313Y-75883489D01*
X128429399Y-75603566D01*
X128291506Y-75345586D01*
X128105934Y-75119466D01*
X127879814Y-74933894D01*
X127825009Y-74904600D01*
X127879814Y-74875306D01*
X128105934Y-74689734D01*
X128291506Y-74463614D01*
X128429399Y-74205634D01*
X128514313Y-73925711D01*
X128542985Y-73634600D01*
X128514313Y-73343489D01*
X128429399Y-73063566D01*
X128291506Y-72805586D01*
X128200309Y-72694461D01*
X130435400Y-72694461D01*
X130435400Y-72898339D01*
X130475174Y-73098298D01*
X130553195Y-73286656D01*
X130666463Y-73456174D01*
X130710400Y-73500111D01*
X130710401Y-86271868D01*
X130706724Y-86309200D01*
X130721398Y-86458185D01*
X130764854Y-86601446D01*
X130835426Y-86733476D01*
X130904159Y-86817226D01*
X130930400Y-86849201D01*
X130959398Y-86872999D01*
X132518200Y-88431802D01*
X132518200Y-88493939D01*
X132557974Y-88693898D01*
X132635995Y-88882256D01*
X132749263Y-89051774D01*
X132893426Y-89195937D01*
X133062944Y-89309205D01*
X133251302Y-89387226D01*
X133451261Y-89427000D01*
X133655139Y-89427000D01*
X133855098Y-89387226D01*
X134043456Y-89309205D01*
X134212974Y-89195937D01*
X134357137Y-89051774D01*
X134470405Y-88882256D01*
X134548426Y-88693898D01*
X134588200Y-88493939D01*
X134588200Y-88290061D01*
X134548426Y-88090102D01*
X134470405Y-87901744D01*
X134357137Y-87732226D01*
X134212974Y-87588063D01*
X134043456Y-87474795D01*
X133855098Y-87396774D01*
X133655139Y-87357000D01*
X133593002Y-87357000D01*
X132230400Y-85994399D01*
X132230400Y-73500111D01*
X132274337Y-73456174D01*
X132387605Y-73286656D01*
X132465626Y-73098298D01*
X132505400Y-72898339D01*
X132505400Y-72694461D01*
X132465626Y-72494502D01*
X132387605Y-72306144D01*
X132274337Y-72136626D01*
X132130174Y-71992463D01*
X131960656Y-71879195D01*
X131772298Y-71801174D01*
X131572339Y-71761400D01*
X131368461Y-71761400D01*
X131168502Y-71801174D01*
X130980144Y-71879195D01*
X130810626Y-71992463D01*
X130666463Y-72136626D01*
X130553195Y-72306144D01*
X130475174Y-72494502D01*
X130435400Y-72694461D01*
X128200309Y-72694461D01*
X128105934Y-72579466D01*
X127879814Y-72393894D01*
X127825009Y-72364600D01*
X127879814Y-72335306D01*
X128105934Y-72149734D01*
X128291506Y-71923614D01*
X128429399Y-71665634D01*
X128514313Y-71385711D01*
X128542985Y-71094600D01*
X128514313Y-70803489D01*
X128429399Y-70523566D01*
X128291506Y-70265586D01*
X128105934Y-70039466D01*
X127879814Y-69853894D01*
X127825009Y-69824600D01*
X127879814Y-69795306D01*
X128105934Y-69609734D01*
X128291506Y-69383614D01*
X128429399Y-69125634D01*
X128514313Y-68845711D01*
X128542985Y-68554600D01*
X128514313Y-68263489D01*
X128429399Y-67983566D01*
X128291506Y-67725586D01*
X128105934Y-67499466D01*
X128076113Y-67474993D01*
X128144980Y-67454102D01*
X128255294Y-67395137D01*
X128351985Y-67315785D01*
X128431337Y-67219094D01*
X128490302Y-67108780D01*
X128526612Y-66989082D01*
X128538872Y-66864600D01*
X128538872Y-65164600D01*
X128526612Y-65040118D01*
X128490302Y-64920420D01*
X128431337Y-64810106D01*
X128351985Y-64713415D01*
X128255294Y-64634063D01*
X128144980Y-64575098D01*
X128025282Y-64538788D01*
X127908586Y-64527295D01*
X143586698Y-64535572D01*
X143586698Y-64535572D01*
G37*
X143586698Y-64535572D02*
X143586768Y-65016488D01*
X143544337Y-64937106D01*
X143464985Y-64840415D01*
X143368294Y-64761063D01*
X143257980Y-64702098D01*
X143138282Y-64665788D01*
X143013800Y-64653528D01*
X141313800Y-64653528D01*
X141189318Y-64665788D01*
X141069620Y-64702098D01*
X140959306Y-64761063D01*
X140862615Y-64840415D01*
X140783263Y-64937106D01*
X140724298Y-65047420D01*
X140687988Y-65167118D01*
X140675728Y-65291600D01*
X140675728Y-66991600D01*
X140687988Y-67116082D01*
X140724298Y-67235780D01*
X140783263Y-67346094D01*
X140862615Y-67442785D01*
X140959306Y-67522137D01*
X141069620Y-67581102D01*
X141138487Y-67601993D01*
X141108666Y-67626466D01*
X140923094Y-67852586D01*
X140785201Y-68110566D01*
X140700287Y-68390489D01*
X140671615Y-68681600D01*
X140700287Y-68972711D01*
X140785201Y-69252634D01*
X140923094Y-69510614D01*
X141108666Y-69736734D01*
X141334786Y-69922306D01*
X141389591Y-69951600D01*
X141334786Y-69980894D01*
X141108666Y-70166466D01*
X140923094Y-70392586D01*
X140785201Y-70650566D01*
X140700287Y-70930489D01*
X140671615Y-71221600D01*
X140700287Y-71512711D01*
X140785201Y-71792634D01*
X140923094Y-72050614D01*
X141108666Y-72276734D01*
X141334786Y-72462306D01*
X141389591Y-72491600D01*
X141334786Y-72520894D01*
X141108666Y-72706466D01*
X140923094Y-72932586D01*
X140785201Y-73190566D01*
X140700287Y-73470489D01*
X140671615Y-73761600D01*
X140700287Y-74052711D01*
X140785201Y-74332634D01*
X140923094Y-74590614D01*
X141108666Y-74816734D01*
X141334786Y-75002306D01*
X141389591Y-75031600D01*
X141334786Y-75060894D01*
X141108666Y-75246466D01*
X140923094Y-75472586D01*
X140785201Y-75730566D01*
X140700287Y-76010489D01*
X140671615Y-76301600D01*
X140700287Y-76592711D01*
X140785201Y-76872634D01*
X140923094Y-77130614D01*
X141108666Y-77356734D01*
X141334786Y-77542306D01*
X141389591Y-77571600D01*
X141334786Y-77600894D01*
X141108666Y-77786466D01*
X140923094Y-78012586D01*
X140785201Y-78270566D01*
X140700287Y-78550489D01*
X140689976Y-78655175D01*
X140060604Y-78025802D01*
X140036801Y-77996799D01*
X139921076Y-77901826D01*
X139789047Y-77831254D01*
X139645786Y-77787797D01*
X139534133Y-77776800D01*
X139534122Y-77776800D01*
X139496800Y-77773124D01*
X139459478Y-77776800D01*
X138922602Y-77776800D01*
X138804600Y-77658798D01*
X138804600Y-77596661D01*
X138764826Y-77396702D01*
X138686805Y-77208344D01*
X138573537Y-77038826D01*
X138429374Y-76894663D01*
X138259856Y-76781395D01*
X138071498Y-76703374D01*
X137871539Y-76663600D01*
X137804599Y-76663600D01*
X137804599Y-74928121D01*
X137808275Y-74890798D01*
X137804599Y-74853475D01*
X137804599Y-74853466D01*
X137793602Y-74741813D01*
X137750145Y-74598552D01*
X137679573Y-74466523D01*
X137584600Y-74350798D01*
X137555602Y-74327001D01*
X137057002Y-73828401D01*
X137033200Y-73799398D01*
X136917475Y-73704425D01*
X136785446Y-73633853D01*
X136642185Y-73590396D01*
X136583938Y-73584659D01*
X136527805Y-73449144D01*
X136414537Y-73279626D01*
X136270374Y-73135463D01*
X136100856Y-73022195D01*
X135912498Y-72944174D01*
X135712539Y-72904400D01*
X135508661Y-72904400D01*
X135308702Y-72944174D01*
X135120344Y-73022195D01*
X134950826Y-73135463D01*
X134806663Y-73279626D01*
X134693395Y-73449144D01*
X134615374Y-73637502D01*
X134575600Y-73837461D01*
X134575600Y-74041339D01*
X134615374Y-74241298D01*
X134693395Y-74429656D01*
X134806663Y-74599174D01*
X134950826Y-74743337D01*
X135120344Y-74856605D01*
X135308702Y-74934626D01*
X135508661Y-74974400D01*
X135586374Y-74974400D01*
X135718352Y-75044945D01*
X135861613Y-75088402D01*
X135973266Y-75099399D01*
X135973276Y-75099399D01*
X136010598Y-75103075D01*
X136047921Y-75099399D01*
X136178398Y-75099399D01*
X136284599Y-75205601D01*
X136284599Y-77086688D01*
X136194174Y-76996263D01*
X136024656Y-76882995D01*
X135836298Y-76804974D01*
X135636339Y-76765200D01*
X135432461Y-76765200D01*
X135232502Y-76804974D01*
X135044144Y-76882995D01*
X134874626Y-76996263D01*
X134730463Y-77140426D01*
X134617195Y-77309944D01*
X134539174Y-77498302D01*
X134499400Y-77698261D01*
X134499400Y-77902139D01*
X134539174Y-78102098D01*
X134617195Y-78290456D01*
X134730463Y-78459974D01*
X134874626Y-78604137D01*
X135044144Y-78717405D01*
X135232502Y-78795426D01*
X135289356Y-78806735D01*
X135411401Y-78928780D01*
X135411400Y-85669146D01*
X135379195Y-85717344D01*
X135301174Y-85905702D01*
X135261400Y-86105661D01*
X135261400Y-86309539D01*
X135301174Y-86509498D01*
X135379195Y-86697856D01*
X135492463Y-86867374D01*
X135636626Y-87011537D01*
X135806144Y-87124805D01*
X135994502Y-87202826D01*
X136194461Y-87242600D01*
X136398339Y-87242600D01*
X136598298Y-87202826D01*
X136786656Y-87124805D01*
X136956174Y-87011537D01*
X137100337Y-86867374D01*
X137141127Y-86806328D01*
X139854400Y-89519602D01*
X139854400Y-89954878D01*
X139850724Y-89992200D01*
X139854400Y-90029522D01*
X139854400Y-90029533D01*
X139865397Y-90141186D01*
X139893717Y-90234544D01*
X139908854Y-90284446D01*
X139979426Y-90416476D01*
X140019342Y-90465113D01*
X140074400Y-90532201D01*
X140103398Y-90555999D01*
X140723003Y-91175605D01*
X140700287Y-91250489D01*
X140671615Y-91541600D01*
X140700287Y-91832711D01*
X140785201Y-92112634D01*
X140923094Y-92370614D01*
X141108666Y-92596734D01*
X141334786Y-92782306D01*
X141389591Y-92811600D01*
X141334786Y-92840894D01*
X141108666Y-93026466D01*
X140923094Y-93252586D01*
X140785201Y-93510566D01*
X140700287Y-93790489D01*
X140671615Y-94081600D01*
X140700287Y-94372711D01*
X140785201Y-94652634D01*
X140923094Y-94910614D01*
X141108666Y-95136734D01*
X141334786Y-95322306D01*
X141592766Y-95460199D01*
X141872689Y-95545113D01*
X142090850Y-95566600D01*
X142236750Y-95566600D01*
X142454911Y-95545113D01*
X142734834Y-95460199D01*
X142992814Y-95322306D01*
X143218934Y-95136734D01*
X143404506Y-94910614D01*
X143542399Y-94652634D01*
X143591101Y-94492084D01*
X143591583Y-97770255D01*
X125728271Y-97774986D01*
X125721882Y-94601267D01*
X125779159Y-94721520D01*
X125953212Y-94954869D01*
X126169445Y-95149778D01*
X126419548Y-95298757D01*
X126693909Y-95396081D01*
X126923800Y-95275414D01*
X126923800Y-94081600D01*
X127177800Y-94081600D01*
X127177800Y-95275414D01*
X127407691Y-95396081D01*
X127682052Y-95298757D01*
X127932155Y-95149778D01*
X128148388Y-94954869D01*
X128322441Y-94721520D01*
X128408857Y-94540091D01*
X130562319Y-94540091D01*
X130659643Y-94814452D01*
X130808622Y-95064555D01*
X131003531Y-95280788D01*
X131236880Y-95454841D01*
X131499701Y-95580025D01*
X131646910Y-95624676D01*
X131876800Y-95503355D01*
X131876800Y-94310200D01*
X130682986Y-94310200D01*
X130562319Y-94540091D01*
X128408857Y-94540091D01*
X128447625Y-94458699D01*
X128492276Y-94311490D01*
X128370955Y-94081600D01*
X127177800Y-94081600D01*
X126923800Y-94081600D01*
X126903800Y-94081600D01*
X126903800Y-93827600D01*
X126923800Y-93827600D01*
X126923800Y-93807600D01*
X127177800Y-93807600D01*
X127177800Y-93827600D01*
X128370955Y-93827600D01*
X128371636Y-93826309D01*
X130562319Y-93826309D01*
X130682986Y-94056200D01*
X131876800Y-94056200D01*
X131876800Y-92863045D01*
X132130800Y-92863045D01*
X132130800Y-94056200D01*
X132150800Y-94056200D01*
X132150800Y-94310200D01*
X132130800Y-94310200D01*
X132130800Y-95503355D01*
X132360690Y-95624676D01*
X132507899Y-95580025D01*
X132770720Y-95454841D01*
X133004069Y-95280788D01*
X133198978Y-95064555D01*
X133268599Y-94947677D01*
X133303094Y-95012214D01*
X133488666Y-95238334D01*
X133714786Y-95423906D01*
X133972766Y-95561799D01*
X134252689Y-95646713D01*
X134470850Y-95668200D01*
X134616750Y-95668200D01*
X134834911Y-95646713D01*
X135114834Y-95561799D01*
X135372814Y-95423906D01*
X135598934Y-95238334D01*
X135623407Y-95208513D01*
X135644298Y-95277380D01*
X135703263Y-95387694D01*
X135782615Y-95484385D01*
X135879306Y-95563737D01*
X135989620Y-95622702D01*
X136109318Y-95659012D01*
X136233800Y-95671272D01*
X137933800Y-95671272D01*
X138058282Y-95659012D01*
X138177980Y-95622702D01*
X138288294Y-95563737D01*
X138384985Y-95484385D01*
X138464337Y-95387694D01*
X138523302Y-95277380D01*
X138559612Y-95157682D01*
X138571872Y-95033200D01*
X138571872Y-93333200D01*
X138559612Y-93208718D01*
X138523302Y-93089020D01*
X138464337Y-92978706D01*
X138384985Y-92882015D01*
X138288294Y-92802663D01*
X138177980Y-92743698D01*
X138058282Y-92707388D01*
X137933800Y-92695128D01*
X136233800Y-92695128D01*
X136109318Y-92707388D01*
X135989620Y-92743698D01*
X135879306Y-92802663D01*
X135782615Y-92882015D01*
X135703263Y-92978706D01*
X135644298Y-93089020D01*
X135623407Y-93157887D01*
X135598934Y-93128066D01*
X135372814Y-92942494D01*
X135114834Y-92804601D01*
X134834911Y-92719687D01*
X134616750Y-92698200D01*
X134470850Y-92698200D01*
X134252689Y-92719687D01*
X133972766Y-92804601D01*
X133714786Y-92942494D01*
X133488666Y-93128066D01*
X133303094Y-93354186D01*
X133268599Y-93418723D01*
X133198978Y-93301845D01*
X133004069Y-93085612D01*
X132770720Y-92911559D01*
X132507899Y-92786375D01*
X132360690Y-92741724D01*
X132130800Y-92863045D01*
X131876800Y-92863045D01*
X131646910Y-92741724D01*
X131499701Y-92786375D01*
X131236880Y-92911559D01*
X131003531Y-93085612D01*
X130808622Y-93301845D01*
X130659643Y-93551948D01*
X130562319Y-93826309D01*
X128371636Y-93826309D01*
X128492276Y-93597710D01*
X128447625Y-93450501D01*
X128322441Y-93187680D01*
X128148388Y-92954331D01*
X127932155Y-92759422D01*
X127815277Y-92689801D01*
X127879814Y-92655306D01*
X128105934Y-92469734D01*
X128291506Y-92243614D01*
X128429399Y-91985634D01*
X128514313Y-91705711D01*
X128542985Y-91414600D01*
X128514313Y-91123489D01*
X128429399Y-90843566D01*
X128291506Y-90585586D01*
X128105934Y-90359466D01*
X127879814Y-90173894D01*
X127825009Y-90144600D01*
X127879814Y-90115306D01*
X128105934Y-89929734D01*
X128291506Y-89703614D01*
X128429399Y-89445634D01*
X128514313Y-89165711D01*
X128542985Y-88874600D01*
X128514313Y-88583489D01*
X128429399Y-88303566D01*
X128291506Y-88045586D01*
X128105934Y-87819466D01*
X127879814Y-87633894D01*
X127825009Y-87604600D01*
X127879814Y-87575306D01*
X128105934Y-87389734D01*
X128291506Y-87163614D01*
X128429399Y-86905634D01*
X128514313Y-86625711D01*
X128542985Y-86334600D01*
X128514313Y-86043489D01*
X128429399Y-85763566D01*
X128291506Y-85505586D01*
X128105934Y-85279466D01*
X127879814Y-85093894D01*
X127825009Y-85064600D01*
X127879814Y-85035306D01*
X128105934Y-84849734D01*
X128291506Y-84623614D01*
X128429399Y-84365634D01*
X128514313Y-84085711D01*
X128542985Y-83794600D01*
X128514313Y-83503489D01*
X128429399Y-83223566D01*
X128291506Y-82965586D01*
X128105934Y-82739466D01*
X127879814Y-82553894D01*
X127825009Y-82524600D01*
X127879814Y-82495306D01*
X128105934Y-82309734D01*
X128291506Y-82083614D01*
X128429399Y-81825634D01*
X128514313Y-81545711D01*
X128542985Y-81254600D01*
X128514313Y-80963489D01*
X128429399Y-80683566D01*
X128291506Y-80425586D01*
X128105934Y-80199466D01*
X127879814Y-80013894D01*
X127825009Y-79984600D01*
X127879814Y-79955306D01*
X128105934Y-79769734D01*
X128291506Y-79543614D01*
X128429399Y-79285634D01*
X128514313Y-79005711D01*
X128542985Y-78714600D01*
X128514313Y-78423489D01*
X128429399Y-78143566D01*
X128291506Y-77885586D01*
X128105934Y-77659466D01*
X127879814Y-77473894D01*
X127825009Y-77444600D01*
X127879814Y-77415306D01*
X128105934Y-77229734D01*
X128291506Y-77003614D01*
X128429399Y-76745634D01*
X128514313Y-76465711D01*
X128542985Y-76174600D01*
X128514313Y-75883489D01*
X128429399Y-75603566D01*
X128291506Y-75345586D01*
X128105934Y-75119466D01*
X127879814Y-74933894D01*
X127825009Y-74904600D01*
X127879814Y-74875306D01*
X128105934Y-74689734D01*
X128291506Y-74463614D01*
X128429399Y-74205634D01*
X128514313Y-73925711D01*
X128542985Y-73634600D01*
X128514313Y-73343489D01*
X128429399Y-73063566D01*
X128291506Y-72805586D01*
X128200309Y-72694461D01*
X130435400Y-72694461D01*
X130435400Y-72898339D01*
X130475174Y-73098298D01*
X130553195Y-73286656D01*
X130666463Y-73456174D01*
X130710400Y-73500111D01*
X130710401Y-86271868D01*
X130706724Y-86309200D01*
X130721398Y-86458185D01*
X130764854Y-86601446D01*
X130835426Y-86733476D01*
X130904159Y-86817226D01*
X130930400Y-86849201D01*
X130959398Y-86872999D01*
X132518200Y-88431802D01*
X132518200Y-88493939D01*
X132557974Y-88693898D01*
X132635995Y-88882256D01*
X132749263Y-89051774D01*
X132893426Y-89195937D01*
X133062944Y-89309205D01*
X133251302Y-89387226D01*
X133451261Y-89427000D01*
X133655139Y-89427000D01*
X133855098Y-89387226D01*
X134043456Y-89309205D01*
X134212974Y-89195937D01*
X134357137Y-89051774D01*
X134470405Y-88882256D01*
X134548426Y-88693898D01*
X134588200Y-88493939D01*
X134588200Y-88290061D01*
X134548426Y-88090102D01*
X134470405Y-87901744D01*
X134357137Y-87732226D01*
X134212974Y-87588063D01*
X134043456Y-87474795D01*
X133855098Y-87396774D01*
X133655139Y-87357000D01*
X133593002Y-87357000D01*
X132230400Y-85994399D01*
X132230400Y-73500111D01*
X132274337Y-73456174D01*
X132387605Y-73286656D01*
X132465626Y-73098298D01*
X132505400Y-72898339D01*
X132505400Y-72694461D01*
X132465626Y-72494502D01*
X132387605Y-72306144D01*
X132274337Y-72136626D01*
X132130174Y-71992463D01*
X131960656Y-71879195D01*
X131772298Y-71801174D01*
X131572339Y-71761400D01*
X131368461Y-71761400D01*
X131168502Y-71801174D01*
X130980144Y-71879195D01*
X130810626Y-71992463D01*
X130666463Y-72136626D01*
X130553195Y-72306144D01*
X130475174Y-72494502D01*
X130435400Y-72694461D01*
X128200309Y-72694461D01*
X128105934Y-72579466D01*
X127879814Y-72393894D01*
X127825009Y-72364600D01*
X127879814Y-72335306D01*
X128105934Y-72149734D01*
X128291506Y-71923614D01*
X128429399Y-71665634D01*
X128514313Y-71385711D01*
X128542985Y-71094600D01*
X128514313Y-70803489D01*
X128429399Y-70523566D01*
X128291506Y-70265586D01*
X128105934Y-70039466D01*
X127879814Y-69853894D01*
X127825009Y-69824600D01*
X127879814Y-69795306D01*
X128105934Y-69609734D01*
X128291506Y-69383614D01*
X128429399Y-69125634D01*
X128514313Y-68845711D01*
X128542985Y-68554600D01*
X128514313Y-68263489D01*
X128429399Y-67983566D01*
X128291506Y-67725586D01*
X128105934Y-67499466D01*
X128076113Y-67474993D01*
X128144980Y-67454102D01*
X128255294Y-67395137D01*
X128351985Y-67315785D01*
X128431337Y-67219094D01*
X128490302Y-67108780D01*
X128526612Y-66989082D01*
X128538872Y-66864600D01*
X128538872Y-65164600D01*
X128526612Y-65040118D01*
X128490302Y-64920420D01*
X128431337Y-64810106D01*
X128351985Y-64713415D01*
X128255294Y-64634063D01*
X128144980Y-64575098D01*
X128025282Y-64538788D01*
X127908586Y-64527295D01*
X143586698Y-64535572D01*
M02*
