G04 #@! TF.GenerationSoftware,KiCad,Pcbnew,(5.1.4-0)*
G04 #@! TF.CreationDate,2020-07-13T22:24:35+08:00*
G04 #@! TF.ProjectId,attiny3217,61747469-6e79-4333-9231-372e6b696361,rev?*
G04 #@! TF.SameCoordinates,Original*
G04 #@! TF.FileFunction,Copper,L1,Top*
G04 #@! TF.FilePolarity,Positive*
%FSLAX46Y46*%
G04 Gerber Fmt 4.6, Leading zero omitted, Abs format (unit mm)*
G04 Created by KiCad (PCBNEW (5.1.4-0)) date 2020-07-13 22:24:35*
%MOMM*%
%LPD*%
G04 APERTURE LIST*
%ADD10C,0.100000*%
%ADD11C,0.975000*%
%ADD12O,1.700000X1.700000*%
%ADD13R,1.700000X1.700000*%
%ADD14R,1.500000X1.500000*%
%ADD15C,2.600000*%
%ADD16C,0.250000*%
%ADD17C,0.800000*%
%ADD18C,0.500000*%
%ADD19C,0.250000*%
%ADD20C,0.254000*%
G04 APERTURE END LIST*
D10*
G36*
X135748942Y-75348774D02*
G01*
X135772603Y-75352284D01*
X135795807Y-75358096D01*
X135818329Y-75366154D01*
X135839953Y-75376382D01*
X135860470Y-75388679D01*
X135879683Y-75402929D01*
X135897407Y-75418993D01*
X135913471Y-75436717D01*
X135927721Y-75455930D01*
X135940018Y-75476447D01*
X135950246Y-75498071D01*
X135958304Y-75520593D01*
X135964116Y-75543797D01*
X135967626Y-75567458D01*
X135968800Y-75591350D01*
X135968800Y-76503850D01*
X135967626Y-76527742D01*
X135964116Y-76551403D01*
X135958304Y-76574607D01*
X135950246Y-76597129D01*
X135940018Y-76618753D01*
X135927721Y-76639270D01*
X135913471Y-76658483D01*
X135897407Y-76676207D01*
X135879683Y-76692271D01*
X135860470Y-76706521D01*
X135839953Y-76718818D01*
X135818329Y-76729046D01*
X135795807Y-76737104D01*
X135772603Y-76742916D01*
X135748942Y-76746426D01*
X135725050Y-76747600D01*
X135237550Y-76747600D01*
X135213658Y-76746426D01*
X135189997Y-76742916D01*
X135166793Y-76737104D01*
X135144271Y-76729046D01*
X135122647Y-76718818D01*
X135102130Y-76706521D01*
X135082917Y-76692271D01*
X135065193Y-76676207D01*
X135049129Y-76658483D01*
X135034879Y-76639270D01*
X135022582Y-76618753D01*
X135012354Y-76597129D01*
X135004296Y-76574607D01*
X134998484Y-76551403D01*
X134994974Y-76527742D01*
X134993800Y-76503850D01*
X134993800Y-75591350D01*
X134994974Y-75567458D01*
X134998484Y-75543797D01*
X135004296Y-75520593D01*
X135012354Y-75498071D01*
X135022582Y-75476447D01*
X135034879Y-75455930D01*
X135049129Y-75436717D01*
X135065193Y-75418993D01*
X135082917Y-75402929D01*
X135102130Y-75388679D01*
X135122647Y-75376382D01*
X135144271Y-75366154D01*
X135166793Y-75358096D01*
X135189997Y-75352284D01*
X135213658Y-75348774D01*
X135237550Y-75347600D01*
X135725050Y-75347600D01*
X135748942Y-75348774D01*
X135748942Y-75348774D01*
G37*
D11*
X135481300Y-76047600D03*
D10*
G36*
X133873942Y-75348774D02*
G01*
X133897603Y-75352284D01*
X133920807Y-75358096D01*
X133943329Y-75366154D01*
X133964953Y-75376382D01*
X133985470Y-75388679D01*
X134004683Y-75402929D01*
X134022407Y-75418993D01*
X134038471Y-75436717D01*
X134052721Y-75455930D01*
X134065018Y-75476447D01*
X134075246Y-75498071D01*
X134083304Y-75520593D01*
X134089116Y-75543797D01*
X134092626Y-75567458D01*
X134093800Y-75591350D01*
X134093800Y-76503850D01*
X134092626Y-76527742D01*
X134089116Y-76551403D01*
X134083304Y-76574607D01*
X134075246Y-76597129D01*
X134065018Y-76618753D01*
X134052721Y-76639270D01*
X134038471Y-76658483D01*
X134022407Y-76676207D01*
X134004683Y-76692271D01*
X133985470Y-76706521D01*
X133964953Y-76718818D01*
X133943329Y-76729046D01*
X133920807Y-76737104D01*
X133897603Y-76742916D01*
X133873942Y-76746426D01*
X133850050Y-76747600D01*
X133362550Y-76747600D01*
X133338658Y-76746426D01*
X133314997Y-76742916D01*
X133291793Y-76737104D01*
X133269271Y-76729046D01*
X133247647Y-76718818D01*
X133227130Y-76706521D01*
X133207917Y-76692271D01*
X133190193Y-76676207D01*
X133174129Y-76658483D01*
X133159879Y-76639270D01*
X133147582Y-76618753D01*
X133137354Y-76597129D01*
X133129296Y-76574607D01*
X133123484Y-76551403D01*
X133119974Y-76527742D01*
X133118800Y-76503850D01*
X133118800Y-75591350D01*
X133119974Y-75567458D01*
X133123484Y-75543797D01*
X133129296Y-75520593D01*
X133137354Y-75498071D01*
X133147582Y-75476447D01*
X133159879Y-75455930D01*
X133174129Y-75436717D01*
X133190193Y-75418993D01*
X133207917Y-75402929D01*
X133227130Y-75388679D01*
X133247647Y-75376382D01*
X133269271Y-75366154D01*
X133291793Y-75358096D01*
X133314997Y-75352284D01*
X133338658Y-75348774D01*
X133362550Y-75347600D01*
X133850050Y-75347600D01*
X133873942Y-75348774D01*
X133873942Y-75348774D01*
G37*
D11*
X133606300Y-76047600D03*
D10*
G36*
X131823542Y-88492174D02*
G01*
X131847203Y-88495684D01*
X131870407Y-88501496D01*
X131892929Y-88509554D01*
X131914553Y-88519782D01*
X131935070Y-88532079D01*
X131954283Y-88546329D01*
X131972007Y-88562393D01*
X131988071Y-88580117D01*
X132002321Y-88599330D01*
X132014618Y-88619847D01*
X132024846Y-88641471D01*
X132032904Y-88663993D01*
X132038716Y-88687197D01*
X132042226Y-88710858D01*
X132043400Y-88734750D01*
X132043400Y-89222250D01*
X132042226Y-89246142D01*
X132038716Y-89269803D01*
X132032904Y-89293007D01*
X132024846Y-89315529D01*
X132014618Y-89337153D01*
X132002321Y-89357670D01*
X131988071Y-89376883D01*
X131972007Y-89394607D01*
X131954283Y-89410671D01*
X131935070Y-89424921D01*
X131914553Y-89437218D01*
X131892929Y-89447446D01*
X131870407Y-89455504D01*
X131847203Y-89461316D01*
X131823542Y-89464826D01*
X131799650Y-89466000D01*
X130887150Y-89466000D01*
X130863258Y-89464826D01*
X130839597Y-89461316D01*
X130816393Y-89455504D01*
X130793871Y-89447446D01*
X130772247Y-89437218D01*
X130751730Y-89424921D01*
X130732517Y-89410671D01*
X130714793Y-89394607D01*
X130698729Y-89376883D01*
X130684479Y-89357670D01*
X130672182Y-89337153D01*
X130661954Y-89315529D01*
X130653896Y-89293007D01*
X130648084Y-89269803D01*
X130644574Y-89246142D01*
X130643400Y-89222250D01*
X130643400Y-88734750D01*
X130644574Y-88710858D01*
X130648084Y-88687197D01*
X130653896Y-88663993D01*
X130661954Y-88641471D01*
X130672182Y-88619847D01*
X130684479Y-88599330D01*
X130698729Y-88580117D01*
X130714793Y-88562393D01*
X130732517Y-88546329D01*
X130751730Y-88532079D01*
X130772247Y-88519782D01*
X130793871Y-88509554D01*
X130816393Y-88501496D01*
X130839597Y-88495684D01*
X130863258Y-88492174D01*
X130887150Y-88491000D01*
X131799650Y-88491000D01*
X131823542Y-88492174D01*
X131823542Y-88492174D01*
G37*
D11*
X131343400Y-88978500D03*
D10*
G36*
X131823542Y-90367174D02*
G01*
X131847203Y-90370684D01*
X131870407Y-90376496D01*
X131892929Y-90384554D01*
X131914553Y-90394782D01*
X131935070Y-90407079D01*
X131954283Y-90421329D01*
X131972007Y-90437393D01*
X131988071Y-90455117D01*
X132002321Y-90474330D01*
X132014618Y-90494847D01*
X132024846Y-90516471D01*
X132032904Y-90538993D01*
X132038716Y-90562197D01*
X132042226Y-90585858D01*
X132043400Y-90609750D01*
X132043400Y-91097250D01*
X132042226Y-91121142D01*
X132038716Y-91144803D01*
X132032904Y-91168007D01*
X132024846Y-91190529D01*
X132014618Y-91212153D01*
X132002321Y-91232670D01*
X131988071Y-91251883D01*
X131972007Y-91269607D01*
X131954283Y-91285671D01*
X131935070Y-91299921D01*
X131914553Y-91312218D01*
X131892929Y-91322446D01*
X131870407Y-91330504D01*
X131847203Y-91336316D01*
X131823542Y-91339826D01*
X131799650Y-91341000D01*
X130887150Y-91341000D01*
X130863258Y-91339826D01*
X130839597Y-91336316D01*
X130816393Y-91330504D01*
X130793871Y-91322446D01*
X130772247Y-91312218D01*
X130751730Y-91299921D01*
X130732517Y-91285671D01*
X130714793Y-91269607D01*
X130698729Y-91251883D01*
X130684479Y-91232670D01*
X130672182Y-91212153D01*
X130661954Y-91190529D01*
X130653896Y-91168007D01*
X130648084Y-91144803D01*
X130644574Y-91121142D01*
X130643400Y-91097250D01*
X130643400Y-90609750D01*
X130644574Y-90585858D01*
X130648084Y-90562197D01*
X130653896Y-90538993D01*
X130661954Y-90516471D01*
X130672182Y-90494847D01*
X130684479Y-90474330D01*
X130698729Y-90455117D01*
X130714793Y-90437393D01*
X130732517Y-90421329D01*
X130751730Y-90407079D01*
X130772247Y-90394782D01*
X130793871Y-90384554D01*
X130816393Y-90376496D01*
X130839597Y-90370684D01*
X130863258Y-90367174D01*
X130887150Y-90366000D01*
X131799650Y-90366000D01*
X131823542Y-90367174D01*
X131823542Y-90367174D01*
G37*
D11*
X131343400Y-90853500D03*
D10*
G36*
X131848942Y-85642774D02*
G01*
X131872603Y-85646284D01*
X131895807Y-85652096D01*
X131918329Y-85660154D01*
X131939953Y-85670382D01*
X131960470Y-85682679D01*
X131979683Y-85696929D01*
X131997407Y-85712993D01*
X132013471Y-85730717D01*
X132027721Y-85749930D01*
X132040018Y-85770447D01*
X132050246Y-85792071D01*
X132058304Y-85814593D01*
X132064116Y-85837797D01*
X132067626Y-85861458D01*
X132068800Y-85885350D01*
X132068800Y-86372850D01*
X132067626Y-86396742D01*
X132064116Y-86420403D01*
X132058304Y-86443607D01*
X132050246Y-86466129D01*
X132040018Y-86487753D01*
X132027721Y-86508270D01*
X132013471Y-86527483D01*
X131997407Y-86545207D01*
X131979683Y-86561271D01*
X131960470Y-86575521D01*
X131939953Y-86587818D01*
X131918329Y-86598046D01*
X131895807Y-86606104D01*
X131872603Y-86611916D01*
X131848942Y-86615426D01*
X131825050Y-86616600D01*
X130912550Y-86616600D01*
X130888658Y-86615426D01*
X130864997Y-86611916D01*
X130841793Y-86606104D01*
X130819271Y-86598046D01*
X130797647Y-86587818D01*
X130777130Y-86575521D01*
X130757917Y-86561271D01*
X130740193Y-86545207D01*
X130724129Y-86527483D01*
X130709879Y-86508270D01*
X130697582Y-86487753D01*
X130687354Y-86466129D01*
X130679296Y-86443607D01*
X130673484Y-86420403D01*
X130669974Y-86396742D01*
X130668800Y-86372850D01*
X130668800Y-85885350D01*
X130669974Y-85861458D01*
X130673484Y-85837797D01*
X130679296Y-85814593D01*
X130687354Y-85792071D01*
X130697582Y-85770447D01*
X130709879Y-85749930D01*
X130724129Y-85730717D01*
X130740193Y-85712993D01*
X130757917Y-85696929D01*
X130777130Y-85682679D01*
X130797647Y-85670382D01*
X130819271Y-85660154D01*
X130841793Y-85652096D01*
X130864997Y-85646284D01*
X130888658Y-85642774D01*
X130912550Y-85641600D01*
X131825050Y-85641600D01*
X131848942Y-85642774D01*
X131848942Y-85642774D01*
G37*
D11*
X131368800Y-86129100D03*
D10*
G36*
X131848942Y-83767774D02*
G01*
X131872603Y-83771284D01*
X131895807Y-83777096D01*
X131918329Y-83785154D01*
X131939953Y-83795382D01*
X131960470Y-83807679D01*
X131979683Y-83821929D01*
X131997407Y-83837993D01*
X132013471Y-83855717D01*
X132027721Y-83874930D01*
X132040018Y-83895447D01*
X132050246Y-83917071D01*
X132058304Y-83939593D01*
X132064116Y-83962797D01*
X132067626Y-83986458D01*
X132068800Y-84010350D01*
X132068800Y-84497850D01*
X132067626Y-84521742D01*
X132064116Y-84545403D01*
X132058304Y-84568607D01*
X132050246Y-84591129D01*
X132040018Y-84612753D01*
X132027721Y-84633270D01*
X132013471Y-84652483D01*
X131997407Y-84670207D01*
X131979683Y-84686271D01*
X131960470Y-84700521D01*
X131939953Y-84712818D01*
X131918329Y-84723046D01*
X131895807Y-84731104D01*
X131872603Y-84736916D01*
X131848942Y-84740426D01*
X131825050Y-84741600D01*
X130912550Y-84741600D01*
X130888658Y-84740426D01*
X130864997Y-84736916D01*
X130841793Y-84731104D01*
X130819271Y-84723046D01*
X130797647Y-84712818D01*
X130777130Y-84700521D01*
X130757917Y-84686271D01*
X130740193Y-84670207D01*
X130724129Y-84652483D01*
X130709879Y-84633270D01*
X130697582Y-84612753D01*
X130687354Y-84591129D01*
X130679296Y-84568607D01*
X130673484Y-84545403D01*
X130669974Y-84521742D01*
X130668800Y-84497850D01*
X130668800Y-84010350D01*
X130669974Y-83986458D01*
X130673484Y-83962797D01*
X130679296Y-83939593D01*
X130687354Y-83917071D01*
X130697582Y-83895447D01*
X130709879Y-83874930D01*
X130724129Y-83855717D01*
X130740193Y-83837993D01*
X130757917Y-83821929D01*
X130777130Y-83807679D01*
X130797647Y-83795382D01*
X130819271Y-83785154D01*
X130841793Y-83777096D01*
X130864997Y-83771284D01*
X130888658Y-83767774D01*
X130912550Y-83766600D01*
X131825050Y-83766600D01*
X131848942Y-83767774D01*
X131848942Y-83767774D01*
G37*
D11*
X131368800Y-84254100D03*
D10*
G36*
X134021742Y-78879374D02*
G01*
X134045403Y-78882884D01*
X134068607Y-78888696D01*
X134091129Y-78896754D01*
X134112753Y-78906982D01*
X134133270Y-78919279D01*
X134152483Y-78933529D01*
X134170207Y-78949593D01*
X134186271Y-78967317D01*
X134200521Y-78986530D01*
X134212818Y-79007047D01*
X134223046Y-79028671D01*
X134231104Y-79051193D01*
X134236916Y-79074397D01*
X134240426Y-79098058D01*
X134241600Y-79121950D01*
X134241600Y-80034450D01*
X134240426Y-80058342D01*
X134236916Y-80082003D01*
X134231104Y-80105207D01*
X134223046Y-80127729D01*
X134212818Y-80149353D01*
X134200521Y-80169870D01*
X134186271Y-80189083D01*
X134170207Y-80206807D01*
X134152483Y-80222871D01*
X134133270Y-80237121D01*
X134112753Y-80249418D01*
X134091129Y-80259646D01*
X134068607Y-80267704D01*
X134045403Y-80273516D01*
X134021742Y-80277026D01*
X133997850Y-80278200D01*
X133510350Y-80278200D01*
X133486458Y-80277026D01*
X133462797Y-80273516D01*
X133439593Y-80267704D01*
X133417071Y-80259646D01*
X133395447Y-80249418D01*
X133374930Y-80237121D01*
X133355717Y-80222871D01*
X133337993Y-80206807D01*
X133321929Y-80189083D01*
X133307679Y-80169870D01*
X133295382Y-80149353D01*
X133285154Y-80127729D01*
X133277096Y-80105207D01*
X133271284Y-80082003D01*
X133267774Y-80058342D01*
X133266600Y-80034450D01*
X133266600Y-79121950D01*
X133267774Y-79098058D01*
X133271284Y-79074397D01*
X133277096Y-79051193D01*
X133285154Y-79028671D01*
X133295382Y-79007047D01*
X133307679Y-78986530D01*
X133321929Y-78967317D01*
X133337993Y-78949593D01*
X133355717Y-78933529D01*
X133374930Y-78919279D01*
X133395447Y-78906982D01*
X133417071Y-78896754D01*
X133439593Y-78888696D01*
X133462797Y-78882884D01*
X133486458Y-78879374D01*
X133510350Y-78878200D01*
X133997850Y-78878200D01*
X134021742Y-78879374D01*
X134021742Y-78879374D01*
G37*
D11*
X133754100Y-79578200D03*
D10*
G36*
X132146742Y-78879374D02*
G01*
X132170403Y-78882884D01*
X132193607Y-78888696D01*
X132216129Y-78896754D01*
X132237753Y-78906982D01*
X132258270Y-78919279D01*
X132277483Y-78933529D01*
X132295207Y-78949593D01*
X132311271Y-78967317D01*
X132325521Y-78986530D01*
X132337818Y-79007047D01*
X132348046Y-79028671D01*
X132356104Y-79051193D01*
X132361916Y-79074397D01*
X132365426Y-79098058D01*
X132366600Y-79121950D01*
X132366600Y-80034450D01*
X132365426Y-80058342D01*
X132361916Y-80082003D01*
X132356104Y-80105207D01*
X132348046Y-80127729D01*
X132337818Y-80149353D01*
X132325521Y-80169870D01*
X132311271Y-80189083D01*
X132295207Y-80206807D01*
X132277483Y-80222871D01*
X132258270Y-80237121D01*
X132237753Y-80249418D01*
X132216129Y-80259646D01*
X132193607Y-80267704D01*
X132170403Y-80273516D01*
X132146742Y-80277026D01*
X132122850Y-80278200D01*
X131635350Y-80278200D01*
X131611458Y-80277026D01*
X131587797Y-80273516D01*
X131564593Y-80267704D01*
X131542071Y-80259646D01*
X131520447Y-80249418D01*
X131499930Y-80237121D01*
X131480717Y-80222871D01*
X131462993Y-80206807D01*
X131446929Y-80189083D01*
X131432679Y-80169870D01*
X131420382Y-80149353D01*
X131410154Y-80127729D01*
X131402096Y-80105207D01*
X131396284Y-80082003D01*
X131392774Y-80058342D01*
X131391600Y-80034450D01*
X131391600Y-79121950D01*
X131392774Y-79098058D01*
X131396284Y-79074397D01*
X131402096Y-79051193D01*
X131410154Y-79028671D01*
X131420382Y-79007047D01*
X131432679Y-78986530D01*
X131446929Y-78967317D01*
X131462993Y-78949593D01*
X131480717Y-78933529D01*
X131499930Y-78919279D01*
X131520447Y-78906982D01*
X131542071Y-78896754D01*
X131564593Y-78888696D01*
X131587797Y-78882884D01*
X131611458Y-78879374D01*
X131635350Y-78878200D01*
X132122850Y-78878200D01*
X132146742Y-78879374D01*
X132146742Y-78879374D01*
G37*
D11*
X131879100Y-79578200D03*
D12*
X127050800Y-93954600D03*
X127050800Y-91414600D03*
X127050800Y-88874600D03*
X127050800Y-86334600D03*
X127050800Y-83794600D03*
X127050800Y-81254600D03*
X127050800Y-78714600D03*
X127050800Y-76174600D03*
X127050800Y-73634600D03*
X127050800Y-71094600D03*
X127050800Y-68554600D03*
D13*
X127050800Y-66014600D03*
X142163800Y-66141600D03*
D12*
X142163800Y-68681600D03*
X142163800Y-71221600D03*
X142163800Y-73761600D03*
X142163800Y-76301600D03*
X142163800Y-78841600D03*
X142163800Y-81381600D03*
X142163800Y-83921600D03*
X142163800Y-86461600D03*
X142163800Y-89001600D03*
X142163800Y-91541600D03*
X142163800Y-94081600D03*
D13*
X137083800Y-94183200D03*
D12*
X134543800Y-94183200D03*
X132003800Y-94183200D03*
D10*
G36*
X138910142Y-85744374D02*
G01*
X138933803Y-85747884D01*
X138957007Y-85753696D01*
X138979529Y-85761754D01*
X139001153Y-85771982D01*
X139021670Y-85784279D01*
X139040883Y-85798529D01*
X139058607Y-85814593D01*
X139074671Y-85832317D01*
X139088921Y-85851530D01*
X139101218Y-85872047D01*
X139111446Y-85893671D01*
X139119504Y-85916193D01*
X139125316Y-85939397D01*
X139128826Y-85963058D01*
X139130000Y-85986950D01*
X139130000Y-86474450D01*
X139128826Y-86498342D01*
X139125316Y-86522003D01*
X139119504Y-86545207D01*
X139111446Y-86567729D01*
X139101218Y-86589353D01*
X139088921Y-86609870D01*
X139074671Y-86629083D01*
X139058607Y-86646807D01*
X139040883Y-86662871D01*
X139021670Y-86677121D01*
X139001153Y-86689418D01*
X138979529Y-86699646D01*
X138957007Y-86707704D01*
X138933803Y-86713516D01*
X138910142Y-86717026D01*
X138886250Y-86718200D01*
X137973750Y-86718200D01*
X137949858Y-86717026D01*
X137926197Y-86713516D01*
X137902993Y-86707704D01*
X137880471Y-86699646D01*
X137858847Y-86689418D01*
X137838330Y-86677121D01*
X137819117Y-86662871D01*
X137801393Y-86646807D01*
X137785329Y-86629083D01*
X137771079Y-86609870D01*
X137758782Y-86589353D01*
X137748554Y-86567729D01*
X137740496Y-86545207D01*
X137734684Y-86522003D01*
X137731174Y-86498342D01*
X137730000Y-86474450D01*
X137730000Y-85986950D01*
X137731174Y-85963058D01*
X137734684Y-85939397D01*
X137740496Y-85916193D01*
X137748554Y-85893671D01*
X137758782Y-85872047D01*
X137771079Y-85851530D01*
X137785329Y-85832317D01*
X137801393Y-85814593D01*
X137819117Y-85798529D01*
X137838330Y-85784279D01*
X137858847Y-85771982D01*
X137880471Y-85761754D01*
X137902993Y-85753696D01*
X137926197Y-85747884D01*
X137949858Y-85744374D01*
X137973750Y-85743200D01*
X138886250Y-85743200D01*
X138910142Y-85744374D01*
X138910142Y-85744374D01*
G37*
D11*
X138430000Y-86230700D03*
D10*
G36*
X138910142Y-83869374D02*
G01*
X138933803Y-83872884D01*
X138957007Y-83878696D01*
X138979529Y-83886754D01*
X139001153Y-83896982D01*
X139021670Y-83909279D01*
X139040883Y-83923529D01*
X139058607Y-83939593D01*
X139074671Y-83957317D01*
X139088921Y-83976530D01*
X139101218Y-83997047D01*
X139111446Y-84018671D01*
X139119504Y-84041193D01*
X139125316Y-84064397D01*
X139128826Y-84088058D01*
X139130000Y-84111950D01*
X139130000Y-84599450D01*
X139128826Y-84623342D01*
X139125316Y-84647003D01*
X139119504Y-84670207D01*
X139111446Y-84692729D01*
X139101218Y-84714353D01*
X139088921Y-84734870D01*
X139074671Y-84754083D01*
X139058607Y-84771807D01*
X139040883Y-84787871D01*
X139021670Y-84802121D01*
X139001153Y-84814418D01*
X138979529Y-84824646D01*
X138957007Y-84832704D01*
X138933803Y-84838516D01*
X138910142Y-84842026D01*
X138886250Y-84843200D01*
X137973750Y-84843200D01*
X137949858Y-84842026D01*
X137926197Y-84838516D01*
X137902993Y-84832704D01*
X137880471Y-84824646D01*
X137858847Y-84814418D01*
X137838330Y-84802121D01*
X137819117Y-84787871D01*
X137801393Y-84771807D01*
X137785329Y-84754083D01*
X137771079Y-84734870D01*
X137758782Y-84714353D01*
X137748554Y-84692729D01*
X137740496Y-84670207D01*
X137734684Y-84647003D01*
X137731174Y-84623342D01*
X137730000Y-84599450D01*
X137730000Y-84111950D01*
X137731174Y-84088058D01*
X137734684Y-84064397D01*
X137740496Y-84041193D01*
X137748554Y-84018671D01*
X137758782Y-83997047D01*
X137771079Y-83976530D01*
X137785329Y-83957317D01*
X137801393Y-83939593D01*
X137819117Y-83923529D01*
X137838330Y-83909279D01*
X137858847Y-83896982D01*
X137880471Y-83886754D01*
X137902993Y-83878696D01*
X137926197Y-83872884D01*
X137949858Y-83869374D01*
X137973750Y-83868200D01*
X138886250Y-83868200D01*
X138910142Y-83869374D01*
X138910142Y-83869374D01*
G37*
D11*
X138430000Y-84355700D03*
D10*
G36*
X138732342Y-90290974D02*
G01*
X138756003Y-90294484D01*
X138779207Y-90300296D01*
X138801729Y-90308354D01*
X138823353Y-90318582D01*
X138843870Y-90330879D01*
X138863083Y-90345129D01*
X138880807Y-90361193D01*
X138896871Y-90378917D01*
X138911121Y-90398130D01*
X138923418Y-90418647D01*
X138933646Y-90440271D01*
X138941704Y-90462793D01*
X138947516Y-90485997D01*
X138951026Y-90509658D01*
X138952200Y-90533550D01*
X138952200Y-91021050D01*
X138951026Y-91044942D01*
X138947516Y-91068603D01*
X138941704Y-91091807D01*
X138933646Y-91114329D01*
X138923418Y-91135953D01*
X138911121Y-91156470D01*
X138896871Y-91175683D01*
X138880807Y-91193407D01*
X138863083Y-91209471D01*
X138843870Y-91223721D01*
X138823353Y-91236018D01*
X138801729Y-91246246D01*
X138779207Y-91254304D01*
X138756003Y-91260116D01*
X138732342Y-91263626D01*
X138708450Y-91264800D01*
X137795950Y-91264800D01*
X137772058Y-91263626D01*
X137748397Y-91260116D01*
X137725193Y-91254304D01*
X137702671Y-91246246D01*
X137681047Y-91236018D01*
X137660530Y-91223721D01*
X137641317Y-91209471D01*
X137623593Y-91193407D01*
X137607529Y-91175683D01*
X137593279Y-91156470D01*
X137580982Y-91135953D01*
X137570754Y-91114329D01*
X137562696Y-91091807D01*
X137556884Y-91068603D01*
X137553374Y-91044942D01*
X137552200Y-91021050D01*
X137552200Y-90533550D01*
X137553374Y-90509658D01*
X137556884Y-90485997D01*
X137562696Y-90462793D01*
X137570754Y-90440271D01*
X137580982Y-90418647D01*
X137593279Y-90398130D01*
X137607529Y-90378917D01*
X137623593Y-90361193D01*
X137641317Y-90345129D01*
X137660530Y-90330879D01*
X137681047Y-90318582D01*
X137702671Y-90308354D01*
X137725193Y-90300296D01*
X137748397Y-90294484D01*
X137772058Y-90290974D01*
X137795950Y-90289800D01*
X138708450Y-90289800D01*
X138732342Y-90290974D01*
X138732342Y-90290974D01*
G37*
D11*
X138252200Y-90777300D03*
D10*
G36*
X138732342Y-88415974D02*
G01*
X138756003Y-88419484D01*
X138779207Y-88425296D01*
X138801729Y-88433354D01*
X138823353Y-88443582D01*
X138843870Y-88455879D01*
X138863083Y-88470129D01*
X138880807Y-88486193D01*
X138896871Y-88503917D01*
X138911121Y-88523130D01*
X138923418Y-88543647D01*
X138933646Y-88565271D01*
X138941704Y-88587793D01*
X138947516Y-88610997D01*
X138951026Y-88634658D01*
X138952200Y-88658550D01*
X138952200Y-89146050D01*
X138951026Y-89169942D01*
X138947516Y-89193603D01*
X138941704Y-89216807D01*
X138933646Y-89239329D01*
X138923418Y-89260953D01*
X138911121Y-89281470D01*
X138896871Y-89300683D01*
X138880807Y-89318407D01*
X138863083Y-89334471D01*
X138843870Y-89348721D01*
X138823353Y-89361018D01*
X138801729Y-89371246D01*
X138779207Y-89379304D01*
X138756003Y-89385116D01*
X138732342Y-89388626D01*
X138708450Y-89389800D01*
X137795950Y-89389800D01*
X137772058Y-89388626D01*
X137748397Y-89385116D01*
X137725193Y-89379304D01*
X137702671Y-89371246D01*
X137681047Y-89361018D01*
X137660530Y-89348721D01*
X137641317Y-89334471D01*
X137623593Y-89318407D01*
X137607529Y-89300683D01*
X137593279Y-89281470D01*
X137580982Y-89260953D01*
X137570754Y-89239329D01*
X137562696Y-89216807D01*
X137556884Y-89193603D01*
X137553374Y-89169942D01*
X137552200Y-89146050D01*
X137552200Y-88658550D01*
X137553374Y-88634658D01*
X137556884Y-88610997D01*
X137562696Y-88587793D01*
X137570754Y-88565271D01*
X137580982Y-88543647D01*
X137593279Y-88523130D01*
X137607529Y-88503917D01*
X137623593Y-88486193D01*
X137641317Y-88470129D01*
X137660530Y-88455879D01*
X137681047Y-88443582D01*
X137702671Y-88433354D01*
X137725193Y-88425296D01*
X137748397Y-88419484D01*
X137772058Y-88415974D01*
X137795950Y-88414800D01*
X138708450Y-88414800D01*
X138732342Y-88415974D01*
X138732342Y-88415974D01*
G37*
D11*
X138252200Y-88902300D03*
D10*
G36*
X136007542Y-78879374D02*
G01*
X136031203Y-78882884D01*
X136054407Y-78888696D01*
X136076929Y-78896754D01*
X136098553Y-78906982D01*
X136119070Y-78919279D01*
X136138283Y-78933529D01*
X136156007Y-78949593D01*
X136172071Y-78967317D01*
X136186321Y-78986530D01*
X136198618Y-79007047D01*
X136208846Y-79028671D01*
X136216904Y-79051193D01*
X136222716Y-79074397D01*
X136226226Y-79098058D01*
X136227400Y-79121950D01*
X136227400Y-80034450D01*
X136226226Y-80058342D01*
X136222716Y-80082003D01*
X136216904Y-80105207D01*
X136208846Y-80127729D01*
X136198618Y-80149353D01*
X136186321Y-80169870D01*
X136172071Y-80189083D01*
X136156007Y-80206807D01*
X136138283Y-80222871D01*
X136119070Y-80237121D01*
X136098553Y-80249418D01*
X136076929Y-80259646D01*
X136054407Y-80267704D01*
X136031203Y-80273516D01*
X136007542Y-80277026D01*
X135983650Y-80278200D01*
X135496150Y-80278200D01*
X135472258Y-80277026D01*
X135448597Y-80273516D01*
X135425393Y-80267704D01*
X135402871Y-80259646D01*
X135381247Y-80249418D01*
X135360730Y-80237121D01*
X135341517Y-80222871D01*
X135323793Y-80206807D01*
X135307729Y-80189083D01*
X135293479Y-80169870D01*
X135281182Y-80149353D01*
X135270954Y-80127729D01*
X135262896Y-80105207D01*
X135257084Y-80082003D01*
X135253574Y-80058342D01*
X135252400Y-80034450D01*
X135252400Y-79121950D01*
X135253574Y-79098058D01*
X135257084Y-79074397D01*
X135262896Y-79051193D01*
X135270954Y-79028671D01*
X135281182Y-79007047D01*
X135293479Y-78986530D01*
X135307729Y-78967317D01*
X135323793Y-78949593D01*
X135341517Y-78933529D01*
X135360730Y-78919279D01*
X135381247Y-78906982D01*
X135402871Y-78896754D01*
X135425393Y-78888696D01*
X135448597Y-78882884D01*
X135472258Y-78879374D01*
X135496150Y-78878200D01*
X135983650Y-78878200D01*
X136007542Y-78879374D01*
X136007542Y-78879374D01*
G37*
D11*
X135739900Y-79578200D03*
D10*
G36*
X137882542Y-78879374D02*
G01*
X137906203Y-78882884D01*
X137929407Y-78888696D01*
X137951929Y-78896754D01*
X137973553Y-78906982D01*
X137994070Y-78919279D01*
X138013283Y-78933529D01*
X138031007Y-78949593D01*
X138047071Y-78967317D01*
X138061321Y-78986530D01*
X138073618Y-79007047D01*
X138083846Y-79028671D01*
X138091904Y-79051193D01*
X138097716Y-79074397D01*
X138101226Y-79098058D01*
X138102400Y-79121950D01*
X138102400Y-80034450D01*
X138101226Y-80058342D01*
X138097716Y-80082003D01*
X138091904Y-80105207D01*
X138083846Y-80127729D01*
X138073618Y-80149353D01*
X138061321Y-80169870D01*
X138047071Y-80189083D01*
X138031007Y-80206807D01*
X138013283Y-80222871D01*
X137994070Y-80237121D01*
X137973553Y-80249418D01*
X137951929Y-80259646D01*
X137929407Y-80267704D01*
X137906203Y-80273516D01*
X137882542Y-80277026D01*
X137858650Y-80278200D01*
X137371150Y-80278200D01*
X137347258Y-80277026D01*
X137323597Y-80273516D01*
X137300393Y-80267704D01*
X137277871Y-80259646D01*
X137256247Y-80249418D01*
X137235730Y-80237121D01*
X137216517Y-80222871D01*
X137198793Y-80206807D01*
X137182729Y-80189083D01*
X137168479Y-80169870D01*
X137156182Y-80149353D01*
X137145954Y-80127729D01*
X137137896Y-80105207D01*
X137132084Y-80082003D01*
X137128574Y-80058342D01*
X137127400Y-80034450D01*
X137127400Y-79121950D01*
X137128574Y-79098058D01*
X137132084Y-79074397D01*
X137137896Y-79051193D01*
X137145954Y-79028671D01*
X137156182Y-79007047D01*
X137168479Y-78986530D01*
X137182729Y-78967317D01*
X137198793Y-78949593D01*
X137216517Y-78933529D01*
X137235730Y-78919279D01*
X137256247Y-78906982D01*
X137277871Y-78896754D01*
X137300393Y-78888696D01*
X137323597Y-78882884D01*
X137347258Y-78879374D01*
X137371150Y-78878200D01*
X137858650Y-78878200D01*
X137882542Y-78879374D01*
X137882542Y-78879374D01*
G37*
D11*
X137614900Y-79578200D03*
D14*
X134797800Y-90336200D03*
X134797800Y-82536200D03*
D10*
G36*
X135618304Y-68906804D02*
G01*
X135642573Y-68910404D01*
X135666371Y-68916365D01*
X135689471Y-68924630D01*
X135711649Y-68935120D01*
X135732693Y-68947733D01*
X135752398Y-68962347D01*
X135770577Y-68978823D01*
X135787053Y-68997002D01*
X135801667Y-69016707D01*
X135814280Y-69037751D01*
X135824770Y-69059929D01*
X135833035Y-69083029D01*
X135838996Y-69106827D01*
X135842596Y-69131096D01*
X135843800Y-69155600D01*
X135843800Y-71255600D01*
X135842596Y-71280104D01*
X135838996Y-71304373D01*
X135833035Y-71328171D01*
X135824770Y-71351271D01*
X135814280Y-71373449D01*
X135801667Y-71394493D01*
X135787053Y-71414198D01*
X135770577Y-71432377D01*
X135752398Y-71448853D01*
X135732693Y-71463467D01*
X135711649Y-71476080D01*
X135689471Y-71486570D01*
X135666371Y-71494835D01*
X135642573Y-71500796D01*
X135618304Y-71504396D01*
X135593800Y-71505600D01*
X133493800Y-71505600D01*
X133469296Y-71504396D01*
X133445027Y-71500796D01*
X133421229Y-71494835D01*
X133398129Y-71486570D01*
X133375951Y-71476080D01*
X133354907Y-71463467D01*
X133335202Y-71448853D01*
X133317023Y-71432377D01*
X133300547Y-71414198D01*
X133285933Y-71394493D01*
X133273320Y-71373449D01*
X133262830Y-71351271D01*
X133254565Y-71328171D01*
X133248604Y-71304373D01*
X133245004Y-71280104D01*
X133243800Y-71255600D01*
X133243800Y-69155600D01*
X133245004Y-69131096D01*
X133248604Y-69106827D01*
X133254565Y-69083029D01*
X133262830Y-69059929D01*
X133273320Y-69037751D01*
X133285933Y-69016707D01*
X133300547Y-68997002D01*
X133317023Y-68978823D01*
X133335202Y-68962347D01*
X133354907Y-68947733D01*
X133375951Y-68935120D01*
X133398129Y-68924630D01*
X133421229Y-68916365D01*
X133445027Y-68910404D01*
X133469296Y-68906804D01*
X133493800Y-68905600D01*
X135593800Y-68905600D01*
X135618304Y-68906804D01*
X135618304Y-68906804D01*
G37*
D15*
X134543800Y-70205600D03*
D10*
G36*
X133362426Y-71730901D02*
G01*
X133368493Y-71731801D01*
X133374443Y-71733291D01*
X133380218Y-71735358D01*
X133385762Y-71737980D01*
X133391023Y-71741133D01*
X133395950Y-71744787D01*
X133400494Y-71748906D01*
X133404613Y-71753450D01*
X133408267Y-71758377D01*
X133411420Y-71763638D01*
X133414042Y-71769182D01*
X133416109Y-71774957D01*
X133417599Y-71780907D01*
X133418499Y-71786974D01*
X133418800Y-71793100D01*
X133418800Y-72493100D01*
X133418499Y-72499226D01*
X133417599Y-72505293D01*
X133416109Y-72511243D01*
X133414042Y-72517018D01*
X133411420Y-72522562D01*
X133408267Y-72527823D01*
X133404613Y-72532750D01*
X133400494Y-72537294D01*
X133395950Y-72541413D01*
X133391023Y-72545067D01*
X133385762Y-72548220D01*
X133380218Y-72550842D01*
X133374443Y-72552909D01*
X133368493Y-72554399D01*
X133362426Y-72555299D01*
X133356300Y-72555600D01*
X133231300Y-72555600D01*
X133225174Y-72555299D01*
X133219107Y-72554399D01*
X133213157Y-72552909D01*
X133207382Y-72550842D01*
X133201838Y-72548220D01*
X133196577Y-72545067D01*
X133191650Y-72541413D01*
X133187106Y-72537294D01*
X133182987Y-72532750D01*
X133179333Y-72527823D01*
X133176180Y-72522562D01*
X133173558Y-72517018D01*
X133171491Y-72511243D01*
X133170001Y-72505293D01*
X133169101Y-72499226D01*
X133168800Y-72493100D01*
X133168800Y-71793100D01*
X133169101Y-71786974D01*
X133170001Y-71780907D01*
X133171491Y-71774957D01*
X133173558Y-71769182D01*
X133176180Y-71763638D01*
X133179333Y-71758377D01*
X133182987Y-71753450D01*
X133187106Y-71748906D01*
X133191650Y-71744787D01*
X133196577Y-71741133D01*
X133201838Y-71737980D01*
X133207382Y-71735358D01*
X133213157Y-71733291D01*
X133219107Y-71731801D01*
X133225174Y-71730901D01*
X133231300Y-71730600D01*
X133356300Y-71730600D01*
X133362426Y-71730901D01*
X133362426Y-71730901D01*
G37*
D16*
X133293800Y-72143100D03*
D10*
G36*
X133862426Y-71730901D02*
G01*
X133868493Y-71731801D01*
X133874443Y-71733291D01*
X133880218Y-71735358D01*
X133885762Y-71737980D01*
X133891023Y-71741133D01*
X133895950Y-71744787D01*
X133900494Y-71748906D01*
X133904613Y-71753450D01*
X133908267Y-71758377D01*
X133911420Y-71763638D01*
X133914042Y-71769182D01*
X133916109Y-71774957D01*
X133917599Y-71780907D01*
X133918499Y-71786974D01*
X133918800Y-71793100D01*
X133918800Y-72493100D01*
X133918499Y-72499226D01*
X133917599Y-72505293D01*
X133916109Y-72511243D01*
X133914042Y-72517018D01*
X133911420Y-72522562D01*
X133908267Y-72527823D01*
X133904613Y-72532750D01*
X133900494Y-72537294D01*
X133895950Y-72541413D01*
X133891023Y-72545067D01*
X133885762Y-72548220D01*
X133880218Y-72550842D01*
X133874443Y-72552909D01*
X133868493Y-72554399D01*
X133862426Y-72555299D01*
X133856300Y-72555600D01*
X133731300Y-72555600D01*
X133725174Y-72555299D01*
X133719107Y-72554399D01*
X133713157Y-72552909D01*
X133707382Y-72550842D01*
X133701838Y-72548220D01*
X133696577Y-72545067D01*
X133691650Y-72541413D01*
X133687106Y-72537294D01*
X133682987Y-72532750D01*
X133679333Y-72527823D01*
X133676180Y-72522562D01*
X133673558Y-72517018D01*
X133671491Y-72511243D01*
X133670001Y-72505293D01*
X133669101Y-72499226D01*
X133668800Y-72493100D01*
X133668800Y-71793100D01*
X133669101Y-71786974D01*
X133670001Y-71780907D01*
X133671491Y-71774957D01*
X133673558Y-71769182D01*
X133676180Y-71763638D01*
X133679333Y-71758377D01*
X133682987Y-71753450D01*
X133687106Y-71748906D01*
X133691650Y-71744787D01*
X133696577Y-71741133D01*
X133701838Y-71737980D01*
X133707382Y-71735358D01*
X133713157Y-71733291D01*
X133719107Y-71731801D01*
X133725174Y-71730901D01*
X133731300Y-71730600D01*
X133856300Y-71730600D01*
X133862426Y-71730901D01*
X133862426Y-71730901D01*
G37*
D16*
X133793800Y-72143100D03*
D10*
G36*
X134362426Y-71730901D02*
G01*
X134368493Y-71731801D01*
X134374443Y-71733291D01*
X134380218Y-71735358D01*
X134385762Y-71737980D01*
X134391023Y-71741133D01*
X134395950Y-71744787D01*
X134400494Y-71748906D01*
X134404613Y-71753450D01*
X134408267Y-71758377D01*
X134411420Y-71763638D01*
X134414042Y-71769182D01*
X134416109Y-71774957D01*
X134417599Y-71780907D01*
X134418499Y-71786974D01*
X134418800Y-71793100D01*
X134418800Y-72493100D01*
X134418499Y-72499226D01*
X134417599Y-72505293D01*
X134416109Y-72511243D01*
X134414042Y-72517018D01*
X134411420Y-72522562D01*
X134408267Y-72527823D01*
X134404613Y-72532750D01*
X134400494Y-72537294D01*
X134395950Y-72541413D01*
X134391023Y-72545067D01*
X134385762Y-72548220D01*
X134380218Y-72550842D01*
X134374443Y-72552909D01*
X134368493Y-72554399D01*
X134362426Y-72555299D01*
X134356300Y-72555600D01*
X134231300Y-72555600D01*
X134225174Y-72555299D01*
X134219107Y-72554399D01*
X134213157Y-72552909D01*
X134207382Y-72550842D01*
X134201838Y-72548220D01*
X134196577Y-72545067D01*
X134191650Y-72541413D01*
X134187106Y-72537294D01*
X134182987Y-72532750D01*
X134179333Y-72527823D01*
X134176180Y-72522562D01*
X134173558Y-72517018D01*
X134171491Y-72511243D01*
X134170001Y-72505293D01*
X134169101Y-72499226D01*
X134168800Y-72493100D01*
X134168800Y-71793100D01*
X134169101Y-71786974D01*
X134170001Y-71780907D01*
X134171491Y-71774957D01*
X134173558Y-71769182D01*
X134176180Y-71763638D01*
X134179333Y-71758377D01*
X134182987Y-71753450D01*
X134187106Y-71748906D01*
X134191650Y-71744787D01*
X134196577Y-71741133D01*
X134201838Y-71737980D01*
X134207382Y-71735358D01*
X134213157Y-71733291D01*
X134219107Y-71731801D01*
X134225174Y-71730901D01*
X134231300Y-71730600D01*
X134356300Y-71730600D01*
X134362426Y-71730901D01*
X134362426Y-71730901D01*
G37*
D16*
X134293800Y-72143100D03*
D10*
G36*
X134862426Y-71730901D02*
G01*
X134868493Y-71731801D01*
X134874443Y-71733291D01*
X134880218Y-71735358D01*
X134885762Y-71737980D01*
X134891023Y-71741133D01*
X134895950Y-71744787D01*
X134900494Y-71748906D01*
X134904613Y-71753450D01*
X134908267Y-71758377D01*
X134911420Y-71763638D01*
X134914042Y-71769182D01*
X134916109Y-71774957D01*
X134917599Y-71780907D01*
X134918499Y-71786974D01*
X134918800Y-71793100D01*
X134918800Y-72493100D01*
X134918499Y-72499226D01*
X134917599Y-72505293D01*
X134916109Y-72511243D01*
X134914042Y-72517018D01*
X134911420Y-72522562D01*
X134908267Y-72527823D01*
X134904613Y-72532750D01*
X134900494Y-72537294D01*
X134895950Y-72541413D01*
X134891023Y-72545067D01*
X134885762Y-72548220D01*
X134880218Y-72550842D01*
X134874443Y-72552909D01*
X134868493Y-72554399D01*
X134862426Y-72555299D01*
X134856300Y-72555600D01*
X134731300Y-72555600D01*
X134725174Y-72555299D01*
X134719107Y-72554399D01*
X134713157Y-72552909D01*
X134707382Y-72550842D01*
X134701838Y-72548220D01*
X134696577Y-72545067D01*
X134691650Y-72541413D01*
X134687106Y-72537294D01*
X134682987Y-72532750D01*
X134679333Y-72527823D01*
X134676180Y-72522562D01*
X134673558Y-72517018D01*
X134671491Y-72511243D01*
X134670001Y-72505293D01*
X134669101Y-72499226D01*
X134668800Y-72493100D01*
X134668800Y-71793100D01*
X134669101Y-71786974D01*
X134670001Y-71780907D01*
X134671491Y-71774957D01*
X134673558Y-71769182D01*
X134676180Y-71763638D01*
X134679333Y-71758377D01*
X134682987Y-71753450D01*
X134687106Y-71748906D01*
X134691650Y-71744787D01*
X134696577Y-71741133D01*
X134701838Y-71737980D01*
X134707382Y-71735358D01*
X134713157Y-71733291D01*
X134719107Y-71731801D01*
X134725174Y-71730901D01*
X134731300Y-71730600D01*
X134856300Y-71730600D01*
X134862426Y-71730901D01*
X134862426Y-71730901D01*
G37*
D16*
X134793800Y-72143100D03*
D10*
G36*
X135362426Y-71730901D02*
G01*
X135368493Y-71731801D01*
X135374443Y-71733291D01*
X135380218Y-71735358D01*
X135385762Y-71737980D01*
X135391023Y-71741133D01*
X135395950Y-71744787D01*
X135400494Y-71748906D01*
X135404613Y-71753450D01*
X135408267Y-71758377D01*
X135411420Y-71763638D01*
X135414042Y-71769182D01*
X135416109Y-71774957D01*
X135417599Y-71780907D01*
X135418499Y-71786974D01*
X135418800Y-71793100D01*
X135418800Y-72493100D01*
X135418499Y-72499226D01*
X135417599Y-72505293D01*
X135416109Y-72511243D01*
X135414042Y-72517018D01*
X135411420Y-72522562D01*
X135408267Y-72527823D01*
X135404613Y-72532750D01*
X135400494Y-72537294D01*
X135395950Y-72541413D01*
X135391023Y-72545067D01*
X135385762Y-72548220D01*
X135380218Y-72550842D01*
X135374443Y-72552909D01*
X135368493Y-72554399D01*
X135362426Y-72555299D01*
X135356300Y-72555600D01*
X135231300Y-72555600D01*
X135225174Y-72555299D01*
X135219107Y-72554399D01*
X135213157Y-72552909D01*
X135207382Y-72550842D01*
X135201838Y-72548220D01*
X135196577Y-72545067D01*
X135191650Y-72541413D01*
X135187106Y-72537294D01*
X135182987Y-72532750D01*
X135179333Y-72527823D01*
X135176180Y-72522562D01*
X135173558Y-72517018D01*
X135171491Y-72511243D01*
X135170001Y-72505293D01*
X135169101Y-72499226D01*
X135168800Y-72493100D01*
X135168800Y-71793100D01*
X135169101Y-71786974D01*
X135170001Y-71780907D01*
X135171491Y-71774957D01*
X135173558Y-71769182D01*
X135176180Y-71763638D01*
X135179333Y-71758377D01*
X135182987Y-71753450D01*
X135187106Y-71748906D01*
X135191650Y-71744787D01*
X135196577Y-71741133D01*
X135201838Y-71737980D01*
X135207382Y-71735358D01*
X135213157Y-71733291D01*
X135219107Y-71731801D01*
X135225174Y-71730901D01*
X135231300Y-71730600D01*
X135356300Y-71730600D01*
X135362426Y-71730901D01*
X135362426Y-71730901D01*
G37*
D16*
X135293800Y-72143100D03*
D10*
G36*
X135862426Y-71730901D02*
G01*
X135868493Y-71731801D01*
X135874443Y-71733291D01*
X135880218Y-71735358D01*
X135885762Y-71737980D01*
X135891023Y-71741133D01*
X135895950Y-71744787D01*
X135900494Y-71748906D01*
X135904613Y-71753450D01*
X135908267Y-71758377D01*
X135911420Y-71763638D01*
X135914042Y-71769182D01*
X135916109Y-71774957D01*
X135917599Y-71780907D01*
X135918499Y-71786974D01*
X135918800Y-71793100D01*
X135918800Y-72493100D01*
X135918499Y-72499226D01*
X135917599Y-72505293D01*
X135916109Y-72511243D01*
X135914042Y-72517018D01*
X135911420Y-72522562D01*
X135908267Y-72527823D01*
X135904613Y-72532750D01*
X135900494Y-72537294D01*
X135895950Y-72541413D01*
X135891023Y-72545067D01*
X135885762Y-72548220D01*
X135880218Y-72550842D01*
X135874443Y-72552909D01*
X135868493Y-72554399D01*
X135862426Y-72555299D01*
X135856300Y-72555600D01*
X135731300Y-72555600D01*
X135725174Y-72555299D01*
X135719107Y-72554399D01*
X135713157Y-72552909D01*
X135707382Y-72550842D01*
X135701838Y-72548220D01*
X135696577Y-72545067D01*
X135691650Y-72541413D01*
X135687106Y-72537294D01*
X135682987Y-72532750D01*
X135679333Y-72527823D01*
X135676180Y-72522562D01*
X135673558Y-72517018D01*
X135671491Y-72511243D01*
X135670001Y-72505293D01*
X135669101Y-72499226D01*
X135668800Y-72493100D01*
X135668800Y-71793100D01*
X135669101Y-71786974D01*
X135670001Y-71780907D01*
X135671491Y-71774957D01*
X135673558Y-71769182D01*
X135676180Y-71763638D01*
X135679333Y-71758377D01*
X135682987Y-71753450D01*
X135687106Y-71748906D01*
X135691650Y-71744787D01*
X135696577Y-71741133D01*
X135701838Y-71737980D01*
X135707382Y-71735358D01*
X135713157Y-71733291D01*
X135719107Y-71731801D01*
X135725174Y-71730901D01*
X135731300Y-71730600D01*
X135856300Y-71730600D01*
X135862426Y-71730901D01*
X135862426Y-71730901D01*
G37*
D16*
X135793800Y-72143100D03*
D10*
G36*
X136837426Y-71330901D02*
G01*
X136843493Y-71331801D01*
X136849443Y-71333291D01*
X136855218Y-71335358D01*
X136860762Y-71337980D01*
X136866023Y-71341133D01*
X136870950Y-71344787D01*
X136875494Y-71348906D01*
X136879613Y-71353450D01*
X136883267Y-71358377D01*
X136886420Y-71363638D01*
X136889042Y-71369182D01*
X136891109Y-71374957D01*
X136892599Y-71380907D01*
X136893499Y-71386974D01*
X136893800Y-71393100D01*
X136893800Y-71518100D01*
X136893499Y-71524226D01*
X136892599Y-71530293D01*
X136891109Y-71536243D01*
X136889042Y-71542018D01*
X136886420Y-71547562D01*
X136883267Y-71552823D01*
X136879613Y-71557750D01*
X136875494Y-71562294D01*
X136870950Y-71566413D01*
X136866023Y-71570067D01*
X136860762Y-71573220D01*
X136855218Y-71575842D01*
X136849443Y-71577909D01*
X136843493Y-71579399D01*
X136837426Y-71580299D01*
X136831300Y-71580600D01*
X136131300Y-71580600D01*
X136125174Y-71580299D01*
X136119107Y-71579399D01*
X136113157Y-71577909D01*
X136107382Y-71575842D01*
X136101838Y-71573220D01*
X136096577Y-71570067D01*
X136091650Y-71566413D01*
X136087106Y-71562294D01*
X136082987Y-71557750D01*
X136079333Y-71552823D01*
X136076180Y-71547562D01*
X136073558Y-71542018D01*
X136071491Y-71536243D01*
X136070001Y-71530293D01*
X136069101Y-71524226D01*
X136068800Y-71518100D01*
X136068800Y-71393100D01*
X136069101Y-71386974D01*
X136070001Y-71380907D01*
X136071491Y-71374957D01*
X136073558Y-71369182D01*
X136076180Y-71363638D01*
X136079333Y-71358377D01*
X136082987Y-71353450D01*
X136087106Y-71348906D01*
X136091650Y-71344787D01*
X136096577Y-71341133D01*
X136101838Y-71337980D01*
X136107382Y-71335358D01*
X136113157Y-71333291D01*
X136119107Y-71331801D01*
X136125174Y-71330901D01*
X136131300Y-71330600D01*
X136831300Y-71330600D01*
X136837426Y-71330901D01*
X136837426Y-71330901D01*
G37*
D16*
X136481300Y-71455600D03*
D10*
G36*
X136837426Y-70830901D02*
G01*
X136843493Y-70831801D01*
X136849443Y-70833291D01*
X136855218Y-70835358D01*
X136860762Y-70837980D01*
X136866023Y-70841133D01*
X136870950Y-70844787D01*
X136875494Y-70848906D01*
X136879613Y-70853450D01*
X136883267Y-70858377D01*
X136886420Y-70863638D01*
X136889042Y-70869182D01*
X136891109Y-70874957D01*
X136892599Y-70880907D01*
X136893499Y-70886974D01*
X136893800Y-70893100D01*
X136893800Y-71018100D01*
X136893499Y-71024226D01*
X136892599Y-71030293D01*
X136891109Y-71036243D01*
X136889042Y-71042018D01*
X136886420Y-71047562D01*
X136883267Y-71052823D01*
X136879613Y-71057750D01*
X136875494Y-71062294D01*
X136870950Y-71066413D01*
X136866023Y-71070067D01*
X136860762Y-71073220D01*
X136855218Y-71075842D01*
X136849443Y-71077909D01*
X136843493Y-71079399D01*
X136837426Y-71080299D01*
X136831300Y-71080600D01*
X136131300Y-71080600D01*
X136125174Y-71080299D01*
X136119107Y-71079399D01*
X136113157Y-71077909D01*
X136107382Y-71075842D01*
X136101838Y-71073220D01*
X136096577Y-71070067D01*
X136091650Y-71066413D01*
X136087106Y-71062294D01*
X136082987Y-71057750D01*
X136079333Y-71052823D01*
X136076180Y-71047562D01*
X136073558Y-71042018D01*
X136071491Y-71036243D01*
X136070001Y-71030293D01*
X136069101Y-71024226D01*
X136068800Y-71018100D01*
X136068800Y-70893100D01*
X136069101Y-70886974D01*
X136070001Y-70880907D01*
X136071491Y-70874957D01*
X136073558Y-70869182D01*
X136076180Y-70863638D01*
X136079333Y-70858377D01*
X136082987Y-70853450D01*
X136087106Y-70848906D01*
X136091650Y-70844787D01*
X136096577Y-70841133D01*
X136101838Y-70837980D01*
X136107382Y-70835358D01*
X136113157Y-70833291D01*
X136119107Y-70831801D01*
X136125174Y-70830901D01*
X136131300Y-70830600D01*
X136831300Y-70830600D01*
X136837426Y-70830901D01*
X136837426Y-70830901D01*
G37*
D16*
X136481300Y-70955600D03*
D10*
G36*
X136837426Y-70330901D02*
G01*
X136843493Y-70331801D01*
X136849443Y-70333291D01*
X136855218Y-70335358D01*
X136860762Y-70337980D01*
X136866023Y-70341133D01*
X136870950Y-70344787D01*
X136875494Y-70348906D01*
X136879613Y-70353450D01*
X136883267Y-70358377D01*
X136886420Y-70363638D01*
X136889042Y-70369182D01*
X136891109Y-70374957D01*
X136892599Y-70380907D01*
X136893499Y-70386974D01*
X136893800Y-70393100D01*
X136893800Y-70518100D01*
X136893499Y-70524226D01*
X136892599Y-70530293D01*
X136891109Y-70536243D01*
X136889042Y-70542018D01*
X136886420Y-70547562D01*
X136883267Y-70552823D01*
X136879613Y-70557750D01*
X136875494Y-70562294D01*
X136870950Y-70566413D01*
X136866023Y-70570067D01*
X136860762Y-70573220D01*
X136855218Y-70575842D01*
X136849443Y-70577909D01*
X136843493Y-70579399D01*
X136837426Y-70580299D01*
X136831300Y-70580600D01*
X136131300Y-70580600D01*
X136125174Y-70580299D01*
X136119107Y-70579399D01*
X136113157Y-70577909D01*
X136107382Y-70575842D01*
X136101838Y-70573220D01*
X136096577Y-70570067D01*
X136091650Y-70566413D01*
X136087106Y-70562294D01*
X136082987Y-70557750D01*
X136079333Y-70552823D01*
X136076180Y-70547562D01*
X136073558Y-70542018D01*
X136071491Y-70536243D01*
X136070001Y-70530293D01*
X136069101Y-70524226D01*
X136068800Y-70518100D01*
X136068800Y-70393100D01*
X136069101Y-70386974D01*
X136070001Y-70380907D01*
X136071491Y-70374957D01*
X136073558Y-70369182D01*
X136076180Y-70363638D01*
X136079333Y-70358377D01*
X136082987Y-70353450D01*
X136087106Y-70348906D01*
X136091650Y-70344787D01*
X136096577Y-70341133D01*
X136101838Y-70337980D01*
X136107382Y-70335358D01*
X136113157Y-70333291D01*
X136119107Y-70331801D01*
X136125174Y-70330901D01*
X136131300Y-70330600D01*
X136831300Y-70330600D01*
X136837426Y-70330901D01*
X136837426Y-70330901D01*
G37*
D16*
X136481300Y-70455600D03*
D10*
G36*
X136837426Y-69830901D02*
G01*
X136843493Y-69831801D01*
X136849443Y-69833291D01*
X136855218Y-69835358D01*
X136860762Y-69837980D01*
X136866023Y-69841133D01*
X136870950Y-69844787D01*
X136875494Y-69848906D01*
X136879613Y-69853450D01*
X136883267Y-69858377D01*
X136886420Y-69863638D01*
X136889042Y-69869182D01*
X136891109Y-69874957D01*
X136892599Y-69880907D01*
X136893499Y-69886974D01*
X136893800Y-69893100D01*
X136893800Y-70018100D01*
X136893499Y-70024226D01*
X136892599Y-70030293D01*
X136891109Y-70036243D01*
X136889042Y-70042018D01*
X136886420Y-70047562D01*
X136883267Y-70052823D01*
X136879613Y-70057750D01*
X136875494Y-70062294D01*
X136870950Y-70066413D01*
X136866023Y-70070067D01*
X136860762Y-70073220D01*
X136855218Y-70075842D01*
X136849443Y-70077909D01*
X136843493Y-70079399D01*
X136837426Y-70080299D01*
X136831300Y-70080600D01*
X136131300Y-70080600D01*
X136125174Y-70080299D01*
X136119107Y-70079399D01*
X136113157Y-70077909D01*
X136107382Y-70075842D01*
X136101838Y-70073220D01*
X136096577Y-70070067D01*
X136091650Y-70066413D01*
X136087106Y-70062294D01*
X136082987Y-70057750D01*
X136079333Y-70052823D01*
X136076180Y-70047562D01*
X136073558Y-70042018D01*
X136071491Y-70036243D01*
X136070001Y-70030293D01*
X136069101Y-70024226D01*
X136068800Y-70018100D01*
X136068800Y-69893100D01*
X136069101Y-69886974D01*
X136070001Y-69880907D01*
X136071491Y-69874957D01*
X136073558Y-69869182D01*
X136076180Y-69863638D01*
X136079333Y-69858377D01*
X136082987Y-69853450D01*
X136087106Y-69848906D01*
X136091650Y-69844787D01*
X136096577Y-69841133D01*
X136101838Y-69837980D01*
X136107382Y-69835358D01*
X136113157Y-69833291D01*
X136119107Y-69831801D01*
X136125174Y-69830901D01*
X136131300Y-69830600D01*
X136831300Y-69830600D01*
X136837426Y-69830901D01*
X136837426Y-69830901D01*
G37*
D16*
X136481300Y-69955600D03*
D10*
G36*
X136837426Y-69330901D02*
G01*
X136843493Y-69331801D01*
X136849443Y-69333291D01*
X136855218Y-69335358D01*
X136860762Y-69337980D01*
X136866023Y-69341133D01*
X136870950Y-69344787D01*
X136875494Y-69348906D01*
X136879613Y-69353450D01*
X136883267Y-69358377D01*
X136886420Y-69363638D01*
X136889042Y-69369182D01*
X136891109Y-69374957D01*
X136892599Y-69380907D01*
X136893499Y-69386974D01*
X136893800Y-69393100D01*
X136893800Y-69518100D01*
X136893499Y-69524226D01*
X136892599Y-69530293D01*
X136891109Y-69536243D01*
X136889042Y-69542018D01*
X136886420Y-69547562D01*
X136883267Y-69552823D01*
X136879613Y-69557750D01*
X136875494Y-69562294D01*
X136870950Y-69566413D01*
X136866023Y-69570067D01*
X136860762Y-69573220D01*
X136855218Y-69575842D01*
X136849443Y-69577909D01*
X136843493Y-69579399D01*
X136837426Y-69580299D01*
X136831300Y-69580600D01*
X136131300Y-69580600D01*
X136125174Y-69580299D01*
X136119107Y-69579399D01*
X136113157Y-69577909D01*
X136107382Y-69575842D01*
X136101838Y-69573220D01*
X136096577Y-69570067D01*
X136091650Y-69566413D01*
X136087106Y-69562294D01*
X136082987Y-69557750D01*
X136079333Y-69552823D01*
X136076180Y-69547562D01*
X136073558Y-69542018D01*
X136071491Y-69536243D01*
X136070001Y-69530293D01*
X136069101Y-69524226D01*
X136068800Y-69518100D01*
X136068800Y-69393100D01*
X136069101Y-69386974D01*
X136070001Y-69380907D01*
X136071491Y-69374957D01*
X136073558Y-69369182D01*
X136076180Y-69363638D01*
X136079333Y-69358377D01*
X136082987Y-69353450D01*
X136087106Y-69348906D01*
X136091650Y-69344787D01*
X136096577Y-69341133D01*
X136101838Y-69337980D01*
X136107382Y-69335358D01*
X136113157Y-69333291D01*
X136119107Y-69331801D01*
X136125174Y-69330901D01*
X136131300Y-69330600D01*
X136831300Y-69330600D01*
X136837426Y-69330901D01*
X136837426Y-69330901D01*
G37*
D16*
X136481300Y-69455600D03*
D10*
G36*
X136837426Y-68830901D02*
G01*
X136843493Y-68831801D01*
X136849443Y-68833291D01*
X136855218Y-68835358D01*
X136860762Y-68837980D01*
X136866023Y-68841133D01*
X136870950Y-68844787D01*
X136875494Y-68848906D01*
X136879613Y-68853450D01*
X136883267Y-68858377D01*
X136886420Y-68863638D01*
X136889042Y-68869182D01*
X136891109Y-68874957D01*
X136892599Y-68880907D01*
X136893499Y-68886974D01*
X136893800Y-68893100D01*
X136893800Y-69018100D01*
X136893499Y-69024226D01*
X136892599Y-69030293D01*
X136891109Y-69036243D01*
X136889042Y-69042018D01*
X136886420Y-69047562D01*
X136883267Y-69052823D01*
X136879613Y-69057750D01*
X136875494Y-69062294D01*
X136870950Y-69066413D01*
X136866023Y-69070067D01*
X136860762Y-69073220D01*
X136855218Y-69075842D01*
X136849443Y-69077909D01*
X136843493Y-69079399D01*
X136837426Y-69080299D01*
X136831300Y-69080600D01*
X136131300Y-69080600D01*
X136125174Y-69080299D01*
X136119107Y-69079399D01*
X136113157Y-69077909D01*
X136107382Y-69075842D01*
X136101838Y-69073220D01*
X136096577Y-69070067D01*
X136091650Y-69066413D01*
X136087106Y-69062294D01*
X136082987Y-69057750D01*
X136079333Y-69052823D01*
X136076180Y-69047562D01*
X136073558Y-69042018D01*
X136071491Y-69036243D01*
X136070001Y-69030293D01*
X136069101Y-69024226D01*
X136068800Y-69018100D01*
X136068800Y-68893100D01*
X136069101Y-68886974D01*
X136070001Y-68880907D01*
X136071491Y-68874957D01*
X136073558Y-68869182D01*
X136076180Y-68863638D01*
X136079333Y-68858377D01*
X136082987Y-68853450D01*
X136087106Y-68848906D01*
X136091650Y-68844787D01*
X136096577Y-68841133D01*
X136101838Y-68837980D01*
X136107382Y-68835358D01*
X136113157Y-68833291D01*
X136119107Y-68831801D01*
X136125174Y-68830901D01*
X136131300Y-68830600D01*
X136831300Y-68830600D01*
X136837426Y-68830901D01*
X136837426Y-68830901D01*
G37*
D16*
X136481300Y-68955600D03*
D10*
G36*
X135862426Y-67855901D02*
G01*
X135868493Y-67856801D01*
X135874443Y-67858291D01*
X135880218Y-67860358D01*
X135885762Y-67862980D01*
X135891023Y-67866133D01*
X135895950Y-67869787D01*
X135900494Y-67873906D01*
X135904613Y-67878450D01*
X135908267Y-67883377D01*
X135911420Y-67888638D01*
X135914042Y-67894182D01*
X135916109Y-67899957D01*
X135917599Y-67905907D01*
X135918499Y-67911974D01*
X135918800Y-67918100D01*
X135918800Y-68618100D01*
X135918499Y-68624226D01*
X135917599Y-68630293D01*
X135916109Y-68636243D01*
X135914042Y-68642018D01*
X135911420Y-68647562D01*
X135908267Y-68652823D01*
X135904613Y-68657750D01*
X135900494Y-68662294D01*
X135895950Y-68666413D01*
X135891023Y-68670067D01*
X135885762Y-68673220D01*
X135880218Y-68675842D01*
X135874443Y-68677909D01*
X135868493Y-68679399D01*
X135862426Y-68680299D01*
X135856300Y-68680600D01*
X135731300Y-68680600D01*
X135725174Y-68680299D01*
X135719107Y-68679399D01*
X135713157Y-68677909D01*
X135707382Y-68675842D01*
X135701838Y-68673220D01*
X135696577Y-68670067D01*
X135691650Y-68666413D01*
X135687106Y-68662294D01*
X135682987Y-68657750D01*
X135679333Y-68652823D01*
X135676180Y-68647562D01*
X135673558Y-68642018D01*
X135671491Y-68636243D01*
X135670001Y-68630293D01*
X135669101Y-68624226D01*
X135668800Y-68618100D01*
X135668800Y-67918100D01*
X135669101Y-67911974D01*
X135670001Y-67905907D01*
X135671491Y-67899957D01*
X135673558Y-67894182D01*
X135676180Y-67888638D01*
X135679333Y-67883377D01*
X135682987Y-67878450D01*
X135687106Y-67873906D01*
X135691650Y-67869787D01*
X135696577Y-67866133D01*
X135701838Y-67862980D01*
X135707382Y-67860358D01*
X135713157Y-67858291D01*
X135719107Y-67856801D01*
X135725174Y-67855901D01*
X135731300Y-67855600D01*
X135856300Y-67855600D01*
X135862426Y-67855901D01*
X135862426Y-67855901D01*
G37*
D16*
X135793800Y-68268100D03*
D10*
G36*
X135362426Y-67855901D02*
G01*
X135368493Y-67856801D01*
X135374443Y-67858291D01*
X135380218Y-67860358D01*
X135385762Y-67862980D01*
X135391023Y-67866133D01*
X135395950Y-67869787D01*
X135400494Y-67873906D01*
X135404613Y-67878450D01*
X135408267Y-67883377D01*
X135411420Y-67888638D01*
X135414042Y-67894182D01*
X135416109Y-67899957D01*
X135417599Y-67905907D01*
X135418499Y-67911974D01*
X135418800Y-67918100D01*
X135418800Y-68618100D01*
X135418499Y-68624226D01*
X135417599Y-68630293D01*
X135416109Y-68636243D01*
X135414042Y-68642018D01*
X135411420Y-68647562D01*
X135408267Y-68652823D01*
X135404613Y-68657750D01*
X135400494Y-68662294D01*
X135395950Y-68666413D01*
X135391023Y-68670067D01*
X135385762Y-68673220D01*
X135380218Y-68675842D01*
X135374443Y-68677909D01*
X135368493Y-68679399D01*
X135362426Y-68680299D01*
X135356300Y-68680600D01*
X135231300Y-68680600D01*
X135225174Y-68680299D01*
X135219107Y-68679399D01*
X135213157Y-68677909D01*
X135207382Y-68675842D01*
X135201838Y-68673220D01*
X135196577Y-68670067D01*
X135191650Y-68666413D01*
X135187106Y-68662294D01*
X135182987Y-68657750D01*
X135179333Y-68652823D01*
X135176180Y-68647562D01*
X135173558Y-68642018D01*
X135171491Y-68636243D01*
X135170001Y-68630293D01*
X135169101Y-68624226D01*
X135168800Y-68618100D01*
X135168800Y-67918100D01*
X135169101Y-67911974D01*
X135170001Y-67905907D01*
X135171491Y-67899957D01*
X135173558Y-67894182D01*
X135176180Y-67888638D01*
X135179333Y-67883377D01*
X135182987Y-67878450D01*
X135187106Y-67873906D01*
X135191650Y-67869787D01*
X135196577Y-67866133D01*
X135201838Y-67862980D01*
X135207382Y-67860358D01*
X135213157Y-67858291D01*
X135219107Y-67856801D01*
X135225174Y-67855901D01*
X135231300Y-67855600D01*
X135356300Y-67855600D01*
X135362426Y-67855901D01*
X135362426Y-67855901D01*
G37*
D16*
X135293800Y-68268100D03*
D10*
G36*
X134862426Y-67855901D02*
G01*
X134868493Y-67856801D01*
X134874443Y-67858291D01*
X134880218Y-67860358D01*
X134885762Y-67862980D01*
X134891023Y-67866133D01*
X134895950Y-67869787D01*
X134900494Y-67873906D01*
X134904613Y-67878450D01*
X134908267Y-67883377D01*
X134911420Y-67888638D01*
X134914042Y-67894182D01*
X134916109Y-67899957D01*
X134917599Y-67905907D01*
X134918499Y-67911974D01*
X134918800Y-67918100D01*
X134918800Y-68618100D01*
X134918499Y-68624226D01*
X134917599Y-68630293D01*
X134916109Y-68636243D01*
X134914042Y-68642018D01*
X134911420Y-68647562D01*
X134908267Y-68652823D01*
X134904613Y-68657750D01*
X134900494Y-68662294D01*
X134895950Y-68666413D01*
X134891023Y-68670067D01*
X134885762Y-68673220D01*
X134880218Y-68675842D01*
X134874443Y-68677909D01*
X134868493Y-68679399D01*
X134862426Y-68680299D01*
X134856300Y-68680600D01*
X134731300Y-68680600D01*
X134725174Y-68680299D01*
X134719107Y-68679399D01*
X134713157Y-68677909D01*
X134707382Y-68675842D01*
X134701838Y-68673220D01*
X134696577Y-68670067D01*
X134691650Y-68666413D01*
X134687106Y-68662294D01*
X134682987Y-68657750D01*
X134679333Y-68652823D01*
X134676180Y-68647562D01*
X134673558Y-68642018D01*
X134671491Y-68636243D01*
X134670001Y-68630293D01*
X134669101Y-68624226D01*
X134668800Y-68618100D01*
X134668800Y-67918100D01*
X134669101Y-67911974D01*
X134670001Y-67905907D01*
X134671491Y-67899957D01*
X134673558Y-67894182D01*
X134676180Y-67888638D01*
X134679333Y-67883377D01*
X134682987Y-67878450D01*
X134687106Y-67873906D01*
X134691650Y-67869787D01*
X134696577Y-67866133D01*
X134701838Y-67862980D01*
X134707382Y-67860358D01*
X134713157Y-67858291D01*
X134719107Y-67856801D01*
X134725174Y-67855901D01*
X134731300Y-67855600D01*
X134856300Y-67855600D01*
X134862426Y-67855901D01*
X134862426Y-67855901D01*
G37*
D16*
X134793800Y-68268100D03*
D10*
G36*
X134362426Y-67855901D02*
G01*
X134368493Y-67856801D01*
X134374443Y-67858291D01*
X134380218Y-67860358D01*
X134385762Y-67862980D01*
X134391023Y-67866133D01*
X134395950Y-67869787D01*
X134400494Y-67873906D01*
X134404613Y-67878450D01*
X134408267Y-67883377D01*
X134411420Y-67888638D01*
X134414042Y-67894182D01*
X134416109Y-67899957D01*
X134417599Y-67905907D01*
X134418499Y-67911974D01*
X134418800Y-67918100D01*
X134418800Y-68618100D01*
X134418499Y-68624226D01*
X134417599Y-68630293D01*
X134416109Y-68636243D01*
X134414042Y-68642018D01*
X134411420Y-68647562D01*
X134408267Y-68652823D01*
X134404613Y-68657750D01*
X134400494Y-68662294D01*
X134395950Y-68666413D01*
X134391023Y-68670067D01*
X134385762Y-68673220D01*
X134380218Y-68675842D01*
X134374443Y-68677909D01*
X134368493Y-68679399D01*
X134362426Y-68680299D01*
X134356300Y-68680600D01*
X134231300Y-68680600D01*
X134225174Y-68680299D01*
X134219107Y-68679399D01*
X134213157Y-68677909D01*
X134207382Y-68675842D01*
X134201838Y-68673220D01*
X134196577Y-68670067D01*
X134191650Y-68666413D01*
X134187106Y-68662294D01*
X134182987Y-68657750D01*
X134179333Y-68652823D01*
X134176180Y-68647562D01*
X134173558Y-68642018D01*
X134171491Y-68636243D01*
X134170001Y-68630293D01*
X134169101Y-68624226D01*
X134168800Y-68618100D01*
X134168800Y-67918100D01*
X134169101Y-67911974D01*
X134170001Y-67905907D01*
X134171491Y-67899957D01*
X134173558Y-67894182D01*
X134176180Y-67888638D01*
X134179333Y-67883377D01*
X134182987Y-67878450D01*
X134187106Y-67873906D01*
X134191650Y-67869787D01*
X134196577Y-67866133D01*
X134201838Y-67862980D01*
X134207382Y-67860358D01*
X134213157Y-67858291D01*
X134219107Y-67856801D01*
X134225174Y-67855901D01*
X134231300Y-67855600D01*
X134356300Y-67855600D01*
X134362426Y-67855901D01*
X134362426Y-67855901D01*
G37*
D16*
X134293800Y-68268100D03*
D10*
G36*
X133862426Y-67855901D02*
G01*
X133868493Y-67856801D01*
X133874443Y-67858291D01*
X133880218Y-67860358D01*
X133885762Y-67862980D01*
X133891023Y-67866133D01*
X133895950Y-67869787D01*
X133900494Y-67873906D01*
X133904613Y-67878450D01*
X133908267Y-67883377D01*
X133911420Y-67888638D01*
X133914042Y-67894182D01*
X133916109Y-67899957D01*
X133917599Y-67905907D01*
X133918499Y-67911974D01*
X133918800Y-67918100D01*
X133918800Y-68618100D01*
X133918499Y-68624226D01*
X133917599Y-68630293D01*
X133916109Y-68636243D01*
X133914042Y-68642018D01*
X133911420Y-68647562D01*
X133908267Y-68652823D01*
X133904613Y-68657750D01*
X133900494Y-68662294D01*
X133895950Y-68666413D01*
X133891023Y-68670067D01*
X133885762Y-68673220D01*
X133880218Y-68675842D01*
X133874443Y-68677909D01*
X133868493Y-68679399D01*
X133862426Y-68680299D01*
X133856300Y-68680600D01*
X133731300Y-68680600D01*
X133725174Y-68680299D01*
X133719107Y-68679399D01*
X133713157Y-68677909D01*
X133707382Y-68675842D01*
X133701838Y-68673220D01*
X133696577Y-68670067D01*
X133691650Y-68666413D01*
X133687106Y-68662294D01*
X133682987Y-68657750D01*
X133679333Y-68652823D01*
X133676180Y-68647562D01*
X133673558Y-68642018D01*
X133671491Y-68636243D01*
X133670001Y-68630293D01*
X133669101Y-68624226D01*
X133668800Y-68618100D01*
X133668800Y-67918100D01*
X133669101Y-67911974D01*
X133670001Y-67905907D01*
X133671491Y-67899957D01*
X133673558Y-67894182D01*
X133676180Y-67888638D01*
X133679333Y-67883377D01*
X133682987Y-67878450D01*
X133687106Y-67873906D01*
X133691650Y-67869787D01*
X133696577Y-67866133D01*
X133701838Y-67862980D01*
X133707382Y-67860358D01*
X133713157Y-67858291D01*
X133719107Y-67856801D01*
X133725174Y-67855901D01*
X133731300Y-67855600D01*
X133856300Y-67855600D01*
X133862426Y-67855901D01*
X133862426Y-67855901D01*
G37*
D16*
X133793800Y-68268100D03*
D10*
G36*
X133362426Y-67855901D02*
G01*
X133368493Y-67856801D01*
X133374443Y-67858291D01*
X133380218Y-67860358D01*
X133385762Y-67862980D01*
X133391023Y-67866133D01*
X133395950Y-67869787D01*
X133400494Y-67873906D01*
X133404613Y-67878450D01*
X133408267Y-67883377D01*
X133411420Y-67888638D01*
X133414042Y-67894182D01*
X133416109Y-67899957D01*
X133417599Y-67905907D01*
X133418499Y-67911974D01*
X133418800Y-67918100D01*
X133418800Y-68618100D01*
X133418499Y-68624226D01*
X133417599Y-68630293D01*
X133416109Y-68636243D01*
X133414042Y-68642018D01*
X133411420Y-68647562D01*
X133408267Y-68652823D01*
X133404613Y-68657750D01*
X133400494Y-68662294D01*
X133395950Y-68666413D01*
X133391023Y-68670067D01*
X133385762Y-68673220D01*
X133380218Y-68675842D01*
X133374443Y-68677909D01*
X133368493Y-68679399D01*
X133362426Y-68680299D01*
X133356300Y-68680600D01*
X133231300Y-68680600D01*
X133225174Y-68680299D01*
X133219107Y-68679399D01*
X133213157Y-68677909D01*
X133207382Y-68675842D01*
X133201838Y-68673220D01*
X133196577Y-68670067D01*
X133191650Y-68666413D01*
X133187106Y-68662294D01*
X133182987Y-68657750D01*
X133179333Y-68652823D01*
X133176180Y-68647562D01*
X133173558Y-68642018D01*
X133171491Y-68636243D01*
X133170001Y-68630293D01*
X133169101Y-68624226D01*
X133168800Y-68618100D01*
X133168800Y-67918100D01*
X133169101Y-67911974D01*
X133170001Y-67905907D01*
X133171491Y-67899957D01*
X133173558Y-67894182D01*
X133176180Y-67888638D01*
X133179333Y-67883377D01*
X133182987Y-67878450D01*
X133187106Y-67873906D01*
X133191650Y-67869787D01*
X133196577Y-67866133D01*
X133201838Y-67862980D01*
X133207382Y-67860358D01*
X133213157Y-67858291D01*
X133219107Y-67856801D01*
X133225174Y-67855901D01*
X133231300Y-67855600D01*
X133356300Y-67855600D01*
X133362426Y-67855901D01*
X133362426Y-67855901D01*
G37*
D16*
X133293800Y-68268100D03*
D10*
G36*
X132962426Y-68830901D02*
G01*
X132968493Y-68831801D01*
X132974443Y-68833291D01*
X132980218Y-68835358D01*
X132985762Y-68837980D01*
X132991023Y-68841133D01*
X132995950Y-68844787D01*
X133000494Y-68848906D01*
X133004613Y-68853450D01*
X133008267Y-68858377D01*
X133011420Y-68863638D01*
X133014042Y-68869182D01*
X133016109Y-68874957D01*
X133017599Y-68880907D01*
X133018499Y-68886974D01*
X133018800Y-68893100D01*
X133018800Y-69018100D01*
X133018499Y-69024226D01*
X133017599Y-69030293D01*
X133016109Y-69036243D01*
X133014042Y-69042018D01*
X133011420Y-69047562D01*
X133008267Y-69052823D01*
X133004613Y-69057750D01*
X133000494Y-69062294D01*
X132995950Y-69066413D01*
X132991023Y-69070067D01*
X132985762Y-69073220D01*
X132980218Y-69075842D01*
X132974443Y-69077909D01*
X132968493Y-69079399D01*
X132962426Y-69080299D01*
X132956300Y-69080600D01*
X132256300Y-69080600D01*
X132250174Y-69080299D01*
X132244107Y-69079399D01*
X132238157Y-69077909D01*
X132232382Y-69075842D01*
X132226838Y-69073220D01*
X132221577Y-69070067D01*
X132216650Y-69066413D01*
X132212106Y-69062294D01*
X132207987Y-69057750D01*
X132204333Y-69052823D01*
X132201180Y-69047562D01*
X132198558Y-69042018D01*
X132196491Y-69036243D01*
X132195001Y-69030293D01*
X132194101Y-69024226D01*
X132193800Y-69018100D01*
X132193800Y-68893100D01*
X132194101Y-68886974D01*
X132195001Y-68880907D01*
X132196491Y-68874957D01*
X132198558Y-68869182D01*
X132201180Y-68863638D01*
X132204333Y-68858377D01*
X132207987Y-68853450D01*
X132212106Y-68848906D01*
X132216650Y-68844787D01*
X132221577Y-68841133D01*
X132226838Y-68837980D01*
X132232382Y-68835358D01*
X132238157Y-68833291D01*
X132244107Y-68831801D01*
X132250174Y-68830901D01*
X132256300Y-68830600D01*
X132956300Y-68830600D01*
X132962426Y-68830901D01*
X132962426Y-68830901D01*
G37*
D16*
X132606300Y-68955600D03*
D10*
G36*
X132962426Y-69330901D02*
G01*
X132968493Y-69331801D01*
X132974443Y-69333291D01*
X132980218Y-69335358D01*
X132985762Y-69337980D01*
X132991023Y-69341133D01*
X132995950Y-69344787D01*
X133000494Y-69348906D01*
X133004613Y-69353450D01*
X133008267Y-69358377D01*
X133011420Y-69363638D01*
X133014042Y-69369182D01*
X133016109Y-69374957D01*
X133017599Y-69380907D01*
X133018499Y-69386974D01*
X133018800Y-69393100D01*
X133018800Y-69518100D01*
X133018499Y-69524226D01*
X133017599Y-69530293D01*
X133016109Y-69536243D01*
X133014042Y-69542018D01*
X133011420Y-69547562D01*
X133008267Y-69552823D01*
X133004613Y-69557750D01*
X133000494Y-69562294D01*
X132995950Y-69566413D01*
X132991023Y-69570067D01*
X132985762Y-69573220D01*
X132980218Y-69575842D01*
X132974443Y-69577909D01*
X132968493Y-69579399D01*
X132962426Y-69580299D01*
X132956300Y-69580600D01*
X132256300Y-69580600D01*
X132250174Y-69580299D01*
X132244107Y-69579399D01*
X132238157Y-69577909D01*
X132232382Y-69575842D01*
X132226838Y-69573220D01*
X132221577Y-69570067D01*
X132216650Y-69566413D01*
X132212106Y-69562294D01*
X132207987Y-69557750D01*
X132204333Y-69552823D01*
X132201180Y-69547562D01*
X132198558Y-69542018D01*
X132196491Y-69536243D01*
X132195001Y-69530293D01*
X132194101Y-69524226D01*
X132193800Y-69518100D01*
X132193800Y-69393100D01*
X132194101Y-69386974D01*
X132195001Y-69380907D01*
X132196491Y-69374957D01*
X132198558Y-69369182D01*
X132201180Y-69363638D01*
X132204333Y-69358377D01*
X132207987Y-69353450D01*
X132212106Y-69348906D01*
X132216650Y-69344787D01*
X132221577Y-69341133D01*
X132226838Y-69337980D01*
X132232382Y-69335358D01*
X132238157Y-69333291D01*
X132244107Y-69331801D01*
X132250174Y-69330901D01*
X132256300Y-69330600D01*
X132956300Y-69330600D01*
X132962426Y-69330901D01*
X132962426Y-69330901D01*
G37*
D16*
X132606300Y-69455600D03*
D10*
G36*
X132962426Y-69830901D02*
G01*
X132968493Y-69831801D01*
X132974443Y-69833291D01*
X132980218Y-69835358D01*
X132985762Y-69837980D01*
X132991023Y-69841133D01*
X132995950Y-69844787D01*
X133000494Y-69848906D01*
X133004613Y-69853450D01*
X133008267Y-69858377D01*
X133011420Y-69863638D01*
X133014042Y-69869182D01*
X133016109Y-69874957D01*
X133017599Y-69880907D01*
X133018499Y-69886974D01*
X133018800Y-69893100D01*
X133018800Y-70018100D01*
X133018499Y-70024226D01*
X133017599Y-70030293D01*
X133016109Y-70036243D01*
X133014042Y-70042018D01*
X133011420Y-70047562D01*
X133008267Y-70052823D01*
X133004613Y-70057750D01*
X133000494Y-70062294D01*
X132995950Y-70066413D01*
X132991023Y-70070067D01*
X132985762Y-70073220D01*
X132980218Y-70075842D01*
X132974443Y-70077909D01*
X132968493Y-70079399D01*
X132962426Y-70080299D01*
X132956300Y-70080600D01*
X132256300Y-70080600D01*
X132250174Y-70080299D01*
X132244107Y-70079399D01*
X132238157Y-70077909D01*
X132232382Y-70075842D01*
X132226838Y-70073220D01*
X132221577Y-70070067D01*
X132216650Y-70066413D01*
X132212106Y-70062294D01*
X132207987Y-70057750D01*
X132204333Y-70052823D01*
X132201180Y-70047562D01*
X132198558Y-70042018D01*
X132196491Y-70036243D01*
X132195001Y-70030293D01*
X132194101Y-70024226D01*
X132193800Y-70018100D01*
X132193800Y-69893100D01*
X132194101Y-69886974D01*
X132195001Y-69880907D01*
X132196491Y-69874957D01*
X132198558Y-69869182D01*
X132201180Y-69863638D01*
X132204333Y-69858377D01*
X132207987Y-69853450D01*
X132212106Y-69848906D01*
X132216650Y-69844787D01*
X132221577Y-69841133D01*
X132226838Y-69837980D01*
X132232382Y-69835358D01*
X132238157Y-69833291D01*
X132244107Y-69831801D01*
X132250174Y-69830901D01*
X132256300Y-69830600D01*
X132956300Y-69830600D01*
X132962426Y-69830901D01*
X132962426Y-69830901D01*
G37*
D16*
X132606300Y-69955600D03*
D10*
G36*
X132962426Y-70330901D02*
G01*
X132968493Y-70331801D01*
X132974443Y-70333291D01*
X132980218Y-70335358D01*
X132985762Y-70337980D01*
X132991023Y-70341133D01*
X132995950Y-70344787D01*
X133000494Y-70348906D01*
X133004613Y-70353450D01*
X133008267Y-70358377D01*
X133011420Y-70363638D01*
X133014042Y-70369182D01*
X133016109Y-70374957D01*
X133017599Y-70380907D01*
X133018499Y-70386974D01*
X133018800Y-70393100D01*
X133018800Y-70518100D01*
X133018499Y-70524226D01*
X133017599Y-70530293D01*
X133016109Y-70536243D01*
X133014042Y-70542018D01*
X133011420Y-70547562D01*
X133008267Y-70552823D01*
X133004613Y-70557750D01*
X133000494Y-70562294D01*
X132995950Y-70566413D01*
X132991023Y-70570067D01*
X132985762Y-70573220D01*
X132980218Y-70575842D01*
X132974443Y-70577909D01*
X132968493Y-70579399D01*
X132962426Y-70580299D01*
X132956300Y-70580600D01*
X132256300Y-70580600D01*
X132250174Y-70580299D01*
X132244107Y-70579399D01*
X132238157Y-70577909D01*
X132232382Y-70575842D01*
X132226838Y-70573220D01*
X132221577Y-70570067D01*
X132216650Y-70566413D01*
X132212106Y-70562294D01*
X132207987Y-70557750D01*
X132204333Y-70552823D01*
X132201180Y-70547562D01*
X132198558Y-70542018D01*
X132196491Y-70536243D01*
X132195001Y-70530293D01*
X132194101Y-70524226D01*
X132193800Y-70518100D01*
X132193800Y-70393100D01*
X132194101Y-70386974D01*
X132195001Y-70380907D01*
X132196491Y-70374957D01*
X132198558Y-70369182D01*
X132201180Y-70363638D01*
X132204333Y-70358377D01*
X132207987Y-70353450D01*
X132212106Y-70348906D01*
X132216650Y-70344787D01*
X132221577Y-70341133D01*
X132226838Y-70337980D01*
X132232382Y-70335358D01*
X132238157Y-70333291D01*
X132244107Y-70331801D01*
X132250174Y-70330901D01*
X132256300Y-70330600D01*
X132956300Y-70330600D01*
X132962426Y-70330901D01*
X132962426Y-70330901D01*
G37*
D16*
X132606300Y-70455600D03*
D10*
G36*
X132962426Y-70830901D02*
G01*
X132968493Y-70831801D01*
X132974443Y-70833291D01*
X132980218Y-70835358D01*
X132985762Y-70837980D01*
X132991023Y-70841133D01*
X132995950Y-70844787D01*
X133000494Y-70848906D01*
X133004613Y-70853450D01*
X133008267Y-70858377D01*
X133011420Y-70863638D01*
X133014042Y-70869182D01*
X133016109Y-70874957D01*
X133017599Y-70880907D01*
X133018499Y-70886974D01*
X133018800Y-70893100D01*
X133018800Y-71018100D01*
X133018499Y-71024226D01*
X133017599Y-71030293D01*
X133016109Y-71036243D01*
X133014042Y-71042018D01*
X133011420Y-71047562D01*
X133008267Y-71052823D01*
X133004613Y-71057750D01*
X133000494Y-71062294D01*
X132995950Y-71066413D01*
X132991023Y-71070067D01*
X132985762Y-71073220D01*
X132980218Y-71075842D01*
X132974443Y-71077909D01*
X132968493Y-71079399D01*
X132962426Y-71080299D01*
X132956300Y-71080600D01*
X132256300Y-71080600D01*
X132250174Y-71080299D01*
X132244107Y-71079399D01*
X132238157Y-71077909D01*
X132232382Y-71075842D01*
X132226838Y-71073220D01*
X132221577Y-71070067D01*
X132216650Y-71066413D01*
X132212106Y-71062294D01*
X132207987Y-71057750D01*
X132204333Y-71052823D01*
X132201180Y-71047562D01*
X132198558Y-71042018D01*
X132196491Y-71036243D01*
X132195001Y-71030293D01*
X132194101Y-71024226D01*
X132193800Y-71018100D01*
X132193800Y-70893100D01*
X132194101Y-70886974D01*
X132195001Y-70880907D01*
X132196491Y-70874957D01*
X132198558Y-70869182D01*
X132201180Y-70863638D01*
X132204333Y-70858377D01*
X132207987Y-70853450D01*
X132212106Y-70848906D01*
X132216650Y-70844787D01*
X132221577Y-70841133D01*
X132226838Y-70837980D01*
X132232382Y-70835358D01*
X132238157Y-70833291D01*
X132244107Y-70831801D01*
X132250174Y-70830901D01*
X132256300Y-70830600D01*
X132956300Y-70830600D01*
X132962426Y-70830901D01*
X132962426Y-70830901D01*
G37*
D16*
X132606300Y-70955600D03*
D10*
G36*
X132962426Y-71330901D02*
G01*
X132968493Y-71331801D01*
X132974443Y-71333291D01*
X132980218Y-71335358D01*
X132985762Y-71337980D01*
X132991023Y-71341133D01*
X132995950Y-71344787D01*
X133000494Y-71348906D01*
X133004613Y-71353450D01*
X133008267Y-71358377D01*
X133011420Y-71363638D01*
X133014042Y-71369182D01*
X133016109Y-71374957D01*
X133017599Y-71380907D01*
X133018499Y-71386974D01*
X133018800Y-71393100D01*
X133018800Y-71518100D01*
X133018499Y-71524226D01*
X133017599Y-71530293D01*
X133016109Y-71536243D01*
X133014042Y-71542018D01*
X133011420Y-71547562D01*
X133008267Y-71552823D01*
X133004613Y-71557750D01*
X133000494Y-71562294D01*
X132995950Y-71566413D01*
X132991023Y-71570067D01*
X132985762Y-71573220D01*
X132980218Y-71575842D01*
X132974443Y-71577909D01*
X132968493Y-71579399D01*
X132962426Y-71580299D01*
X132956300Y-71580600D01*
X132256300Y-71580600D01*
X132250174Y-71580299D01*
X132244107Y-71579399D01*
X132238157Y-71577909D01*
X132232382Y-71575842D01*
X132226838Y-71573220D01*
X132221577Y-71570067D01*
X132216650Y-71566413D01*
X132212106Y-71562294D01*
X132207987Y-71557750D01*
X132204333Y-71552823D01*
X132201180Y-71547562D01*
X132198558Y-71542018D01*
X132196491Y-71536243D01*
X132195001Y-71530293D01*
X132194101Y-71524226D01*
X132193800Y-71518100D01*
X132193800Y-71393100D01*
X132194101Y-71386974D01*
X132195001Y-71380907D01*
X132196491Y-71374957D01*
X132198558Y-71369182D01*
X132201180Y-71363638D01*
X132204333Y-71358377D01*
X132207987Y-71353450D01*
X132212106Y-71348906D01*
X132216650Y-71344787D01*
X132221577Y-71341133D01*
X132226838Y-71337980D01*
X132232382Y-71335358D01*
X132238157Y-71333291D01*
X132244107Y-71331801D01*
X132250174Y-71330901D01*
X132256300Y-71330600D01*
X132956300Y-71330600D01*
X132962426Y-71330901D01*
X132962426Y-71330901D01*
G37*
D16*
X132606300Y-71455600D03*
D17*
X136296400Y-86207600D03*
X135534400Y-77800200D03*
X133985000Y-74599800D03*
X132715000Y-81381600D03*
X132715000Y-82753200D03*
X133604000Y-77698600D03*
X133197600Y-86080600D03*
X134569200Y-86080600D03*
X131470400Y-72796400D03*
X133553200Y-88392000D03*
X138049000Y-81559400D03*
X139649200Y-81508600D03*
X137769600Y-77698600D03*
X135610600Y-73939400D03*
D18*
X142062200Y-94183200D02*
X142163800Y-94081600D01*
X137083800Y-94183200D02*
X142062200Y-94183200D01*
X138226800Y-93040200D02*
X137083800Y-94183200D01*
X138226800Y-90675700D02*
X138226800Y-93040200D01*
D19*
X134793800Y-75360100D02*
X135481300Y-76047600D01*
X134793800Y-72143100D02*
X134793800Y-75360100D01*
D18*
X139230000Y-86230700D02*
X139903200Y-86903900D01*
X138430000Y-86230700D02*
X139230000Y-86230700D01*
X139903200Y-86903900D02*
X139903200Y-90144600D01*
X139372100Y-90675700D02*
X138226800Y-90675700D01*
X139903200Y-90144600D02*
X139372100Y-90675700D01*
X136319500Y-86230700D02*
X136296400Y-86207600D01*
X138430000Y-86230700D02*
X136319500Y-86230700D01*
X135534400Y-76100700D02*
X135481300Y-76047600D01*
X135534400Y-77800200D02*
X135534400Y-76100700D01*
D19*
X134243810Y-70505590D02*
X134243810Y-74442590D01*
X134243810Y-74442590D02*
X134188200Y-74498200D01*
X134543800Y-70205600D02*
X134243810Y-70505590D01*
X134797800Y-93929200D02*
X134543800Y-94183200D01*
X134797800Y-90336200D02*
X134797800Y-93929200D01*
X131470400Y-71579000D02*
X131470400Y-72796400D01*
X132093800Y-70955600D02*
X131470400Y-71579000D01*
X132606300Y-70955600D02*
X132093800Y-70955600D01*
X131523500Y-88392000D02*
X131368800Y-88546700D01*
X133553200Y-88392000D02*
X131523500Y-88392000D01*
X133553200Y-88392000D02*
X133953199Y-88791999D01*
X135502599Y-88791999D02*
X135511300Y-88800700D01*
X135511300Y-88800700D02*
X135333300Y-88800700D01*
X138226800Y-88800700D02*
X135511300Y-88800700D01*
X134638999Y-88791999D02*
X135502599Y-88791999D01*
X133953199Y-88791999D02*
X134638999Y-88791999D01*
X133553200Y-90091600D02*
X133797800Y-90336200D01*
X133797800Y-90336200D02*
X134797800Y-90336200D01*
X133553200Y-88392000D02*
X133553200Y-90091600D01*
X128043700Y-90421700D02*
X131368800Y-90421700D01*
X127050800Y-91414600D02*
X128043700Y-90421700D01*
X131368800Y-84355700D02*
X138430000Y-84355700D01*
X133754100Y-79578200D02*
X135739900Y-79578200D01*
X133793800Y-72143100D02*
X133793800Y-73749600D01*
X133793800Y-73749600D02*
X132080000Y-75463400D01*
X132080000Y-75463400D02*
X132080000Y-77393800D01*
X132080000Y-77393800D02*
X130606800Y-78867000D01*
X130606800Y-78867000D02*
X130606800Y-82423000D01*
X130606800Y-82423000D02*
X129794000Y-83235800D01*
X129794000Y-83235800D02*
X129794000Y-88163400D01*
X129082800Y-88874600D02*
X127050800Y-88874600D01*
X129794000Y-88163400D02*
X129082800Y-88874600D01*
X133293800Y-72143100D02*
X133293800Y-73233600D01*
X133293800Y-73233600D02*
X131470400Y-75057000D01*
X131470400Y-75057000D02*
X131470400Y-77089000D01*
X131470400Y-77089000D02*
X129997200Y-78562200D01*
X129997200Y-78562200D02*
X129997200Y-82118200D01*
X129997200Y-82118200D02*
X129336800Y-82778600D01*
X129336800Y-82778600D02*
X129336800Y-85674200D01*
X128676400Y-86334600D02*
X127050800Y-86334600D01*
X129336800Y-85674200D02*
X128676400Y-86334600D01*
X132606300Y-71455600D02*
X132606300Y-73082900D01*
X132606300Y-73082900D02*
X130708400Y-74980800D01*
X130708400Y-77214590D02*
X129336800Y-78586190D01*
X130708400Y-74980800D02*
X130708400Y-77214590D01*
X129336800Y-78586190D02*
X129336800Y-82142190D01*
X129336800Y-82142190D02*
X128625600Y-82853390D01*
X128625600Y-82853390D02*
X128625600Y-83616800D01*
X128447800Y-83794600D02*
X127050800Y-83794600D01*
X128625600Y-83616800D02*
X128447800Y-83794600D01*
X128778000Y-80594200D02*
X128066800Y-81305400D01*
X128778000Y-78508580D02*
X128778000Y-80594200D01*
X130048000Y-77238580D02*
X128778000Y-78508580D01*
X128066800Y-81305400D02*
X127101600Y-81305400D01*
X127101600Y-81305400D02*
X127050800Y-81254600D01*
X132606300Y-70455600D02*
X131423600Y-70455600D01*
X130828210Y-71050990D02*
X130828209Y-71103201D01*
X131423600Y-70455600D02*
X130828210Y-71050990D01*
X130048000Y-71883410D02*
X130048000Y-77238580D01*
X130828209Y-71103201D02*
X130048000Y-71883410D01*
X129540000Y-77110170D02*
X127914400Y-78735770D01*
X127914400Y-78735770D02*
X127071970Y-78735770D01*
X127071970Y-78735770D02*
X127050800Y-78714600D01*
X131287190Y-69955600D02*
X130378200Y-70864590D01*
X129540000Y-75107800D02*
X129540000Y-77110170D01*
X129540000Y-74752200D02*
X129540000Y-75107800D01*
X132606300Y-69955600D02*
X131287190Y-69955600D01*
X129540000Y-74876380D02*
X129540000Y-75107800D01*
X130378200Y-70864590D02*
X130378200Y-70916800D01*
X129540000Y-71755000D02*
X129540000Y-75107800D01*
X130378200Y-70916800D02*
X129540000Y-71755000D01*
X132220400Y-69455600D02*
X132170410Y-69505590D01*
X132606300Y-69455600D02*
X132220400Y-69455600D01*
X127900799Y-75324601D02*
X127050800Y-76174600D01*
X129032000Y-71574380D02*
X129032000Y-74193400D01*
X129032000Y-74193400D02*
X127900799Y-75324601D01*
X131150780Y-69455600D02*
X129032000Y-71574380D01*
X132606300Y-69455600D02*
X131150780Y-69455600D01*
X130358200Y-68955600D02*
X128574800Y-70739000D01*
X128574800Y-72110600D02*
X127050800Y-73634600D01*
X128574800Y-70739000D02*
X128574800Y-72110600D01*
X132606300Y-68955600D02*
X130358200Y-68955600D01*
X132488100Y-67462400D02*
X133293800Y-68268100D01*
X130632200Y-67462400D02*
X132488100Y-67462400D01*
X127900799Y-70244601D02*
X127050800Y-71094600D01*
X130632200Y-67513200D02*
X127900799Y-70244601D01*
X130632200Y-67462400D02*
X130632200Y-67513200D01*
X128252881Y-68554600D02*
X129903881Y-66903600D01*
X127050800Y-68554600D02*
X128252881Y-68554600D01*
X129903881Y-66903600D02*
X133324600Y-66903600D01*
X133793800Y-67755600D02*
X133793800Y-68268100D01*
X133793800Y-67372800D02*
X133793800Y-67755600D01*
X133324600Y-66903600D02*
X133793800Y-67372800D01*
X127050800Y-66014600D02*
X133299200Y-66014600D01*
X134293800Y-67009200D02*
X134293800Y-67755600D01*
X134293800Y-67755600D02*
X134293800Y-68268100D01*
X133299200Y-66014600D02*
X134293800Y-67009200D01*
X142163800Y-66141600D02*
X135661400Y-66141600D01*
X134793800Y-67009200D02*
X134793800Y-68268100D01*
X135661400Y-66141600D02*
X134793800Y-67009200D01*
X140639800Y-68681600D02*
X142163800Y-68681600D01*
X138963400Y-67005200D02*
X140639800Y-68681600D01*
X135293800Y-67474400D02*
X135763000Y-67005200D01*
X135763000Y-67005200D02*
X138963400Y-67005200D01*
X135293800Y-68268100D02*
X135293800Y-67474400D01*
X140563600Y-70637400D02*
X141046200Y-71120000D01*
X138607800Y-67665600D02*
X140563600Y-69621400D01*
X136423400Y-67665600D02*
X138607800Y-67665600D01*
X140563600Y-69621400D02*
X140563600Y-70637400D01*
X136016610Y-68072390D02*
X136423400Y-67665600D01*
X135989510Y-68072390D02*
X136016610Y-68072390D01*
X135793800Y-68268100D02*
X135989510Y-68072390D01*
X142062200Y-71120000D02*
X142163800Y-71221600D01*
X141046200Y-71120000D02*
X142062200Y-71120000D01*
X139801600Y-71399400D02*
X142163800Y-73761600D01*
X139801600Y-69977000D02*
X139801600Y-71399400D01*
X138780200Y-68955600D02*
X139801600Y-69977000D01*
X136481300Y-68955600D02*
X138780200Y-68955600D01*
X136481300Y-69455600D02*
X138392600Y-69455600D01*
X138392600Y-69455600D02*
X139141200Y-70204200D01*
X139141200Y-70204200D02*
X139141200Y-71958200D01*
X139141200Y-71958200D02*
X140258800Y-73075800D01*
X141782800Y-75920600D02*
X142163800Y-76301600D01*
X140258800Y-73075800D02*
X140284200Y-73075800D01*
X140284200Y-74422000D02*
X142163800Y-76301600D01*
X140284200Y-73075800D02*
X140284200Y-74422000D01*
X136993800Y-69955600D02*
X137066000Y-70027800D01*
X136481300Y-69955600D02*
X136993800Y-69955600D01*
X137066000Y-70027800D02*
X138125200Y-70027800D01*
X138125200Y-70027800D02*
X138582400Y-70485000D01*
X138582400Y-70485000D02*
X138582400Y-72313800D01*
X138582400Y-72313800D02*
X139649200Y-73380600D01*
X139649200Y-73380600D02*
X139649200Y-74930000D01*
X139649200Y-74930000D02*
X140817600Y-76098400D01*
X140817600Y-77495400D02*
X142163800Y-78841600D01*
X140817600Y-76098400D02*
X140817600Y-77495400D01*
X136825800Y-70455600D02*
X136855200Y-70485000D01*
X136481300Y-70455600D02*
X136825800Y-70455600D01*
X136855200Y-70485000D02*
X137668000Y-70485000D01*
X137668000Y-70485000D02*
X138074400Y-70891400D01*
X138074400Y-70891400D02*
X138074400Y-72771000D01*
X138074400Y-72771000D02*
X139199190Y-73895790D01*
X139199190Y-73895790D02*
X139199190Y-75394390D01*
X140367590Y-76562790D02*
X140367590Y-80271190D01*
X139199190Y-75394390D02*
X140367590Y-76562790D01*
X140367590Y-80271190D02*
X141274800Y-81178400D01*
X141960600Y-81178400D02*
X142163800Y-81381600D01*
X141274800Y-81178400D02*
X141960600Y-81178400D01*
X136481300Y-70955600D02*
X137275000Y-70955600D01*
X137275000Y-70955600D02*
X137515600Y-71196200D01*
X137515600Y-71450200D02*
X137617200Y-71551800D01*
X137515600Y-71196200D02*
X137515600Y-71450200D01*
X137617200Y-71551800D02*
X137617200Y-73126600D01*
X137617200Y-73126600D02*
X138633200Y-74142600D01*
X138633200Y-74142600D02*
X138633200Y-76377800D01*
X140150799Y-81908599D02*
X141478000Y-83235800D01*
X141478000Y-83235800D02*
X142163800Y-83921600D01*
X140049199Y-81908599D02*
X140150799Y-81908599D01*
X140462000Y-82219800D02*
X141478000Y-83235800D01*
X139192000Y-76936600D02*
X139649200Y-77393800D01*
X138633200Y-76377800D02*
X139192000Y-76936600D01*
X139192000Y-76936600D02*
X139293600Y-77038200D01*
X139649200Y-77393800D02*
X139293600Y-77038200D01*
X139649200Y-81508600D02*
X140049199Y-81908599D01*
X139649200Y-77393800D02*
X139649200Y-81508600D01*
X137614900Y-81125300D02*
X138049000Y-81559400D01*
X137614900Y-79578200D02*
X137614900Y-81125300D01*
X140258800Y-84556600D02*
X142163800Y-86461600D01*
X140258800Y-83312000D02*
X140258800Y-84556600D01*
X138843590Y-81896790D02*
X140258800Y-83312000D01*
X136481300Y-71455600D02*
X136481300Y-72778100D01*
X138843590Y-77629590D02*
X138843590Y-81896790D01*
X138023600Y-74320400D02*
X138023600Y-76809600D01*
X138023600Y-76809600D02*
X138843590Y-77629590D01*
X136481300Y-72778100D02*
X138023600Y-74320400D01*
X135793800Y-72143100D02*
X135793800Y-72801800D01*
X137573590Y-77502590D02*
X137769600Y-77698600D01*
X137573590Y-74581590D02*
X137573590Y-77502590D01*
X135793800Y-72801800D02*
X137573590Y-74581590D01*
X135293800Y-73622600D02*
X135610600Y-73939400D01*
X135293800Y-72143100D02*
X135293800Y-73622600D01*
D20*
G36*
X132793201Y-90054268D02*
G01*
X132789524Y-90091600D01*
X132793201Y-90128933D01*
X132804198Y-90240586D01*
X132813944Y-90272714D01*
X132847654Y-90383846D01*
X132918226Y-90515876D01*
X132963208Y-90570686D01*
X133013200Y-90631601D01*
X133042198Y-90655399D01*
X133233996Y-90847197D01*
X133257799Y-90876201D01*
X133373524Y-90971174D01*
X133409728Y-90990526D01*
X133409728Y-91086200D01*
X133421988Y-91210682D01*
X133458298Y-91330380D01*
X133517263Y-91440694D01*
X133596615Y-91537385D01*
X133693306Y-91616737D01*
X133803620Y-91675702D01*
X133923318Y-91712012D01*
X134037800Y-91723287D01*
X134037801Y-92784873D01*
X133972766Y-92804601D01*
X133714786Y-92942494D01*
X133488666Y-93128066D01*
X133303094Y-93354186D01*
X133268599Y-93418723D01*
X133198978Y-93301845D01*
X133004069Y-93085612D01*
X132770720Y-92911559D01*
X132507899Y-92786375D01*
X132360690Y-92741724D01*
X132130800Y-92863045D01*
X132130800Y-94056200D01*
X132150800Y-94056200D01*
X132150800Y-94310200D01*
X132130800Y-94310200D01*
X132130800Y-95503355D01*
X132360690Y-95624676D01*
X132507899Y-95580025D01*
X132770720Y-95454841D01*
X133004069Y-95280788D01*
X133198978Y-95064555D01*
X133268599Y-94947677D01*
X133303094Y-95012214D01*
X133488666Y-95238334D01*
X133714786Y-95423906D01*
X133972766Y-95561799D01*
X134252689Y-95646713D01*
X134470850Y-95668200D01*
X134616750Y-95668200D01*
X134834911Y-95646713D01*
X135114834Y-95561799D01*
X135372814Y-95423906D01*
X135598934Y-95238334D01*
X135623407Y-95208513D01*
X135644298Y-95277380D01*
X135703263Y-95387694D01*
X135782615Y-95484385D01*
X135879306Y-95563737D01*
X135989620Y-95622702D01*
X136109318Y-95659012D01*
X136233800Y-95671272D01*
X137933800Y-95671272D01*
X138058282Y-95659012D01*
X138177980Y-95622702D01*
X138288294Y-95563737D01*
X138384985Y-95484385D01*
X138464337Y-95387694D01*
X138523302Y-95277380D01*
X138559612Y-95157682D01*
X138568425Y-95068200D01*
X141052422Y-95068200D01*
X141108666Y-95136734D01*
X141334786Y-95322306D01*
X141592766Y-95460199D01*
X141872689Y-95545113D01*
X142090850Y-95566600D01*
X142236750Y-95566600D01*
X142454911Y-95545113D01*
X142734834Y-95460199D01*
X142992814Y-95322306D01*
X143218934Y-95136734D01*
X143404506Y-94910614D01*
X143542399Y-94652634D01*
X143591101Y-94492084D01*
X143591583Y-97770255D01*
X125728271Y-97774986D01*
X125721882Y-94601267D01*
X125779159Y-94721520D01*
X125953212Y-94954869D01*
X126169445Y-95149778D01*
X126419548Y-95298757D01*
X126693909Y-95396081D01*
X126923800Y-95275414D01*
X126923800Y-94081600D01*
X127177800Y-94081600D01*
X127177800Y-95275414D01*
X127407691Y-95396081D01*
X127682052Y-95298757D01*
X127932155Y-95149778D01*
X128148388Y-94954869D01*
X128322441Y-94721520D01*
X128408857Y-94540091D01*
X130562319Y-94540091D01*
X130659643Y-94814452D01*
X130808622Y-95064555D01*
X131003531Y-95280788D01*
X131236880Y-95454841D01*
X131499701Y-95580025D01*
X131646910Y-95624676D01*
X131876800Y-95503355D01*
X131876800Y-94310200D01*
X130682986Y-94310200D01*
X130562319Y-94540091D01*
X128408857Y-94540091D01*
X128447625Y-94458699D01*
X128492276Y-94311490D01*
X128370955Y-94081600D01*
X127177800Y-94081600D01*
X126923800Y-94081600D01*
X126903800Y-94081600D01*
X126903800Y-93827600D01*
X126923800Y-93827600D01*
X126923800Y-93807600D01*
X127177800Y-93807600D01*
X127177800Y-93827600D01*
X128370955Y-93827600D01*
X128371636Y-93826309D01*
X130562319Y-93826309D01*
X130682986Y-94056200D01*
X131876800Y-94056200D01*
X131876800Y-92863045D01*
X131646910Y-92741724D01*
X131499701Y-92786375D01*
X131236880Y-92911559D01*
X131003531Y-93085612D01*
X130808622Y-93301845D01*
X130659643Y-93551948D01*
X130562319Y-93826309D01*
X128371636Y-93826309D01*
X128492276Y-93597710D01*
X128447625Y-93450501D01*
X128322441Y-93187680D01*
X128148388Y-92954331D01*
X127932155Y-92759422D01*
X127815277Y-92689801D01*
X127879814Y-92655306D01*
X128105934Y-92469734D01*
X128291506Y-92243614D01*
X128429399Y-91985634D01*
X128514313Y-91705711D01*
X128542985Y-91414600D01*
X128520046Y-91181700D01*
X130013646Y-91181700D01*
X130022272Y-91269285D01*
X130072453Y-91434709D01*
X130153942Y-91587164D01*
X130263608Y-91720792D01*
X130397236Y-91830458D01*
X130549691Y-91911947D01*
X130715115Y-91962128D01*
X130887150Y-91979072D01*
X131799650Y-91979072D01*
X131971685Y-91962128D01*
X132137109Y-91911947D01*
X132289564Y-91830458D01*
X132423192Y-91720792D01*
X132532858Y-91587164D01*
X132614347Y-91434709D01*
X132664528Y-91269285D01*
X132681472Y-91097250D01*
X132681472Y-90609750D01*
X132664528Y-90437715D01*
X132614347Y-90272291D01*
X132532858Y-90119836D01*
X132423192Y-89986208D01*
X132337644Y-89916000D01*
X132423192Y-89845792D01*
X132532858Y-89712164D01*
X132614347Y-89559709D01*
X132664528Y-89394285D01*
X132681472Y-89222250D01*
X132681472Y-89152000D01*
X132793200Y-89152000D01*
X132793201Y-90054268D01*
X132793201Y-90054268D01*
G37*
X132793201Y-90054268D02*
X132789524Y-90091600D01*
X132793201Y-90128933D01*
X132804198Y-90240586D01*
X132813944Y-90272714D01*
X132847654Y-90383846D01*
X132918226Y-90515876D01*
X132963208Y-90570686D01*
X133013200Y-90631601D01*
X133042198Y-90655399D01*
X133233996Y-90847197D01*
X133257799Y-90876201D01*
X133373524Y-90971174D01*
X133409728Y-90990526D01*
X133409728Y-91086200D01*
X133421988Y-91210682D01*
X133458298Y-91330380D01*
X133517263Y-91440694D01*
X133596615Y-91537385D01*
X133693306Y-91616737D01*
X133803620Y-91675702D01*
X133923318Y-91712012D01*
X134037800Y-91723287D01*
X134037801Y-92784873D01*
X133972766Y-92804601D01*
X133714786Y-92942494D01*
X133488666Y-93128066D01*
X133303094Y-93354186D01*
X133268599Y-93418723D01*
X133198978Y-93301845D01*
X133004069Y-93085612D01*
X132770720Y-92911559D01*
X132507899Y-92786375D01*
X132360690Y-92741724D01*
X132130800Y-92863045D01*
X132130800Y-94056200D01*
X132150800Y-94056200D01*
X132150800Y-94310200D01*
X132130800Y-94310200D01*
X132130800Y-95503355D01*
X132360690Y-95624676D01*
X132507899Y-95580025D01*
X132770720Y-95454841D01*
X133004069Y-95280788D01*
X133198978Y-95064555D01*
X133268599Y-94947677D01*
X133303094Y-95012214D01*
X133488666Y-95238334D01*
X133714786Y-95423906D01*
X133972766Y-95561799D01*
X134252689Y-95646713D01*
X134470850Y-95668200D01*
X134616750Y-95668200D01*
X134834911Y-95646713D01*
X135114834Y-95561799D01*
X135372814Y-95423906D01*
X135598934Y-95238334D01*
X135623407Y-95208513D01*
X135644298Y-95277380D01*
X135703263Y-95387694D01*
X135782615Y-95484385D01*
X135879306Y-95563737D01*
X135989620Y-95622702D01*
X136109318Y-95659012D01*
X136233800Y-95671272D01*
X137933800Y-95671272D01*
X138058282Y-95659012D01*
X138177980Y-95622702D01*
X138288294Y-95563737D01*
X138384985Y-95484385D01*
X138464337Y-95387694D01*
X138523302Y-95277380D01*
X138559612Y-95157682D01*
X138568425Y-95068200D01*
X141052422Y-95068200D01*
X141108666Y-95136734D01*
X141334786Y-95322306D01*
X141592766Y-95460199D01*
X141872689Y-95545113D01*
X142090850Y-95566600D01*
X142236750Y-95566600D01*
X142454911Y-95545113D01*
X142734834Y-95460199D01*
X142992814Y-95322306D01*
X143218934Y-95136734D01*
X143404506Y-94910614D01*
X143542399Y-94652634D01*
X143591101Y-94492084D01*
X143591583Y-97770255D01*
X125728271Y-97774986D01*
X125721882Y-94601267D01*
X125779159Y-94721520D01*
X125953212Y-94954869D01*
X126169445Y-95149778D01*
X126419548Y-95298757D01*
X126693909Y-95396081D01*
X126923800Y-95275414D01*
X126923800Y-94081600D01*
X127177800Y-94081600D01*
X127177800Y-95275414D01*
X127407691Y-95396081D01*
X127682052Y-95298757D01*
X127932155Y-95149778D01*
X128148388Y-94954869D01*
X128322441Y-94721520D01*
X128408857Y-94540091D01*
X130562319Y-94540091D01*
X130659643Y-94814452D01*
X130808622Y-95064555D01*
X131003531Y-95280788D01*
X131236880Y-95454841D01*
X131499701Y-95580025D01*
X131646910Y-95624676D01*
X131876800Y-95503355D01*
X131876800Y-94310200D01*
X130682986Y-94310200D01*
X130562319Y-94540091D01*
X128408857Y-94540091D01*
X128447625Y-94458699D01*
X128492276Y-94311490D01*
X128370955Y-94081600D01*
X127177800Y-94081600D01*
X126923800Y-94081600D01*
X126903800Y-94081600D01*
X126903800Y-93827600D01*
X126923800Y-93827600D01*
X126923800Y-93807600D01*
X127177800Y-93807600D01*
X127177800Y-93827600D01*
X128370955Y-93827600D01*
X128371636Y-93826309D01*
X130562319Y-93826309D01*
X130682986Y-94056200D01*
X131876800Y-94056200D01*
X131876800Y-92863045D01*
X131646910Y-92741724D01*
X131499701Y-92786375D01*
X131236880Y-92911559D01*
X131003531Y-93085612D01*
X130808622Y-93301845D01*
X130659643Y-93551948D01*
X130562319Y-93826309D01*
X128371636Y-93826309D01*
X128492276Y-93597710D01*
X128447625Y-93450501D01*
X128322441Y-93187680D01*
X128148388Y-92954331D01*
X127932155Y-92759422D01*
X127815277Y-92689801D01*
X127879814Y-92655306D01*
X128105934Y-92469734D01*
X128291506Y-92243614D01*
X128429399Y-91985634D01*
X128514313Y-91705711D01*
X128542985Y-91414600D01*
X128520046Y-91181700D01*
X130013646Y-91181700D01*
X130022272Y-91269285D01*
X130072453Y-91434709D01*
X130153942Y-91587164D01*
X130263608Y-91720792D01*
X130397236Y-91830458D01*
X130549691Y-91911947D01*
X130715115Y-91962128D01*
X130887150Y-91979072D01*
X131799650Y-91979072D01*
X131971685Y-91962128D01*
X132137109Y-91911947D01*
X132289564Y-91830458D01*
X132423192Y-91720792D01*
X132532858Y-91587164D01*
X132614347Y-91434709D01*
X132664528Y-91269285D01*
X132681472Y-91097250D01*
X132681472Y-90609750D01*
X132664528Y-90437715D01*
X132614347Y-90272291D01*
X132532858Y-90119836D01*
X132423192Y-89986208D01*
X132337644Y-89916000D01*
X132423192Y-89845792D01*
X132532858Y-89712164D01*
X132614347Y-89559709D01*
X132664528Y-89394285D01*
X132681472Y-89222250D01*
X132681472Y-89152000D01*
X132793200Y-89152000D01*
X132793201Y-90054268D01*
G36*
X137350208Y-85222992D02*
G01*
X137435756Y-85293200D01*
X137371785Y-85345700D01*
X136869426Y-85345700D01*
X136786656Y-85290395D01*
X136598298Y-85212374D01*
X136398339Y-85172600D01*
X136194461Y-85172600D01*
X135994502Y-85212374D01*
X135806144Y-85290395D01*
X135636626Y-85403663D01*
X135492463Y-85547826D01*
X135379195Y-85717344D01*
X135301174Y-85905702D01*
X135261400Y-86105661D01*
X135261400Y-86309539D01*
X135301174Y-86509498D01*
X135379195Y-86697856D01*
X135492463Y-86867374D01*
X135636626Y-87011537D01*
X135806144Y-87124805D01*
X135994502Y-87202826D01*
X136194461Y-87242600D01*
X136398339Y-87242600D01*
X136598298Y-87202826D01*
X136786656Y-87124805D01*
X136800283Y-87115700D01*
X137371785Y-87115700D01*
X137483836Y-87207658D01*
X137636291Y-87289147D01*
X137801715Y-87339328D01*
X137973750Y-87356272D01*
X138886250Y-87356272D01*
X139018200Y-87343276D01*
X139018200Y-87835448D01*
X138880485Y-87793672D01*
X138708450Y-87776728D01*
X137795950Y-87776728D01*
X137623915Y-87793672D01*
X137458491Y-87843853D01*
X137306036Y-87925342D01*
X137172408Y-88035008D01*
X137167737Y-88040700D01*
X135628274Y-88040700D01*
X135539932Y-88031999D01*
X135539921Y-88031999D01*
X135502599Y-88028323D01*
X135465277Y-88031999D01*
X134524359Y-88031999D01*
X134470405Y-87901744D01*
X134357137Y-87732226D01*
X134212974Y-87588063D01*
X134043456Y-87474795D01*
X133855098Y-87396774D01*
X133655139Y-87357000D01*
X133451261Y-87357000D01*
X133251302Y-87396774D01*
X133062944Y-87474795D01*
X132893426Y-87588063D01*
X132849489Y-87632000D01*
X131560823Y-87632000D01*
X131523500Y-87628324D01*
X131486177Y-87632000D01*
X131486167Y-87632000D01*
X131374514Y-87642997D01*
X131231253Y-87686454D01*
X131099224Y-87757026D01*
X130983499Y-87851999D01*
X130982737Y-87852928D01*
X130887150Y-87852928D01*
X130715115Y-87869872D01*
X130554000Y-87918746D01*
X130554000Y-87243366D01*
X130668800Y-87254672D01*
X131083050Y-87251600D01*
X131241800Y-87092850D01*
X131241800Y-86256100D01*
X131495800Y-86256100D01*
X131495800Y-87092850D01*
X131654550Y-87251600D01*
X132068800Y-87254672D01*
X132193282Y-87242412D01*
X132312980Y-87206102D01*
X132423294Y-87147137D01*
X132519985Y-87067785D01*
X132599337Y-86971094D01*
X132658302Y-86860780D01*
X132694612Y-86741082D01*
X132706872Y-86616600D01*
X132703800Y-86414850D01*
X132545050Y-86256100D01*
X131495800Y-86256100D01*
X131241800Y-86256100D01*
X131221800Y-86256100D01*
X131221800Y-86002100D01*
X131241800Y-86002100D01*
X131241800Y-85982100D01*
X131495800Y-85982100D01*
X131495800Y-86002100D01*
X132545050Y-86002100D01*
X132703800Y-85843350D01*
X132706872Y-85641600D01*
X132694612Y-85517118D01*
X132658302Y-85397420D01*
X132599337Y-85287106D01*
X132519985Y-85190415D01*
X132442236Y-85126608D01*
X132448592Y-85121392D01*
X132453263Y-85115700D01*
X137262155Y-85115700D01*
X137350208Y-85222992D01*
X137350208Y-85222992D01*
G37*
X137350208Y-85222992D02*
X137435756Y-85293200D01*
X137371785Y-85345700D01*
X136869426Y-85345700D01*
X136786656Y-85290395D01*
X136598298Y-85212374D01*
X136398339Y-85172600D01*
X136194461Y-85172600D01*
X135994502Y-85212374D01*
X135806144Y-85290395D01*
X135636626Y-85403663D01*
X135492463Y-85547826D01*
X135379195Y-85717344D01*
X135301174Y-85905702D01*
X135261400Y-86105661D01*
X135261400Y-86309539D01*
X135301174Y-86509498D01*
X135379195Y-86697856D01*
X135492463Y-86867374D01*
X135636626Y-87011537D01*
X135806144Y-87124805D01*
X135994502Y-87202826D01*
X136194461Y-87242600D01*
X136398339Y-87242600D01*
X136598298Y-87202826D01*
X136786656Y-87124805D01*
X136800283Y-87115700D01*
X137371785Y-87115700D01*
X137483836Y-87207658D01*
X137636291Y-87289147D01*
X137801715Y-87339328D01*
X137973750Y-87356272D01*
X138886250Y-87356272D01*
X139018200Y-87343276D01*
X139018200Y-87835448D01*
X138880485Y-87793672D01*
X138708450Y-87776728D01*
X137795950Y-87776728D01*
X137623915Y-87793672D01*
X137458491Y-87843853D01*
X137306036Y-87925342D01*
X137172408Y-88035008D01*
X137167737Y-88040700D01*
X135628274Y-88040700D01*
X135539932Y-88031999D01*
X135539921Y-88031999D01*
X135502599Y-88028323D01*
X135465277Y-88031999D01*
X134524359Y-88031999D01*
X134470405Y-87901744D01*
X134357137Y-87732226D01*
X134212974Y-87588063D01*
X134043456Y-87474795D01*
X133855098Y-87396774D01*
X133655139Y-87357000D01*
X133451261Y-87357000D01*
X133251302Y-87396774D01*
X133062944Y-87474795D01*
X132893426Y-87588063D01*
X132849489Y-87632000D01*
X131560823Y-87632000D01*
X131523500Y-87628324D01*
X131486177Y-87632000D01*
X131486167Y-87632000D01*
X131374514Y-87642997D01*
X131231253Y-87686454D01*
X131099224Y-87757026D01*
X130983499Y-87851999D01*
X130982737Y-87852928D01*
X130887150Y-87852928D01*
X130715115Y-87869872D01*
X130554000Y-87918746D01*
X130554000Y-87243366D01*
X130668800Y-87254672D01*
X131083050Y-87251600D01*
X131241800Y-87092850D01*
X131241800Y-86256100D01*
X131495800Y-86256100D01*
X131495800Y-87092850D01*
X131654550Y-87251600D01*
X132068800Y-87254672D01*
X132193282Y-87242412D01*
X132312980Y-87206102D01*
X132423294Y-87147137D01*
X132519985Y-87067785D01*
X132599337Y-86971094D01*
X132658302Y-86860780D01*
X132694612Y-86741082D01*
X132706872Y-86616600D01*
X132703800Y-86414850D01*
X132545050Y-86256100D01*
X131495800Y-86256100D01*
X131241800Y-86256100D01*
X131221800Y-86256100D01*
X131221800Y-86002100D01*
X131241800Y-86002100D01*
X131241800Y-85982100D01*
X131495800Y-85982100D01*
X131495800Y-86002100D01*
X132545050Y-86002100D01*
X132703800Y-85843350D01*
X132706872Y-85641600D01*
X132694612Y-85517118D01*
X132658302Y-85397420D01*
X132599337Y-85287106D01*
X132519985Y-85190415D01*
X132442236Y-85126608D01*
X132448592Y-85121392D01*
X132453263Y-85115700D01*
X137262155Y-85115700D01*
X137350208Y-85222992D01*
G36*
X132006100Y-79451200D02*
G01*
X132026100Y-79451200D01*
X132026100Y-79705200D01*
X132006100Y-79705200D01*
X132006100Y-80754450D01*
X132164850Y-80913200D01*
X132366600Y-80916272D01*
X132491082Y-80904012D01*
X132610780Y-80867702D01*
X132721094Y-80808737D01*
X132817785Y-80729385D01*
X132881592Y-80651636D01*
X132886808Y-80657992D01*
X133020436Y-80767658D01*
X133172891Y-80849147D01*
X133338315Y-80899328D01*
X133510350Y-80916272D01*
X133997850Y-80916272D01*
X134169885Y-80899328D01*
X134335309Y-80849147D01*
X134487764Y-80767658D01*
X134621392Y-80657992D01*
X134731058Y-80524364D01*
X134747000Y-80494539D01*
X134762942Y-80524364D01*
X134872608Y-80657992D01*
X135006236Y-80767658D01*
X135158691Y-80849147D01*
X135324115Y-80899328D01*
X135496150Y-80916272D01*
X135983650Y-80916272D01*
X136155685Y-80899328D01*
X136321109Y-80849147D01*
X136473564Y-80767658D01*
X136607192Y-80657992D01*
X136677400Y-80572444D01*
X136747608Y-80657992D01*
X136854901Y-80746045D01*
X136854901Y-81087968D01*
X136851224Y-81125300D01*
X136854901Y-81162633D01*
X136865196Y-81267153D01*
X136865898Y-81274285D01*
X136909354Y-81417546D01*
X136979926Y-81549576D01*
X137014000Y-81591095D01*
X137014000Y-81661339D01*
X137053774Y-81861298D01*
X137131795Y-82049656D01*
X137245063Y-82219174D01*
X137389226Y-82363337D01*
X137558744Y-82476605D01*
X137747102Y-82554626D01*
X137947061Y-82594400D01*
X138150939Y-82594400D01*
X138350898Y-82554626D01*
X138404445Y-82532446D01*
X139145539Y-83273540D01*
X139058285Y-83247072D01*
X138886250Y-83230128D01*
X137973750Y-83230128D01*
X137801715Y-83247072D01*
X137636291Y-83297253D01*
X137483836Y-83378742D01*
X137350208Y-83488408D01*
X137262155Y-83595700D01*
X136102387Y-83595700D01*
X136137302Y-83530380D01*
X136173612Y-83410682D01*
X136185872Y-83286200D01*
X136182800Y-82821950D01*
X136024050Y-82663200D01*
X134924800Y-82663200D01*
X134924800Y-82683200D01*
X134670800Y-82683200D01*
X134670800Y-82663200D01*
X133571550Y-82663200D01*
X133412800Y-82821950D01*
X133409728Y-83286200D01*
X133421988Y-83410682D01*
X133458298Y-83530380D01*
X133493213Y-83595700D01*
X132598487Y-83595700D01*
X132558258Y-83520436D01*
X132448592Y-83386808D01*
X132314964Y-83277142D01*
X132162509Y-83195653D01*
X131997085Y-83145472D01*
X131825050Y-83128528D01*
X130976074Y-83128528D01*
X131117802Y-82986799D01*
X131146801Y-82963001D01*
X131241774Y-82847276D01*
X131312346Y-82715247D01*
X131355803Y-82571986D01*
X131366800Y-82460333D01*
X131366800Y-82460325D01*
X131370476Y-82423000D01*
X131366800Y-82385675D01*
X131366800Y-81786200D01*
X133409728Y-81786200D01*
X133412800Y-82250450D01*
X133571550Y-82409200D01*
X134670800Y-82409200D01*
X134670800Y-81309950D01*
X134924800Y-81309950D01*
X134924800Y-82409200D01*
X136024050Y-82409200D01*
X136182800Y-82250450D01*
X136185872Y-81786200D01*
X136173612Y-81661718D01*
X136137302Y-81542020D01*
X136078337Y-81431706D01*
X135998985Y-81335015D01*
X135902294Y-81255663D01*
X135791980Y-81196698D01*
X135672282Y-81160388D01*
X135547800Y-81148128D01*
X135083550Y-81151200D01*
X134924800Y-81309950D01*
X134670800Y-81309950D01*
X134512050Y-81151200D01*
X134047800Y-81148128D01*
X133923318Y-81160388D01*
X133803620Y-81196698D01*
X133693306Y-81255663D01*
X133596615Y-81335015D01*
X133517263Y-81431706D01*
X133458298Y-81542020D01*
X133421988Y-81661718D01*
X133409728Y-81786200D01*
X131366800Y-81786200D01*
X131366800Y-80913829D01*
X131391600Y-80916272D01*
X131593350Y-80913200D01*
X131752100Y-80754450D01*
X131752100Y-79705200D01*
X131732100Y-79705200D01*
X131732100Y-79451200D01*
X131752100Y-79451200D01*
X131752100Y-79431200D01*
X132006100Y-79431200D01*
X132006100Y-79451200D01*
X132006100Y-79451200D01*
G37*
X132006100Y-79451200D02*
X132026100Y-79451200D01*
X132026100Y-79705200D01*
X132006100Y-79705200D01*
X132006100Y-80754450D01*
X132164850Y-80913200D01*
X132366600Y-80916272D01*
X132491082Y-80904012D01*
X132610780Y-80867702D01*
X132721094Y-80808737D01*
X132817785Y-80729385D01*
X132881592Y-80651636D01*
X132886808Y-80657992D01*
X133020436Y-80767658D01*
X133172891Y-80849147D01*
X133338315Y-80899328D01*
X133510350Y-80916272D01*
X133997850Y-80916272D01*
X134169885Y-80899328D01*
X134335309Y-80849147D01*
X134487764Y-80767658D01*
X134621392Y-80657992D01*
X134731058Y-80524364D01*
X134747000Y-80494539D01*
X134762942Y-80524364D01*
X134872608Y-80657992D01*
X135006236Y-80767658D01*
X135158691Y-80849147D01*
X135324115Y-80899328D01*
X135496150Y-80916272D01*
X135983650Y-80916272D01*
X136155685Y-80899328D01*
X136321109Y-80849147D01*
X136473564Y-80767658D01*
X136607192Y-80657992D01*
X136677400Y-80572444D01*
X136747608Y-80657992D01*
X136854901Y-80746045D01*
X136854901Y-81087968D01*
X136851224Y-81125300D01*
X136854901Y-81162633D01*
X136865196Y-81267153D01*
X136865898Y-81274285D01*
X136909354Y-81417546D01*
X136979926Y-81549576D01*
X137014000Y-81591095D01*
X137014000Y-81661339D01*
X137053774Y-81861298D01*
X137131795Y-82049656D01*
X137245063Y-82219174D01*
X137389226Y-82363337D01*
X137558744Y-82476605D01*
X137747102Y-82554626D01*
X137947061Y-82594400D01*
X138150939Y-82594400D01*
X138350898Y-82554626D01*
X138404445Y-82532446D01*
X139145539Y-83273540D01*
X139058285Y-83247072D01*
X138886250Y-83230128D01*
X137973750Y-83230128D01*
X137801715Y-83247072D01*
X137636291Y-83297253D01*
X137483836Y-83378742D01*
X137350208Y-83488408D01*
X137262155Y-83595700D01*
X136102387Y-83595700D01*
X136137302Y-83530380D01*
X136173612Y-83410682D01*
X136185872Y-83286200D01*
X136182800Y-82821950D01*
X136024050Y-82663200D01*
X134924800Y-82663200D01*
X134924800Y-82683200D01*
X134670800Y-82683200D01*
X134670800Y-82663200D01*
X133571550Y-82663200D01*
X133412800Y-82821950D01*
X133409728Y-83286200D01*
X133421988Y-83410682D01*
X133458298Y-83530380D01*
X133493213Y-83595700D01*
X132598487Y-83595700D01*
X132558258Y-83520436D01*
X132448592Y-83386808D01*
X132314964Y-83277142D01*
X132162509Y-83195653D01*
X131997085Y-83145472D01*
X131825050Y-83128528D01*
X130976074Y-83128528D01*
X131117802Y-82986799D01*
X131146801Y-82963001D01*
X131241774Y-82847276D01*
X131312346Y-82715247D01*
X131355803Y-82571986D01*
X131366800Y-82460333D01*
X131366800Y-82460325D01*
X131370476Y-82423000D01*
X131366800Y-82385675D01*
X131366800Y-81786200D01*
X133409728Y-81786200D01*
X133412800Y-82250450D01*
X133571550Y-82409200D01*
X134670800Y-82409200D01*
X134670800Y-81309950D01*
X134924800Y-81309950D01*
X134924800Y-82409200D01*
X136024050Y-82409200D01*
X136182800Y-82250450D01*
X136185872Y-81786200D01*
X136173612Y-81661718D01*
X136137302Y-81542020D01*
X136078337Y-81431706D01*
X135998985Y-81335015D01*
X135902294Y-81255663D01*
X135791980Y-81196698D01*
X135672282Y-81160388D01*
X135547800Y-81148128D01*
X135083550Y-81151200D01*
X134924800Y-81309950D01*
X134670800Y-81309950D01*
X134512050Y-81151200D01*
X134047800Y-81148128D01*
X133923318Y-81160388D01*
X133803620Y-81196698D01*
X133693306Y-81255663D01*
X133596615Y-81335015D01*
X133517263Y-81431706D01*
X133458298Y-81542020D01*
X133421988Y-81661718D01*
X133409728Y-81786200D01*
X131366800Y-81786200D01*
X131366800Y-80913829D01*
X131391600Y-80916272D01*
X131593350Y-80913200D01*
X131752100Y-80754450D01*
X131752100Y-79705200D01*
X131732100Y-79705200D01*
X131732100Y-79451200D01*
X131752100Y-79451200D01*
X131752100Y-79431200D01*
X132006100Y-79431200D01*
X132006100Y-79451200D01*
G36*
X133733300Y-75920600D02*
G01*
X133753300Y-75920600D01*
X133753300Y-76174600D01*
X133733300Y-76174600D01*
X133733300Y-77223850D01*
X133892050Y-77382600D01*
X134093800Y-77385672D01*
X134218282Y-77373412D01*
X134337980Y-77337102D01*
X134448294Y-77278137D01*
X134544985Y-77198785D01*
X134608792Y-77121036D01*
X134614008Y-77127392D01*
X134649400Y-77156438D01*
X134649400Y-77261745D01*
X134617195Y-77309944D01*
X134539174Y-77498302D01*
X134499400Y-77698261D01*
X134499400Y-77902139D01*
X134539174Y-78102098D01*
X134617195Y-78290456D01*
X134730463Y-78459974D01*
X134825860Y-78555371D01*
X134762942Y-78632036D01*
X134747000Y-78661861D01*
X134731058Y-78632036D01*
X134621392Y-78498408D01*
X134487764Y-78388742D01*
X134335309Y-78307253D01*
X134169885Y-78257072D01*
X133997850Y-78240128D01*
X133510350Y-78240128D01*
X133338315Y-78257072D01*
X133172891Y-78307253D01*
X133020436Y-78388742D01*
X132886808Y-78498408D01*
X132881592Y-78504764D01*
X132817785Y-78427015D01*
X132721094Y-78347663D01*
X132610780Y-78288698D01*
X132491082Y-78252388D01*
X132366600Y-78240128D01*
X132307576Y-78241027D01*
X132591008Y-77957595D01*
X132620001Y-77933801D01*
X132643795Y-77904808D01*
X132643799Y-77904804D01*
X132714973Y-77818077D01*
X132714974Y-77818076D01*
X132785546Y-77686047D01*
X132829003Y-77542786D01*
X132840000Y-77431133D01*
X132840000Y-77431124D01*
X132843676Y-77393801D01*
X132840000Y-77356478D01*
X132840000Y-77318597D01*
X132874620Y-77337102D01*
X132994318Y-77373412D01*
X133118800Y-77385672D01*
X133320550Y-77382600D01*
X133479300Y-77223850D01*
X133479300Y-76174600D01*
X133459300Y-76174600D01*
X133459300Y-75920600D01*
X133479300Y-75920600D01*
X133479300Y-75900600D01*
X133733300Y-75900600D01*
X133733300Y-75920600D01*
X133733300Y-75920600D01*
G37*
X133733300Y-75920600D02*
X133753300Y-75920600D01*
X133753300Y-76174600D01*
X133733300Y-76174600D01*
X133733300Y-77223850D01*
X133892050Y-77382600D01*
X134093800Y-77385672D01*
X134218282Y-77373412D01*
X134337980Y-77337102D01*
X134448294Y-77278137D01*
X134544985Y-77198785D01*
X134608792Y-77121036D01*
X134614008Y-77127392D01*
X134649400Y-77156438D01*
X134649400Y-77261745D01*
X134617195Y-77309944D01*
X134539174Y-77498302D01*
X134499400Y-77698261D01*
X134499400Y-77902139D01*
X134539174Y-78102098D01*
X134617195Y-78290456D01*
X134730463Y-78459974D01*
X134825860Y-78555371D01*
X134762942Y-78632036D01*
X134747000Y-78661861D01*
X134731058Y-78632036D01*
X134621392Y-78498408D01*
X134487764Y-78388742D01*
X134335309Y-78307253D01*
X134169885Y-78257072D01*
X133997850Y-78240128D01*
X133510350Y-78240128D01*
X133338315Y-78257072D01*
X133172891Y-78307253D01*
X133020436Y-78388742D01*
X132886808Y-78498408D01*
X132881592Y-78504764D01*
X132817785Y-78427015D01*
X132721094Y-78347663D01*
X132610780Y-78288698D01*
X132491082Y-78252388D01*
X132366600Y-78240128D01*
X132307576Y-78241027D01*
X132591008Y-77957595D01*
X132620001Y-77933801D01*
X132643795Y-77904808D01*
X132643799Y-77904804D01*
X132714973Y-77818077D01*
X132714974Y-77818076D01*
X132785546Y-77686047D01*
X132829003Y-77542786D01*
X132840000Y-77431133D01*
X132840000Y-77431124D01*
X132843676Y-77393801D01*
X132840000Y-77356478D01*
X132840000Y-77318597D01*
X132874620Y-77337102D01*
X132994318Y-77373412D01*
X133118800Y-77385672D01*
X133320550Y-77382600D01*
X133479300Y-77223850D01*
X133479300Y-76174600D01*
X133459300Y-76174600D01*
X133459300Y-75920600D01*
X133479300Y-75920600D01*
X133479300Y-75900600D01*
X133733300Y-75900600D01*
X133733300Y-75920600D01*
G36*
X134033801Y-74710442D02*
G01*
X133905811Y-74712390D01*
X134033801Y-74584401D01*
X134033801Y-74710442D01*
X134033801Y-74710442D01*
G37*
X134033801Y-74710442D02*
X133905811Y-74712390D01*
X134033801Y-74584401D01*
X134033801Y-74710442D01*
G36*
X134670800Y-70078600D02*
G01*
X134690800Y-70078600D01*
X134690800Y-70332600D01*
X134670800Y-70332600D01*
X134670800Y-70352600D01*
X134416800Y-70352600D01*
X134416800Y-70332600D01*
X134396800Y-70332600D01*
X134396800Y-70078600D01*
X134416800Y-70078600D01*
X134416800Y-70058600D01*
X134670800Y-70058600D01*
X134670800Y-70078600D01*
X134670800Y-70078600D01*
G37*
X134670800Y-70078600D02*
X134690800Y-70078600D01*
X134690800Y-70332600D01*
X134670800Y-70332600D01*
X134670800Y-70352600D01*
X134416800Y-70352600D01*
X134416800Y-70332600D01*
X134396800Y-70332600D01*
X134396800Y-70078600D01*
X134416800Y-70078600D01*
X134416800Y-70058600D01*
X134670800Y-70058600D01*
X134670800Y-70078600D01*
M02*
