G04 #@! TF.GenerationSoftware,KiCad,Pcbnew,(5.1.4-0)*
G04 #@! TF.CreationDate,2020-07-13T22:24:35+08:00*
G04 #@! TF.ProjectId,attiny3217,61747469-6e79-4333-9231-372e6b696361,rev?*
G04 #@! TF.SameCoordinates,Original*
G04 #@! TF.FileFunction,Paste,Top*
G04 #@! TF.FilePolarity,Positive*
%FSLAX46Y46*%
G04 Gerber Fmt 4.6, Leading zero omitted, Abs format (unit mm)*
G04 Created by KiCad (PCBNEW (5.1.4-0)) date 2020-07-13 22:24:35*
%MOMM*%
%LPD*%
G04 APERTURE LIST*
%ADD10C,0.100000*%
%ADD11C,0.975000*%
%ADD12R,1.500000X1.500000*%
%ADD13C,1.050000*%
%ADD14C,0.250000*%
G04 APERTURE END LIST*
D10*
G36*
X135748942Y-75348774D02*
G01*
X135772603Y-75352284D01*
X135795807Y-75358096D01*
X135818329Y-75366154D01*
X135839953Y-75376382D01*
X135860470Y-75388679D01*
X135879683Y-75402929D01*
X135897407Y-75418993D01*
X135913471Y-75436717D01*
X135927721Y-75455930D01*
X135940018Y-75476447D01*
X135950246Y-75498071D01*
X135958304Y-75520593D01*
X135964116Y-75543797D01*
X135967626Y-75567458D01*
X135968800Y-75591350D01*
X135968800Y-76503850D01*
X135967626Y-76527742D01*
X135964116Y-76551403D01*
X135958304Y-76574607D01*
X135950246Y-76597129D01*
X135940018Y-76618753D01*
X135927721Y-76639270D01*
X135913471Y-76658483D01*
X135897407Y-76676207D01*
X135879683Y-76692271D01*
X135860470Y-76706521D01*
X135839953Y-76718818D01*
X135818329Y-76729046D01*
X135795807Y-76737104D01*
X135772603Y-76742916D01*
X135748942Y-76746426D01*
X135725050Y-76747600D01*
X135237550Y-76747600D01*
X135213658Y-76746426D01*
X135189997Y-76742916D01*
X135166793Y-76737104D01*
X135144271Y-76729046D01*
X135122647Y-76718818D01*
X135102130Y-76706521D01*
X135082917Y-76692271D01*
X135065193Y-76676207D01*
X135049129Y-76658483D01*
X135034879Y-76639270D01*
X135022582Y-76618753D01*
X135012354Y-76597129D01*
X135004296Y-76574607D01*
X134998484Y-76551403D01*
X134994974Y-76527742D01*
X134993800Y-76503850D01*
X134993800Y-75591350D01*
X134994974Y-75567458D01*
X134998484Y-75543797D01*
X135004296Y-75520593D01*
X135012354Y-75498071D01*
X135022582Y-75476447D01*
X135034879Y-75455930D01*
X135049129Y-75436717D01*
X135065193Y-75418993D01*
X135082917Y-75402929D01*
X135102130Y-75388679D01*
X135122647Y-75376382D01*
X135144271Y-75366154D01*
X135166793Y-75358096D01*
X135189997Y-75352284D01*
X135213658Y-75348774D01*
X135237550Y-75347600D01*
X135725050Y-75347600D01*
X135748942Y-75348774D01*
X135748942Y-75348774D01*
G37*
D11*
X135481300Y-76047600D03*
D10*
G36*
X133873942Y-75348774D02*
G01*
X133897603Y-75352284D01*
X133920807Y-75358096D01*
X133943329Y-75366154D01*
X133964953Y-75376382D01*
X133985470Y-75388679D01*
X134004683Y-75402929D01*
X134022407Y-75418993D01*
X134038471Y-75436717D01*
X134052721Y-75455930D01*
X134065018Y-75476447D01*
X134075246Y-75498071D01*
X134083304Y-75520593D01*
X134089116Y-75543797D01*
X134092626Y-75567458D01*
X134093800Y-75591350D01*
X134093800Y-76503850D01*
X134092626Y-76527742D01*
X134089116Y-76551403D01*
X134083304Y-76574607D01*
X134075246Y-76597129D01*
X134065018Y-76618753D01*
X134052721Y-76639270D01*
X134038471Y-76658483D01*
X134022407Y-76676207D01*
X134004683Y-76692271D01*
X133985470Y-76706521D01*
X133964953Y-76718818D01*
X133943329Y-76729046D01*
X133920807Y-76737104D01*
X133897603Y-76742916D01*
X133873942Y-76746426D01*
X133850050Y-76747600D01*
X133362550Y-76747600D01*
X133338658Y-76746426D01*
X133314997Y-76742916D01*
X133291793Y-76737104D01*
X133269271Y-76729046D01*
X133247647Y-76718818D01*
X133227130Y-76706521D01*
X133207917Y-76692271D01*
X133190193Y-76676207D01*
X133174129Y-76658483D01*
X133159879Y-76639270D01*
X133147582Y-76618753D01*
X133137354Y-76597129D01*
X133129296Y-76574607D01*
X133123484Y-76551403D01*
X133119974Y-76527742D01*
X133118800Y-76503850D01*
X133118800Y-75591350D01*
X133119974Y-75567458D01*
X133123484Y-75543797D01*
X133129296Y-75520593D01*
X133137354Y-75498071D01*
X133147582Y-75476447D01*
X133159879Y-75455930D01*
X133174129Y-75436717D01*
X133190193Y-75418993D01*
X133207917Y-75402929D01*
X133227130Y-75388679D01*
X133247647Y-75376382D01*
X133269271Y-75366154D01*
X133291793Y-75358096D01*
X133314997Y-75352284D01*
X133338658Y-75348774D01*
X133362550Y-75347600D01*
X133850050Y-75347600D01*
X133873942Y-75348774D01*
X133873942Y-75348774D01*
G37*
D11*
X133606300Y-76047600D03*
D10*
G36*
X131823542Y-88492174D02*
G01*
X131847203Y-88495684D01*
X131870407Y-88501496D01*
X131892929Y-88509554D01*
X131914553Y-88519782D01*
X131935070Y-88532079D01*
X131954283Y-88546329D01*
X131972007Y-88562393D01*
X131988071Y-88580117D01*
X132002321Y-88599330D01*
X132014618Y-88619847D01*
X132024846Y-88641471D01*
X132032904Y-88663993D01*
X132038716Y-88687197D01*
X132042226Y-88710858D01*
X132043400Y-88734750D01*
X132043400Y-89222250D01*
X132042226Y-89246142D01*
X132038716Y-89269803D01*
X132032904Y-89293007D01*
X132024846Y-89315529D01*
X132014618Y-89337153D01*
X132002321Y-89357670D01*
X131988071Y-89376883D01*
X131972007Y-89394607D01*
X131954283Y-89410671D01*
X131935070Y-89424921D01*
X131914553Y-89437218D01*
X131892929Y-89447446D01*
X131870407Y-89455504D01*
X131847203Y-89461316D01*
X131823542Y-89464826D01*
X131799650Y-89466000D01*
X130887150Y-89466000D01*
X130863258Y-89464826D01*
X130839597Y-89461316D01*
X130816393Y-89455504D01*
X130793871Y-89447446D01*
X130772247Y-89437218D01*
X130751730Y-89424921D01*
X130732517Y-89410671D01*
X130714793Y-89394607D01*
X130698729Y-89376883D01*
X130684479Y-89357670D01*
X130672182Y-89337153D01*
X130661954Y-89315529D01*
X130653896Y-89293007D01*
X130648084Y-89269803D01*
X130644574Y-89246142D01*
X130643400Y-89222250D01*
X130643400Y-88734750D01*
X130644574Y-88710858D01*
X130648084Y-88687197D01*
X130653896Y-88663993D01*
X130661954Y-88641471D01*
X130672182Y-88619847D01*
X130684479Y-88599330D01*
X130698729Y-88580117D01*
X130714793Y-88562393D01*
X130732517Y-88546329D01*
X130751730Y-88532079D01*
X130772247Y-88519782D01*
X130793871Y-88509554D01*
X130816393Y-88501496D01*
X130839597Y-88495684D01*
X130863258Y-88492174D01*
X130887150Y-88491000D01*
X131799650Y-88491000D01*
X131823542Y-88492174D01*
X131823542Y-88492174D01*
G37*
D11*
X131343400Y-88978500D03*
D10*
G36*
X131823542Y-90367174D02*
G01*
X131847203Y-90370684D01*
X131870407Y-90376496D01*
X131892929Y-90384554D01*
X131914553Y-90394782D01*
X131935070Y-90407079D01*
X131954283Y-90421329D01*
X131972007Y-90437393D01*
X131988071Y-90455117D01*
X132002321Y-90474330D01*
X132014618Y-90494847D01*
X132024846Y-90516471D01*
X132032904Y-90538993D01*
X132038716Y-90562197D01*
X132042226Y-90585858D01*
X132043400Y-90609750D01*
X132043400Y-91097250D01*
X132042226Y-91121142D01*
X132038716Y-91144803D01*
X132032904Y-91168007D01*
X132024846Y-91190529D01*
X132014618Y-91212153D01*
X132002321Y-91232670D01*
X131988071Y-91251883D01*
X131972007Y-91269607D01*
X131954283Y-91285671D01*
X131935070Y-91299921D01*
X131914553Y-91312218D01*
X131892929Y-91322446D01*
X131870407Y-91330504D01*
X131847203Y-91336316D01*
X131823542Y-91339826D01*
X131799650Y-91341000D01*
X130887150Y-91341000D01*
X130863258Y-91339826D01*
X130839597Y-91336316D01*
X130816393Y-91330504D01*
X130793871Y-91322446D01*
X130772247Y-91312218D01*
X130751730Y-91299921D01*
X130732517Y-91285671D01*
X130714793Y-91269607D01*
X130698729Y-91251883D01*
X130684479Y-91232670D01*
X130672182Y-91212153D01*
X130661954Y-91190529D01*
X130653896Y-91168007D01*
X130648084Y-91144803D01*
X130644574Y-91121142D01*
X130643400Y-91097250D01*
X130643400Y-90609750D01*
X130644574Y-90585858D01*
X130648084Y-90562197D01*
X130653896Y-90538993D01*
X130661954Y-90516471D01*
X130672182Y-90494847D01*
X130684479Y-90474330D01*
X130698729Y-90455117D01*
X130714793Y-90437393D01*
X130732517Y-90421329D01*
X130751730Y-90407079D01*
X130772247Y-90394782D01*
X130793871Y-90384554D01*
X130816393Y-90376496D01*
X130839597Y-90370684D01*
X130863258Y-90367174D01*
X130887150Y-90366000D01*
X131799650Y-90366000D01*
X131823542Y-90367174D01*
X131823542Y-90367174D01*
G37*
D11*
X131343400Y-90853500D03*
D10*
G36*
X131848942Y-85642774D02*
G01*
X131872603Y-85646284D01*
X131895807Y-85652096D01*
X131918329Y-85660154D01*
X131939953Y-85670382D01*
X131960470Y-85682679D01*
X131979683Y-85696929D01*
X131997407Y-85712993D01*
X132013471Y-85730717D01*
X132027721Y-85749930D01*
X132040018Y-85770447D01*
X132050246Y-85792071D01*
X132058304Y-85814593D01*
X132064116Y-85837797D01*
X132067626Y-85861458D01*
X132068800Y-85885350D01*
X132068800Y-86372850D01*
X132067626Y-86396742D01*
X132064116Y-86420403D01*
X132058304Y-86443607D01*
X132050246Y-86466129D01*
X132040018Y-86487753D01*
X132027721Y-86508270D01*
X132013471Y-86527483D01*
X131997407Y-86545207D01*
X131979683Y-86561271D01*
X131960470Y-86575521D01*
X131939953Y-86587818D01*
X131918329Y-86598046D01*
X131895807Y-86606104D01*
X131872603Y-86611916D01*
X131848942Y-86615426D01*
X131825050Y-86616600D01*
X130912550Y-86616600D01*
X130888658Y-86615426D01*
X130864997Y-86611916D01*
X130841793Y-86606104D01*
X130819271Y-86598046D01*
X130797647Y-86587818D01*
X130777130Y-86575521D01*
X130757917Y-86561271D01*
X130740193Y-86545207D01*
X130724129Y-86527483D01*
X130709879Y-86508270D01*
X130697582Y-86487753D01*
X130687354Y-86466129D01*
X130679296Y-86443607D01*
X130673484Y-86420403D01*
X130669974Y-86396742D01*
X130668800Y-86372850D01*
X130668800Y-85885350D01*
X130669974Y-85861458D01*
X130673484Y-85837797D01*
X130679296Y-85814593D01*
X130687354Y-85792071D01*
X130697582Y-85770447D01*
X130709879Y-85749930D01*
X130724129Y-85730717D01*
X130740193Y-85712993D01*
X130757917Y-85696929D01*
X130777130Y-85682679D01*
X130797647Y-85670382D01*
X130819271Y-85660154D01*
X130841793Y-85652096D01*
X130864997Y-85646284D01*
X130888658Y-85642774D01*
X130912550Y-85641600D01*
X131825050Y-85641600D01*
X131848942Y-85642774D01*
X131848942Y-85642774D01*
G37*
D11*
X131368800Y-86129100D03*
D10*
G36*
X131848942Y-83767774D02*
G01*
X131872603Y-83771284D01*
X131895807Y-83777096D01*
X131918329Y-83785154D01*
X131939953Y-83795382D01*
X131960470Y-83807679D01*
X131979683Y-83821929D01*
X131997407Y-83837993D01*
X132013471Y-83855717D01*
X132027721Y-83874930D01*
X132040018Y-83895447D01*
X132050246Y-83917071D01*
X132058304Y-83939593D01*
X132064116Y-83962797D01*
X132067626Y-83986458D01*
X132068800Y-84010350D01*
X132068800Y-84497850D01*
X132067626Y-84521742D01*
X132064116Y-84545403D01*
X132058304Y-84568607D01*
X132050246Y-84591129D01*
X132040018Y-84612753D01*
X132027721Y-84633270D01*
X132013471Y-84652483D01*
X131997407Y-84670207D01*
X131979683Y-84686271D01*
X131960470Y-84700521D01*
X131939953Y-84712818D01*
X131918329Y-84723046D01*
X131895807Y-84731104D01*
X131872603Y-84736916D01*
X131848942Y-84740426D01*
X131825050Y-84741600D01*
X130912550Y-84741600D01*
X130888658Y-84740426D01*
X130864997Y-84736916D01*
X130841793Y-84731104D01*
X130819271Y-84723046D01*
X130797647Y-84712818D01*
X130777130Y-84700521D01*
X130757917Y-84686271D01*
X130740193Y-84670207D01*
X130724129Y-84652483D01*
X130709879Y-84633270D01*
X130697582Y-84612753D01*
X130687354Y-84591129D01*
X130679296Y-84568607D01*
X130673484Y-84545403D01*
X130669974Y-84521742D01*
X130668800Y-84497850D01*
X130668800Y-84010350D01*
X130669974Y-83986458D01*
X130673484Y-83962797D01*
X130679296Y-83939593D01*
X130687354Y-83917071D01*
X130697582Y-83895447D01*
X130709879Y-83874930D01*
X130724129Y-83855717D01*
X130740193Y-83837993D01*
X130757917Y-83821929D01*
X130777130Y-83807679D01*
X130797647Y-83795382D01*
X130819271Y-83785154D01*
X130841793Y-83777096D01*
X130864997Y-83771284D01*
X130888658Y-83767774D01*
X130912550Y-83766600D01*
X131825050Y-83766600D01*
X131848942Y-83767774D01*
X131848942Y-83767774D01*
G37*
D11*
X131368800Y-84254100D03*
D10*
G36*
X134021742Y-78879374D02*
G01*
X134045403Y-78882884D01*
X134068607Y-78888696D01*
X134091129Y-78896754D01*
X134112753Y-78906982D01*
X134133270Y-78919279D01*
X134152483Y-78933529D01*
X134170207Y-78949593D01*
X134186271Y-78967317D01*
X134200521Y-78986530D01*
X134212818Y-79007047D01*
X134223046Y-79028671D01*
X134231104Y-79051193D01*
X134236916Y-79074397D01*
X134240426Y-79098058D01*
X134241600Y-79121950D01*
X134241600Y-80034450D01*
X134240426Y-80058342D01*
X134236916Y-80082003D01*
X134231104Y-80105207D01*
X134223046Y-80127729D01*
X134212818Y-80149353D01*
X134200521Y-80169870D01*
X134186271Y-80189083D01*
X134170207Y-80206807D01*
X134152483Y-80222871D01*
X134133270Y-80237121D01*
X134112753Y-80249418D01*
X134091129Y-80259646D01*
X134068607Y-80267704D01*
X134045403Y-80273516D01*
X134021742Y-80277026D01*
X133997850Y-80278200D01*
X133510350Y-80278200D01*
X133486458Y-80277026D01*
X133462797Y-80273516D01*
X133439593Y-80267704D01*
X133417071Y-80259646D01*
X133395447Y-80249418D01*
X133374930Y-80237121D01*
X133355717Y-80222871D01*
X133337993Y-80206807D01*
X133321929Y-80189083D01*
X133307679Y-80169870D01*
X133295382Y-80149353D01*
X133285154Y-80127729D01*
X133277096Y-80105207D01*
X133271284Y-80082003D01*
X133267774Y-80058342D01*
X133266600Y-80034450D01*
X133266600Y-79121950D01*
X133267774Y-79098058D01*
X133271284Y-79074397D01*
X133277096Y-79051193D01*
X133285154Y-79028671D01*
X133295382Y-79007047D01*
X133307679Y-78986530D01*
X133321929Y-78967317D01*
X133337993Y-78949593D01*
X133355717Y-78933529D01*
X133374930Y-78919279D01*
X133395447Y-78906982D01*
X133417071Y-78896754D01*
X133439593Y-78888696D01*
X133462797Y-78882884D01*
X133486458Y-78879374D01*
X133510350Y-78878200D01*
X133997850Y-78878200D01*
X134021742Y-78879374D01*
X134021742Y-78879374D01*
G37*
D11*
X133754100Y-79578200D03*
D10*
G36*
X132146742Y-78879374D02*
G01*
X132170403Y-78882884D01*
X132193607Y-78888696D01*
X132216129Y-78896754D01*
X132237753Y-78906982D01*
X132258270Y-78919279D01*
X132277483Y-78933529D01*
X132295207Y-78949593D01*
X132311271Y-78967317D01*
X132325521Y-78986530D01*
X132337818Y-79007047D01*
X132348046Y-79028671D01*
X132356104Y-79051193D01*
X132361916Y-79074397D01*
X132365426Y-79098058D01*
X132366600Y-79121950D01*
X132366600Y-80034450D01*
X132365426Y-80058342D01*
X132361916Y-80082003D01*
X132356104Y-80105207D01*
X132348046Y-80127729D01*
X132337818Y-80149353D01*
X132325521Y-80169870D01*
X132311271Y-80189083D01*
X132295207Y-80206807D01*
X132277483Y-80222871D01*
X132258270Y-80237121D01*
X132237753Y-80249418D01*
X132216129Y-80259646D01*
X132193607Y-80267704D01*
X132170403Y-80273516D01*
X132146742Y-80277026D01*
X132122850Y-80278200D01*
X131635350Y-80278200D01*
X131611458Y-80277026D01*
X131587797Y-80273516D01*
X131564593Y-80267704D01*
X131542071Y-80259646D01*
X131520447Y-80249418D01*
X131499930Y-80237121D01*
X131480717Y-80222871D01*
X131462993Y-80206807D01*
X131446929Y-80189083D01*
X131432679Y-80169870D01*
X131420382Y-80149353D01*
X131410154Y-80127729D01*
X131402096Y-80105207D01*
X131396284Y-80082003D01*
X131392774Y-80058342D01*
X131391600Y-80034450D01*
X131391600Y-79121950D01*
X131392774Y-79098058D01*
X131396284Y-79074397D01*
X131402096Y-79051193D01*
X131410154Y-79028671D01*
X131420382Y-79007047D01*
X131432679Y-78986530D01*
X131446929Y-78967317D01*
X131462993Y-78949593D01*
X131480717Y-78933529D01*
X131499930Y-78919279D01*
X131520447Y-78906982D01*
X131542071Y-78896754D01*
X131564593Y-78888696D01*
X131587797Y-78882884D01*
X131611458Y-78879374D01*
X131635350Y-78878200D01*
X132122850Y-78878200D01*
X132146742Y-78879374D01*
X132146742Y-78879374D01*
G37*
D11*
X131879100Y-79578200D03*
D10*
G36*
X138910142Y-85744374D02*
G01*
X138933803Y-85747884D01*
X138957007Y-85753696D01*
X138979529Y-85761754D01*
X139001153Y-85771982D01*
X139021670Y-85784279D01*
X139040883Y-85798529D01*
X139058607Y-85814593D01*
X139074671Y-85832317D01*
X139088921Y-85851530D01*
X139101218Y-85872047D01*
X139111446Y-85893671D01*
X139119504Y-85916193D01*
X139125316Y-85939397D01*
X139128826Y-85963058D01*
X139130000Y-85986950D01*
X139130000Y-86474450D01*
X139128826Y-86498342D01*
X139125316Y-86522003D01*
X139119504Y-86545207D01*
X139111446Y-86567729D01*
X139101218Y-86589353D01*
X139088921Y-86609870D01*
X139074671Y-86629083D01*
X139058607Y-86646807D01*
X139040883Y-86662871D01*
X139021670Y-86677121D01*
X139001153Y-86689418D01*
X138979529Y-86699646D01*
X138957007Y-86707704D01*
X138933803Y-86713516D01*
X138910142Y-86717026D01*
X138886250Y-86718200D01*
X137973750Y-86718200D01*
X137949858Y-86717026D01*
X137926197Y-86713516D01*
X137902993Y-86707704D01*
X137880471Y-86699646D01*
X137858847Y-86689418D01*
X137838330Y-86677121D01*
X137819117Y-86662871D01*
X137801393Y-86646807D01*
X137785329Y-86629083D01*
X137771079Y-86609870D01*
X137758782Y-86589353D01*
X137748554Y-86567729D01*
X137740496Y-86545207D01*
X137734684Y-86522003D01*
X137731174Y-86498342D01*
X137730000Y-86474450D01*
X137730000Y-85986950D01*
X137731174Y-85963058D01*
X137734684Y-85939397D01*
X137740496Y-85916193D01*
X137748554Y-85893671D01*
X137758782Y-85872047D01*
X137771079Y-85851530D01*
X137785329Y-85832317D01*
X137801393Y-85814593D01*
X137819117Y-85798529D01*
X137838330Y-85784279D01*
X137858847Y-85771982D01*
X137880471Y-85761754D01*
X137902993Y-85753696D01*
X137926197Y-85747884D01*
X137949858Y-85744374D01*
X137973750Y-85743200D01*
X138886250Y-85743200D01*
X138910142Y-85744374D01*
X138910142Y-85744374D01*
G37*
D11*
X138430000Y-86230700D03*
D10*
G36*
X138910142Y-83869374D02*
G01*
X138933803Y-83872884D01*
X138957007Y-83878696D01*
X138979529Y-83886754D01*
X139001153Y-83896982D01*
X139021670Y-83909279D01*
X139040883Y-83923529D01*
X139058607Y-83939593D01*
X139074671Y-83957317D01*
X139088921Y-83976530D01*
X139101218Y-83997047D01*
X139111446Y-84018671D01*
X139119504Y-84041193D01*
X139125316Y-84064397D01*
X139128826Y-84088058D01*
X139130000Y-84111950D01*
X139130000Y-84599450D01*
X139128826Y-84623342D01*
X139125316Y-84647003D01*
X139119504Y-84670207D01*
X139111446Y-84692729D01*
X139101218Y-84714353D01*
X139088921Y-84734870D01*
X139074671Y-84754083D01*
X139058607Y-84771807D01*
X139040883Y-84787871D01*
X139021670Y-84802121D01*
X139001153Y-84814418D01*
X138979529Y-84824646D01*
X138957007Y-84832704D01*
X138933803Y-84838516D01*
X138910142Y-84842026D01*
X138886250Y-84843200D01*
X137973750Y-84843200D01*
X137949858Y-84842026D01*
X137926197Y-84838516D01*
X137902993Y-84832704D01*
X137880471Y-84824646D01*
X137858847Y-84814418D01*
X137838330Y-84802121D01*
X137819117Y-84787871D01*
X137801393Y-84771807D01*
X137785329Y-84754083D01*
X137771079Y-84734870D01*
X137758782Y-84714353D01*
X137748554Y-84692729D01*
X137740496Y-84670207D01*
X137734684Y-84647003D01*
X137731174Y-84623342D01*
X137730000Y-84599450D01*
X137730000Y-84111950D01*
X137731174Y-84088058D01*
X137734684Y-84064397D01*
X137740496Y-84041193D01*
X137748554Y-84018671D01*
X137758782Y-83997047D01*
X137771079Y-83976530D01*
X137785329Y-83957317D01*
X137801393Y-83939593D01*
X137819117Y-83923529D01*
X137838330Y-83909279D01*
X137858847Y-83896982D01*
X137880471Y-83886754D01*
X137902993Y-83878696D01*
X137926197Y-83872884D01*
X137949858Y-83869374D01*
X137973750Y-83868200D01*
X138886250Y-83868200D01*
X138910142Y-83869374D01*
X138910142Y-83869374D01*
G37*
D11*
X138430000Y-84355700D03*
D10*
G36*
X138732342Y-90290974D02*
G01*
X138756003Y-90294484D01*
X138779207Y-90300296D01*
X138801729Y-90308354D01*
X138823353Y-90318582D01*
X138843870Y-90330879D01*
X138863083Y-90345129D01*
X138880807Y-90361193D01*
X138896871Y-90378917D01*
X138911121Y-90398130D01*
X138923418Y-90418647D01*
X138933646Y-90440271D01*
X138941704Y-90462793D01*
X138947516Y-90485997D01*
X138951026Y-90509658D01*
X138952200Y-90533550D01*
X138952200Y-91021050D01*
X138951026Y-91044942D01*
X138947516Y-91068603D01*
X138941704Y-91091807D01*
X138933646Y-91114329D01*
X138923418Y-91135953D01*
X138911121Y-91156470D01*
X138896871Y-91175683D01*
X138880807Y-91193407D01*
X138863083Y-91209471D01*
X138843870Y-91223721D01*
X138823353Y-91236018D01*
X138801729Y-91246246D01*
X138779207Y-91254304D01*
X138756003Y-91260116D01*
X138732342Y-91263626D01*
X138708450Y-91264800D01*
X137795950Y-91264800D01*
X137772058Y-91263626D01*
X137748397Y-91260116D01*
X137725193Y-91254304D01*
X137702671Y-91246246D01*
X137681047Y-91236018D01*
X137660530Y-91223721D01*
X137641317Y-91209471D01*
X137623593Y-91193407D01*
X137607529Y-91175683D01*
X137593279Y-91156470D01*
X137580982Y-91135953D01*
X137570754Y-91114329D01*
X137562696Y-91091807D01*
X137556884Y-91068603D01*
X137553374Y-91044942D01*
X137552200Y-91021050D01*
X137552200Y-90533550D01*
X137553374Y-90509658D01*
X137556884Y-90485997D01*
X137562696Y-90462793D01*
X137570754Y-90440271D01*
X137580982Y-90418647D01*
X137593279Y-90398130D01*
X137607529Y-90378917D01*
X137623593Y-90361193D01*
X137641317Y-90345129D01*
X137660530Y-90330879D01*
X137681047Y-90318582D01*
X137702671Y-90308354D01*
X137725193Y-90300296D01*
X137748397Y-90294484D01*
X137772058Y-90290974D01*
X137795950Y-90289800D01*
X138708450Y-90289800D01*
X138732342Y-90290974D01*
X138732342Y-90290974D01*
G37*
D11*
X138252200Y-90777300D03*
D10*
G36*
X138732342Y-88415974D02*
G01*
X138756003Y-88419484D01*
X138779207Y-88425296D01*
X138801729Y-88433354D01*
X138823353Y-88443582D01*
X138843870Y-88455879D01*
X138863083Y-88470129D01*
X138880807Y-88486193D01*
X138896871Y-88503917D01*
X138911121Y-88523130D01*
X138923418Y-88543647D01*
X138933646Y-88565271D01*
X138941704Y-88587793D01*
X138947516Y-88610997D01*
X138951026Y-88634658D01*
X138952200Y-88658550D01*
X138952200Y-89146050D01*
X138951026Y-89169942D01*
X138947516Y-89193603D01*
X138941704Y-89216807D01*
X138933646Y-89239329D01*
X138923418Y-89260953D01*
X138911121Y-89281470D01*
X138896871Y-89300683D01*
X138880807Y-89318407D01*
X138863083Y-89334471D01*
X138843870Y-89348721D01*
X138823353Y-89361018D01*
X138801729Y-89371246D01*
X138779207Y-89379304D01*
X138756003Y-89385116D01*
X138732342Y-89388626D01*
X138708450Y-89389800D01*
X137795950Y-89389800D01*
X137772058Y-89388626D01*
X137748397Y-89385116D01*
X137725193Y-89379304D01*
X137702671Y-89371246D01*
X137681047Y-89361018D01*
X137660530Y-89348721D01*
X137641317Y-89334471D01*
X137623593Y-89318407D01*
X137607529Y-89300683D01*
X137593279Y-89281470D01*
X137580982Y-89260953D01*
X137570754Y-89239329D01*
X137562696Y-89216807D01*
X137556884Y-89193603D01*
X137553374Y-89169942D01*
X137552200Y-89146050D01*
X137552200Y-88658550D01*
X137553374Y-88634658D01*
X137556884Y-88610997D01*
X137562696Y-88587793D01*
X137570754Y-88565271D01*
X137580982Y-88543647D01*
X137593279Y-88523130D01*
X137607529Y-88503917D01*
X137623593Y-88486193D01*
X137641317Y-88470129D01*
X137660530Y-88455879D01*
X137681047Y-88443582D01*
X137702671Y-88433354D01*
X137725193Y-88425296D01*
X137748397Y-88419484D01*
X137772058Y-88415974D01*
X137795950Y-88414800D01*
X138708450Y-88414800D01*
X138732342Y-88415974D01*
X138732342Y-88415974D01*
G37*
D11*
X138252200Y-88902300D03*
D10*
G36*
X136007542Y-78879374D02*
G01*
X136031203Y-78882884D01*
X136054407Y-78888696D01*
X136076929Y-78896754D01*
X136098553Y-78906982D01*
X136119070Y-78919279D01*
X136138283Y-78933529D01*
X136156007Y-78949593D01*
X136172071Y-78967317D01*
X136186321Y-78986530D01*
X136198618Y-79007047D01*
X136208846Y-79028671D01*
X136216904Y-79051193D01*
X136222716Y-79074397D01*
X136226226Y-79098058D01*
X136227400Y-79121950D01*
X136227400Y-80034450D01*
X136226226Y-80058342D01*
X136222716Y-80082003D01*
X136216904Y-80105207D01*
X136208846Y-80127729D01*
X136198618Y-80149353D01*
X136186321Y-80169870D01*
X136172071Y-80189083D01*
X136156007Y-80206807D01*
X136138283Y-80222871D01*
X136119070Y-80237121D01*
X136098553Y-80249418D01*
X136076929Y-80259646D01*
X136054407Y-80267704D01*
X136031203Y-80273516D01*
X136007542Y-80277026D01*
X135983650Y-80278200D01*
X135496150Y-80278200D01*
X135472258Y-80277026D01*
X135448597Y-80273516D01*
X135425393Y-80267704D01*
X135402871Y-80259646D01*
X135381247Y-80249418D01*
X135360730Y-80237121D01*
X135341517Y-80222871D01*
X135323793Y-80206807D01*
X135307729Y-80189083D01*
X135293479Y-80169870D01*
X135281182Y-80149353D01*
X135270954Y-80127729D01*
X135262896Y-80105207D01*
X135257084Y-80082003D01*
X135253574Y-80058342D01*
X135252400Y-80034450D01*
X135252400Y-79121950D01*
X135253574Y-79098058D01*
X135257084Y-79074397D01*
X135262896Y-79051193D01*
X135270954Y-79028671D01*
X135281182Y-79007047D01*
X135293479Y-78986530D01*
X135307729Y-78967317D01*
X135323793Y-78949593D01*
X135341517Y-78933529D01*
X135360730Y-78919279D01*
X135381247Y-78906982D01*
X135402871Y-78896754D01*
X135425393Y-78888696D01*
X135448597Y-78882884D01*
X135472258Y-78879374D01*
X135496150Y-78878200D01*
X135983650Y-78878200D01*
X136007542Y-78879374D01*
X136007542Y-78879374D01*
G37*
D11*
X135739900Y-79578200D03*
D10*
G36*
X137882542Y-78879374D02*
G01*
X137906203Y-78882884D01*
X137929407Y-78888696D01*
X137951929Y-78896754D01*
X137973553Y-78906982D01*
X137994070Y-78919279D01*
X138013283Y-78933529D01*
X138031007Y-78949593D01*
X138047071Y-78967317D01*
X138061321Y-78986530D01*
X138073618Y-79007047D01*
X138083846Y-79028671D01*
X138091904Y-79051193D01*
X138097716Y-79074397D01*
X138101226Y-79098058D01*
X138102400Y-79121950D01*
X138102400Y-80034450D01*
X138101226Y-80058342D01*
X138097716Y-80082003D01*
X138091904Y-80105207D01*
X138083846Y-80127729D01*
X138073618Y-80149353D01*
X138061321Y-80169870D01*
X138047071Y-80189083D01*
X138031007Y-80206807D01*
X138013283Y-80222871D01*
X137994070Y-80237121D01*
X137973553Y-80249418D01*
X137951929Y-80259646D01*
X137929407Y-80267704D01*
X137906203Y-80273516D01*
X137882542Y-80277026D01*
X137858650Y-80278200D01*
X137371150Y-80278200D01*
X137347258Y-80277026D01*
X137323597Y-80273516D01*
X137300393Y-80267704D01*
X137277871Y-80259646D01*
X137256247Y-80249418D01*
X137235730Y-80237121D01*
X137216517Y-80222871D01*
X137198793Y-80206807D01*
X137182729Y-80189083D01*
X137168479Y-80169870D01*
X137156182Y-80149353D01*
X137145954Y-80127729D01*
X137137896Y-80105207D01*
X137132084Y-80082003D01*
X137128574Y-80058342D01*
X137127400Y-80034450D01*
X137127400Y-79121950D01*
X137128574Y-79098058D01*
X137132084Y-79074397D01*
X137137896Y-79051193D01*
X137145954Y-79028671D01*
X137156182Y-79007047D01*
X137168479Y-78986530D01*
X137182729Y-78967317D01*
X137198793Y-78949593D01*
X137216517Y-78933529D01*
X137235730Y-78919279D01*
X137256247Y-78906982D01*
X137277871Y-78896754D01*
X137300393Y-78888696D01*
X137323597Y-78882884D01*
X137347258Y-78879374D01*
X137371150Y-78878200D01*
X137858650Y-78878200D01*
X137882542Y-78879374D01*
X137882542Y-78879374D01*
G37*
D11*
X137614900Y-79578200D03*
D12*
X134797800Y-90336200D03*
X134797800Y-82536200D03*
D10*
G36*
X134193305Y-70331804D02*
G01*
X134217573Y-70335404D01*
X134241372Y-70341365D01*
X134264471Y-70349630D01*
X134286650Y-70360120D01*
X134307693Y-70372732D01*
X134327399Y-70387347D01*
X134345577Y-70403823D01*
X134362053Y-70422001D01*
X134376668Y-70441707D01*
X134389280Y-70462750D01*
X134399770Y-70484929D01*
X134408035Y-70508028D01*
X134413996Y-70531827D01*
X134417596Y-70556095D01*
X134418800Y-70580599D01*
X134418800Y-71130601D01*
X134417596Y-71155105D01*
X134413996Y-71179373D01*
X134408035Y-71203172D01*
X134399770Y-71226271D01*
X134389280Y-71248450D01*
X134376668Y-71269493D01*
X134362053Y-71289199D01*
X134345577Y-71307377D01*
X134327399Y-71323853D01*
X134307693Y-71338468D01*
X134286650Y-71351080D01*
X134264471Y-71361570D01*
X134241372Y-71369835D01*
X134217573Y-71375796D01*
X134193305Y-71379396D01*
X134168801Y-71380600D01*
X133618799Y-71380600D01*
X133594295Y-71379396D01*
X133570027Y-71375796D01*
X133546228Y-71369835D01*
X133523129Y-71361570D01*
X133500950Y-71351080D01*
X133479907Y-71338468D01*
X133460201Y-71323853D01*
X133442023Y-71307377D01*
X133425547Y-71289199D01*
X133410932Y-71269493D01*
X133398320Y-71248450D01*
X133387830Y-71226271D01*
X133379565Y-71203172D01*
X133373604Y-71179373D01*
X133370004Y-71155105D01*
X133368800Y-71130601D01*
X133368800Y-70580599D01*
X133370004Y-70556095D01*
X133373604Y-70531827D01*
X133379565Y-70508028D01*
X133387830Y-70484929D01*
X133398320Y-70462750D01*
X133410932Y-70441707D01*
X133425547Y-70422001D01*
X133442023Y-70403823D01*
X133460201Y-70387347D01*
X133479907Y-70372732D01*
X133500950Y-70360120D01*
X133523129Y-70349630D01*
X133546228Y-70341365D01*
X133570027Y-70335404D01*
X133594295Y-70331804D01*
X133618799Y-70330600D01*
X134168801Y-70330600D01*
X134193305Y-70331804D01*
X134193305Y-70331804D01*
G37*
D13*
X133893800Y-70855600D03*
D10*
G36*
X135493305Y-70331804D02*
G01*
X135517573Y-70335404D01*
X135541372Y-70341365D01*
X135564471Y-70349630D01*
X135586650Y-70360120D01*
X135607693Y-70372732D01*
X135627399Y-70387347D01*
X135645577Y-70403823D01*
X135662053Y-70422001D01*
X135676668Y-70441707D01*
X135689280Y-70462750D01*
X135699770Y-70484929D01*
X135708035Y-70508028D01*
X135713996Y-70531827D01*
X135717596Y-70556095D01*
X135718800Y-70580599D01*
X135718800Y-71130601D01*
X135717596Y-71155105D01*
X135713996Y-71179373D01*
X135708035Y-71203172D01*
X135699770Y-71226271D01*
X135689280Y-71248450D01*
X135676668Y-71269493D01*
X135662053Y-71289199D01*
X135645577Y-71307377D01*
X135627399Y-71323853D01*
X135607693Y-71338468D01*
X135586650Y-71351080D01*
X135564471Y-71361570D01*
X135541372Y-71369835D01*
X135517573Y-71375796D01*
X135493305Y-71379396D01*
X135468801Y-71380600D01*
X134918799Y-71380600D01*
X134894295Y-71379396D01*
X134870027Y-71375796D01*
X134846228Y-71369835D01*
X134823129Y-71361570D01*
X134800950Y-71351080D01*
X134779907Y-71338468D01*
X134760201Y-71323853D01*
X134742023Y-71307377D01*
X134725547Y-71289199D01*
X134710932Y-71269493D01*
X134698320Y-71248450D01*
X134687830Y-71226271D01*
X134679565Y-71203172D01*
X134673604Y-71179373D01*
X134670004Y-71155105D01*
X134668800Y-71130601D01*
X134668800Y-70580599D01*
X134670004Y-70556095D01*
X134673604Y-70531827D01*
X134679565Y-70508028D01*
X134687830Y-70484929D01*
X134698320Y-70462750D01*
X134710932Y-70441707D01*
X134725547Y-70422001D01*
X134742023Y-70403823D01*
X134760201Y-70387347D01*
X134779907Y-70372732D01*
X134800950Y-70360120D01*
X134823129Y-70349630D01*
X134846228Y-70341365D01*
X134870027Y-70335404D01*
X134894295Y-70331804D01*
X134918799Y-70330600D01*
X135468801Y-70330600D01*
X135493305Y-70331804D01*
X135493305Y-70331804D01*
G37*
D13*
X135193800Y-70855600D03*
D10*
G36*
X134193305Y-69031804D02*
G01*
X134217573Y-69035404D01*
X134241372Y-69041365D01*
X134264471Y-69049630D01*
X134286650Y-69060120D01*
X134307693Y-69072732D01*
X134327399Y-69087347D01*
X134345577Y-69103823D01*
X134362053Y-69122001D01*
X134376668Y-69141707D01*
X134389280Y-69162750D01*
X134399770Y-69184929D01*
X134408035Y-69208028D01*
X134413996Y-69231827D01*
X134417596Y-69256095D01*
X134418800Y-69280599D01*
X134418800Y-69830601D01*
X134417596Y-69855105D01*
X134413996Y-69879373D01*
X134408035Y-69903172D01*
X134399770Y-69926271D01*
X134389280Y-69948450D01*
X134376668Y-69969493D01*
X134362053Y-69989199D01*
X134345577Y-70007377D01*
X134327399Y-70023853D01*
X134307693Y-70038468D01*
X134286650Y-70051080D01*
X134264471Y-70061570D01*
X134241372Y-70069835D01*
X134217573Y-70075796D01*
X134193305Y-70079396D01*
X134168801Y-70080600D01*
X133618799Y-70080600D01*
X133594295Y-70079396D01*
X133570027Y-70075796D01*
X133546228Y-70069835D01*
X133523129Y-70061570D01*
X133500950Y-70051080D01*
X133479907Y-70038468D01*
X133460201Y-70023853D01*
X133442023Y-70007377D01*
X133425547Y-69989199D01*
X133410932Y-69969493D01*
X133398320Y-69948450D01*
X133387830Y-69926271D01*
X133379565Y-69903172D01*
X133373604Y-69879373D01*
X133370004Y-69855105D01*
X133368800Y-69830601D01*
X133368800Y-69280599D01*
X133370004Y-69256095D01*
X133373604Y-69231827D01*
X133379565Y-69208028D01*
X133387830Y-69184929D01*
X133398320Y-69162750D01*
X133410932Y-69141707D01*
X133425547Y-69122001D01*
X133442023Y-69103823D01*
X133460201Y-69087347D01*
X133479907Y-69072732D01*
X133500950Y-69060120D01*
X133523129Y-69049630D01*
X133546228Y-69041365D01*
X133570027Y-69035404D01*
X133594295Y-69031804D01*
X133618799Y-69030600D01*
X134168801Y-69030600D01*
X134193305Y-69031804D01*
X134193305Y-69031804D01*
G37*
D13*
X133893800Y-69555600D03*
D10*
G36*
X135493305Y-69031804D02*
G01*
X135517573Y-69035404D01*
X135541372Y-69041365D01*
X135564471Y-69049630D01*
X135586650Y-69060120D01*
X135607693Y-69072732D01*
X135627399Y-69087347D01*
X135645577Y-69103823D01*
X135662053Y-69122001D01*
X135676668Y-69141707D01*
X135689280Y-69162750D01*
X135699770Y-69184929D01*
X135708035Y-69208028D01*
X135713996Y-69231827D01*
X135717596Y-69256095D01*
X135718800Y-69280599D01*
X135718800Y-69830601D01*
X135717596Y-69855105D01*
X135713996Y-69879373D01*
X135708035Y-69903172D01*
X135699770Y-69926271D01*
X135689280Y-69948450D01*
X135676668Y-69969493D01*
X135662053Y-69989199D01*
X135645577Y-70007377D01*
X135627399Y-70023853D01*
X135607693Y-70038468D01*
X135586650Y-70051080D01*
X135564471Y-70061570D01*
X135541372Y-70069835D01*
X135517573Y-70075796D01*
X135493305Y-70079396D01*
X135468801Y-70080600D01*
X134918799Y-70080600D01*
X134894295Y-70079396D01*
X134870027Y-70075796D01*
X134846228Y-70069835D01*
X134823129Y-70061570D01*
X134800950Y-70051080D01*
X134779907Y-70038468D01*
X134760201Y-70023853D01*
X134742023Y-70007377D01*
X134725547Y-69989199D01*
X134710932Y-69969493D01*
X134698320Y-69948450D01*
X134687830Y-69926271D01*
X134679565Y-69903172D01*
X134673604Y-69879373D01*
X134670004Y-69855105D01*
X134668800Y-69830601D01*
X134668800Y-69280599D01*
X134670004Y-69256095D01*
X134673604Y-69231827D01*
X134679565Y-69208028D01*
X134687830Y-69184929D01*
X134698320Y-69162750D01*
X134710932Y-69141707D01*
X134725547Y-69122001D01*
X134742023Y-69103823D01*
X134760201Y-69087347D01*
X134779907Y-69072732D01*
X134800950Y-69060120D01*
X134823129Y-69049630D01*
X134846228Y-69041365D01*
X134870027Y-69035404D01*
X134894295Y-69031804D01*
X134918799Y-69030600D01*
X135468801Y-69030600D01*
X135493305Y-69031804D01*
X135493305Y-69031804D01*
G37*
D13*
X135193800Y-69555600D03*
D10*
G36*
X133362426Y-71730901D02*
G01*
X133368493Y-71731801D01*
X133374443Y-71733291D01*
X133380218Y-71735358D01*
X133385762Y-71737980D01*
X133391023Y-71741133D01*
X133395950Y-71744787D01*
X133400494Y-71748906D01*
X133404613Y-71753450D01*
X133408267Y-71758377D01*
X133411420Y-71763638D01*
X133414042Y-71769182D01*
X133416109Y-71774957D01*
X133417599Y-71780907D01*
X133418499Y-71786974D01*
X133418800Y-71793100D01*
X133418800Y-72493100D01*
X133418499Y-72499226D01*
X133417599Y-72505293D01*
X133416109Y-72511243D01*
X133414042Y-72517018D01*
X133411420Y-72522562D01*
X133408267Y-72527823D01*
X133404613Y-72532750D01*
X133400494Y-72537294D01*
X133395950Y-72541413D01*
X133391023Y-72545067D01*
X133385762Y-72548220D01*
X133380218Y-72550842D01*
X133374443Y-72552909D01*
X133368493Y-72554399D01*
X133362426Y-72555299D01*
X133356300Y-72555600D01*
X133231300Y-72555600D01*
X133225174Y-72555299D01*
X133219107Y-72554399D01*
X133213157Y-72552909D01*
X133207382Y-72550842D01*
X133201838Y-72548220D01*
X133196577Y-72545067D01*
X133191650Y-72541413D01*
X133187106Y-72537294D01*
X133182987Y-72532750D01*
X133179333Y-72527823D01*
X133176180Y-72522562D01*
X133173558Y-72517018D01*
X133171491Y-72511243D01*
X133170001Y-72505293D01*
X133169101Y-72499226D01*
X133168800Y-72493100D01*
X133168800Y-71793100D01*
X133169101Y-71786974D01*
X133170001Y-71780907D01*
X133171491Y-71774957D01*
X133173558Y-71769182D01*
X133176180Y-71763638D01*
X133179333Y-71758377D01*
X133182987Y-71753450D01*
X133187106Y-71748906D01*
X133191650Y-71744787D01*
X133196577Y-71741133D01*
X133201838Y-71737980D01*
X133207382Y-71735358D01*
X133213157Y-71733291D01*
X133219107Y-71731801D01*
X133225174Y-71730901D01*
X133231300Y-71730600D01*
X133356300Y-71730600D01*
X133362426Y-71730901D01*
X133362426Y-71730901D01*
G37*
D14*
X133293800Y-72143100D03*
D10*
G36*
X133862426Y-71730901D02*
G01*
X133868493Y-71731801D01*
X133874443Y-71733291D01*
X133880218Y-71735358D01*
X133885762Y-71737980D01*
X133891023Y-71741133D01*
X133895950Y-71744787D01*
X133900494Y-71748906D01*
X133904613Y-71753450D01*
X133908267Y-71758377D01*
X133911420Y-71763638D01*
X133914042Y-71769182D01*
X133916109Y-71774957D01*
X133917599Y-71780907D01*
X133918499Y-71786974D01*
X133918800Y-71793100D01*
X133918800Y-72493100D01*
X133918499Y-72499226D01*
X133917599Y-72505293D01*
X133916109Y-72511243D01*
X133914042Y-72517018D01*
X133911420Y-72522562D01*
X133908267Y-72527823D01*
X133904613Y-72532750D01*
X133900494Y-72537294D01*
X133895950Y-72541413D01*
X133891023Y-72545067D01*
X133885762Y-72548220D01*
X133880218Y-72550842D01*
X133874443Y-72552909D01*
X133868493Y-72554399D01*
X133862426Y-72555299D01*
X133856300Y-72555600D01*
X133731300Y-72555600D01*
X133725174Y-72555299D01*
X133719107Y-72554399D01*
X133713157Y-72552909D01*
X133707382Y-72550842D01*
X133701838Y-72548220D01*
X133696577Y-72545067D01*
X133691650Y-72541413D01*
X133687106Y-72537294D01*
X133682987Y-72532750D01*
X133679333Y-72527823D01*
X133676180Y-72522562D01*
X133673558Y-72517018D01*
X133671491Y-72511243D01*
X133670001Y-72505293D01*
X133669101Y-72499226D01*
X133668800Y-72493100D01*
X133668800Y-71793100D01*
X133669101Y-71786974D01*
X133670001Y-71780907D01*
X133671491Y-71774957D01*
X133673558Y-71769182D01*
X133676180Y-71763638D01*
X133679333Y-71758377D01*
X133682987Y-71753450D01*
X133687106Y-71748906D01*
X133691650Y-71744787D01*
X133696577Y-71741133D01*
X133701838Y-71737980D01*
X133707382Y-71735358D01*
X133713157Y-71733291D01*
X133719107Y-71731801D01*
X133725174Y-71730901D01*
X133731300Y-71730600D01*
X133856300Y-71730600D01*
X133862426Y-71730901D01*
X133862426Y-71730901D01*
G37*
D14*
X133793800Y-72143100D03*
D10*
G36*
X134362426Y-71730901D02*
G01*
X134368493Y-71731801D01*
X134374443Y-71733291D01*
X134380218Y-71735358D01*
X134385762Y-71737980D01*
X134391023Y-71741133D01*
X134395950Y-71744787D01*
X134400494Y-71748906D01*
X134404613Y-71753450D01*
X134408267Y-71758377D01*
X134411420Y-71763638D01*
X134414042Y-71769182D01*
X134416109Y-71774957D01*
X134417599Y-71780907D01*
X134418499Y-71786974D01*
X134418800Y-71793100D01*
X134418800Y-72493100D01*
X134418499Y-72499226D01*
X134417599Y-72505293D01*
X134416109Y-72511243D01*
X134414042Y-72517018D01*
X134411420Y-72522562D01*
X134408267Y-72527823D01*
X134404613Y-72532750D01*
X134400494Y-72537294D01*
X134395950Y-72541413D01*
X134391023Y-72545067D01*
X134385762Y-72548220D01*
X134380218Y-72550842D01*
X134374443Y-72552909D01*
X134368493Y-72554399D01*
X134362426Y-72555299D01*
X134356300Y-72555600D01*
X134231300Y-72555600D01*
X134225174Y-72555299D01*
X134219107Y-72554399D01*
X134213157Y-72552909D01*
X134207382Y-72550842D01*
X134201838Y-72548220D01*
X134196577Y-72545067D01*
X134191650Y-72541413D01*
X134187106Y-72537294D01*
X134182987Y-72532750D01*
X134179333Y-72527823D01*
X134176180Y-72522562D01*
X134173558Y-72517018D01*
X134171491Y-72511243D01*
X134170001Y-72505293D01*
X134169101Y-72499226D01*
X134168800Y-72493100D01*
X134168800Y-71793100D01*
X134169101Y-71786974D01*
X134170001Y-71780907D01*
X134171491Y-71774957D01*
X134173558Y-71769182D01*
X134176180Y-71763638D01*
X134179333Y-71758377D01*
X134182987Y-71753450D01*
X134187106Y-71748906D01*
X134191650Y-71744787D01*
X134196577Y-71741133D01*
X134201838Y-71737980D01*
X134207382Y-71735358D01*
X134213157Y-71733291D01*
X134219107Y-71731801D01*
X134225174Y-71730901D01*
X134231300Y-71730600D01*
X134356300Y-71730600D01*
X134362426Y-71730901D01*
X134362426Y-71730901D01*
G37*
D14*
X134293800Y-72143100D03*
D10*
G36*
X134862426Y-71730901D02*
G01*
X134868493Y-71731801D01*
X134874443Y-71733291D01*
X134880218Y-71735358D01*
X134885762Y-71737980D01*
X134891023Y-71741133D01*
X134895950Y-71744787D01*
X134900494Y-71748906D01*
X134904613Y-71753450D01*
X134908267Y-71758377D01*
X134911420Y-71763638D01*
X134914042Y-71769182D01*
X134916109Y-71774957D01*
X134917599Y-71780907D01*
X134918499Y-71786974D01*
X134918800Y-71793100D01*
X134918800Y-72493100D01*
X134918499Y-72499226D01*
X134917599Y-72505293D01*
X134916109Y-72511243D01*
X134914042Y-72517018D01*
X134911420Y-72522562D01*
X134908267Y-72527823D01*
X134904613Y-72532750D01*
X134900494Y-72537294D01*
X134895950Y-72541413D01*
X134891023Y-72545067D01*
X134885762Y-72548220D01*
X134880218Y-72550842D01*
X134874443Y-72552909D01*
X134868493Y-72554399D01*
X134862426Y-72555299D01*
X134856300Y-72555600D01*
X134731300Y-72555600D01*
X134725174Y-72555299D01*
X134719107Y-72554399D01*
X134713157Y-72552909D01*
X134707382Y-72550842D01*
X134701838Y-72548220D01*
X134696577Y-72545067D01*
X134691650Y-72541413D01*
X134687106Y-72537294D01*
X134682987Y-72532750D01*
X134679333Y-72527823D01*
X134676180Y-72522562D01*
X134673558Y-72517018D01*
X134671491Y-72511243D01*
X134670001Y-72505293D01*
X134669101Y-72499226D01*
X134668800Y-72493100D01*
X134668800Y-71793100D01*
X134669101Y-71786974D01*
X134670001Y-71780907D01*
X134671491Y-71774957D01*
X134673558Y-71769182D01*
X134676180Y-71763638D01*
X134679333Y-71758377D01*
X134682987Y-71753450D01*
X134687106Y-71748906D01*
X134691650Y-71744787D01*
X134696577Y-71741133D01*
X134701838Y-71737980D01*
X134707382Y-71735358D01*
X134713157Y-71733291D01*
X134719107Y-71731801D01*
X134725174Y-71730901D01*
X134731300Y-71730600D01*
X134856300Y-71730600D01*
X134862426Y-71730901D01*
X134862426Y-71730901D01*
G37*
D14*
X134793800Y-72143100D03*
D10*
G36*
X135362426Y-71730901D02*
G01*
X135368493Y-71731801D01*
X135374443Y-71733291D01*
X135380218Y-71735358D01*
X135385762Y-71737980D01*
X135391023Y-71741133D01*
X135395950Y-71744787D01*
X135400494Y-71748906D01*
X135404613Y-71753450D01*
X135408267Y-71758377D01*
X135411420Y-71763638D01*
X135414042Y-71769182D01*
X135416109Y-71774957D01*
X135417599Y-71780907D01*
X135418499Y-71786974D01*
X135418800Y-71793100D01*
X135418800Y-72493100D01*
X135418499Y-72499226D01*
X135417599Y-72505293D01*
X135416109Y-72511243D01*
X135414042Y-72517018D01*
X135411420Y-72522562D01*
X135408267Y-72527823D01*
X135404613Y-72532750D01*
X135400494Y-72537294D01*
X135395950Y-72541413D01*
X135391023Y-72545067D01*
X135385762Y-72548220D01*
X135380218Y-72550842D01*
X135374443Y-72552909D01*
X135368493Y-72554399D01*
X135362426Y-72555299D01*
X135356300Y-72555600D01*
X135231300Y-72555600D01*
X135225174Y-72555299D01*
X135219107Y-72554399D01*
X135213157Y-72552909D01*
X135207382Y-72550842D01*
X135201838Y-72548220D01*
X135196577Y-72545067D01*
X135191650Y-72541413D01*
X135187106Y-72537294D01*
X135182987Y-72532750D01*
X135179333Y-72527823D01*
X135176180Y-72522562D01*
X135173558Y-72517018D01*
X135171491Y-72511243D01*
X135170001Y-72505293D01*
X135169101Y-72499226D01*
X135168800Y-72493100D01*
X135168800Y-71793100D01*
X135169101Y-71786974D01*
X135170001Y-71780907D01*
X135171491Y-71774957D01*
X135173558Y-71769182D01*
X135176180Y-71763638D01*
X135179333Y-71758377D01*
X135182987Y-71753450D01*
X135187106Y-71748906D01*
X135191650Y-71744787D01*
X135196577Y-71741133D01*
X135201838Y-71737980D01*
X135207382Y-71735358D01*
X135213157Y-71733291D01*
X135219107Y-71731801D01*
X135225174Y-71730901D01*
X135231300Y-71730600D01*
X135356300Y-71730600D01*
X135362426Y-71730901D01*
X135362426Y-71730901D01*
G37*
D14*
X135293800Y-72143100D03*
D10*
G36*
X135862426Y-71730901D02*
G01*
X135868493Y-71731801D01*
X135874443Y-71733291D01*
X135880218Y-71735358D01*
X135885762Y-71737980D01*
X135891023Y-71741133D01*
X135895950Y-71744787D01*
X135900494Y-71748906D01*
X135904613Y-71753450D01*
X135908267Y-71758377D01*
X135911420Y-71763638D01*
X135914042Y-71769182D01*
X135916109Y-71774957D01*
X135917599Y-71780907D01*
X135918499Y-71786974D01*
X135918800Y-71793100D01*
X135918800Y-72493100D01*
X135918499Y-72499226D01*
X135917599Y-72505293D01*
X135916109Y-72511243D01*
X135914042Y-72517018D01*
X135911420Y-72522562D01*
X135908267Y-72527823D01*
X135904613Y-72532750D01*
X135900494Y-72537294D01*
X135895950Y-72541413D01*
X135891023Y-72545067D01*
X135885762Y-72548220D01*
X135880218Y-72550842D01*
X135874443Y-72552909D01*
X135868493Y-72554399D01*
X135862426Y-72555299D01*
X135856300Y-72555600D01*
X135731300Y-72555600D01*
X135725174Y-72555299D01*
X135719107Y-72554399D01*
X135713157Y-72552909D01*
X135707382Y-72550842D01*
X135701838Y-72548220D01*
X135696577Y-72545067D01*
X135691650Y-72541413D01*
X135687106Y-72537294D01*
X135682987Y-72532750D01*
X135679333Y-72527823D01*
X135676180Y-72522562D01*
X135673558Y-72517018D01*
X135671491Y-72511243D01*
X135670001Y-72505293D01*
X135669101Y-72499226D01*
X135668800Y-72493100D01*
X135668800Y-71793100D01*
X135669101Y-71786974D01*
X135670001Y-71780907D01*
X135671491Y-71774957D01*
X135673558Y-71769182D01*
X135676180Y-71763638D01*
X135679333Y-71758377D01*
X135682987Y-71753450D01*
X135687106Y-71748906D01*
X135691650Y-71744787D01*
X135696577Y-71741133D01*
X135701838Y-71737980D01*
X135707382Y-71735358D01*
X135713157Y-71733291D01*
X135719107Y-71731801D01*
X135725174Y-71730901D01*
X135731300Y-71730600D01*
X135856300Y-71730600D01*
X135862426Y-71730901D01*
X135862426Y-71730901D01*
G37*
D14*
X135793800Y-72143100D03*
D10*
G36*
X136837426Y-71330901D02*
G01*
X136843493Y-71331801D01*
X136849443Y-71333291D01*
X136855218Y-71335358D01*
X136860762Y-71337980D01*
X136866023Y-71341133D01*
X136870950Y-71344787D01*
X136875494Y-71348906D01*
X136879613Y-71353450D01*
X136883267Y-71358377D01*
X136886420Y-71363638D01*
X136889042Y-71369182D01*
X136891109Y-71374957D01*
X136892599Y-71380907D01*
X136893499Y-71386974D01*
X136893800Y-71393100D01*
X136893800Y-71518100D01*
X136893499Y-71524226D01*
X136892599Y-71530293D01*
X136891109Y-71536243D01*
X136889042Y-71542018D01*
X136886420Y-71547562D01*
X136883267Y-71552823D01*
X136879613Y-71557750D01*
X136875494Y-71562294D01*
X136870950Y-71566413D01*
X136866023Y-71570067D01*
X136860762Y-71573220D01*
X136855218Y-71575842D01*
X136849443Y-71577909D01*
X136843493Y-71579399D01*
X136837426Y-71580299D01*
X136831300Y-71580600D01*
X136131300Y-71580600D01*
X136125174Y-71580299D01*
X136119107Y-71579399D01*
X136113157Y-71577909D01*
X136107382Y-71575842D01*
X136101838Y-71573220D01*
X136096577Y-71570067D01*
X136091650Y-71566413D01*
X136087106Y-71562294D01*
X136082987Y-71557750D01*
X136079333Y-71552823D01*
X136076180Y-71547562D01*
X136073558Y-71542018D01*
X136071491Y-71536243D01*
X136070001Y-71530293D01*
X136069101Y-71524226D01*
X136068800Y-71518100D01*
X136068800Y-71393100D01*
X136069101Y-71386974D01*
X136070001Y-71380907D01*
X136071491Y-71374957D01*
X136073558Y-71369182D01*
X136076180Y-71363638D01*
X136079333Y-71358377D01*
X136082987Y-71353450D01*
X136087106Y-71348906D01*
X136091650Y-71344787D01*
X136096577Y-71341133D01*
X136101838Y-71337980D01*
X136107382Y-71335358D01*
X136113157Y-71333291D01*
X136119107Y-71331801D01*
X136125174Y-71330901D01*
X136131300Y-71330600D01*
X136831300Y-71330600D01*
X136837426Y-71330901D01*
X136837426Y-71330901D01*
G37*
D14*
X136481300Y-71455600D03*
D10*
G36*
X136837426Y-70830901D02*
G01*
X136843493Y-70831801D01*
X136849443Y-70833291D01*
X136855218Y-70835358D01*
X136860762Y-70837980D01*
X136866023Y-70841133D01*
X136870950Y-70844787D01*
X136875494Y-70848906D01*
X136879613Y-70853450D01*
X136883267Y-70858377D01*
X136886420Y-70863638D01*
X136889042Y-70869182D01*
X136891109Y-70874957D01*
X136892599Y-70880907D01*
X136893499Y-70886974D01*
X136893800Y-70893100D01*
X136893800Y-71018100D01*
X136893499Y-71024226D01*
X136892599Y-71030293D01*
X136891109Y-71036243D01*
X136889042Y-71042018D01*
X136886420Y-71047562D01*
X136883267Y-71052823D01*
X136879613Y-71057750D01*
X136875494Y-71062294D01*
X136870950Y-71066413D01*
X136866023Y-71070067D01*
X136860762Y-71073220D01*
X136855218Y-71075842D01*
X136849443Y-71077909D01*
X136843493Y-71079399D01*
X136837426Y-71080299D01*
X136831300Y-71080600D01*
X136131300Y-71080600D01*
X136125174Y-71080299D01*
X136119107Y-71079399D01*
X136113157Y-71077909D01*
X136107382Y-71075842D01*
X136101838Y-71073220D01*
X136096577Y-71070067D01*
X136091650Y-71066413D01*
X136087106Y-71062294D01*
X136082987Y-71057750D01*
X136079333Y-71052823D01*
X136076180Y-71047562D01*
X136073558Y-71042018D01*
X136071491Y-71036243D01*
X136070001Y-71030293D01*
X136069101Y-71024226D01*
X136068800Y-71018100D01*
X136068800Y-70893100D01*
X136069101Y-70886974D01*
X136070001Y-70880907D01*
X136071491Y-70874957D01*
X136073558Y-70869182D01*
X136076180Y-70863638D01*
X136079333Y-70858377D01*
X136082987Y-70853450D01*
X136087106Y-70848906D01*
X136091650Y-70844787D01*
X136096577Y-70841133D01*
X136101838Y-70837980D01*
X136107382Y-70835358D01*
X136113157Y-70833291D01*
X136119107Y-70831801D01*
X136125174Y-70830901D01*
X136131300Y-70830600D01*
X136831300Y-70830600D01*
X136837426Y-70830901D01*
X136837426Y-70830901D01*
G37*
D14*
X136481300Y-70955600D03*
D10*
G36*
X136837426Y-70330901D02*
G01*
X136843493Y-70331801D01*
X136849443Y-70333291D01*
X136855218Y-70335358D01*
X136860762Y-70337980D01*
X136866023Y-70341133D01*
X136870950Y-70344787D01*
X136875494Y-70348906D01*
X136879613Y-70353450D01*
X136883267Y-70358377D01*
X136886420Y-70363638D01*
X136889042Y-70369182D01*
X136891109Y-70374957D01*
X136892599Y-70380907D01*
X136893499Y-70386974D01*
X136893800Y-70393100D01*
X136893800Y-70518100D01*
X136893499Y-70524226D01*
X136892599Y-70530293D01*
X136891109Y-70536243D01*
X136889042Y-70542018D01*
X136886420Y-70547562D01*
X136883267Y-70552823D01*
X136879613Y-70557750D01*
X136875494Y-70562294D01*
X136870950Y-70566413D01*
X136866023Y-70570067D01*
X136860762Y-70573220D01*
X136855218Y-70575842D01*
X136849443Y-70577909D01*
X136843493Y-70579399D01*
X136837426Y-70580299D01*
X136831300Y-70580600D01*
X136131300Y-70580600D01*
X136125174Y-70580299D01*
X136119107Y-70579399D01*
X136113157Y-70577909D01*
X136107382Y-70575842D01*
X136101838Y-70573220D01*
X136096577Y-70570067D01*
X136091650Y-70566413D01*
X136087106Y-70562294D01*
X136082987Y-70557750D01*
X136079333Y-70552823D01*
X136076180Y-70547562D01*
X136073558Y-70542018D01*
X136071491Y-70536243D01*
X136070001Y-70530293D01*
X136069101Y-70524226D01*
X136068800Y-70518100D01*
X136068800Y-70393100D01*
X136069101Y-70386974D01*
X136070001Y-70380907D01*
X136071491Y-70374957D01*
X136073558Y-70369182D01*
X136076180Y-70363638D01*
X136079333Y-70358377D01*
X136082987Y-70353450D01*
X136087106Y-70348906D01*
X136091650Y-70344787D01*
X136096577Y-70341133D01*
X136101838Y-70337980D01*
X136107382Y-70335358D01*
X136113157Y-70333291D01*
X136119107Y-70331801D01*
X136125174Y-70330901D01*
X136131300Y-70330600D01*
X136831300Y-70330600D01*
X136837426Y-70330901D01*
X136837426Y-70330901D01*
G37*
D14*
X136481300Y-70455600D03*
D10*
G36*
X136837426Y-69830901D02*
G01*
X136843493Y-69831801D01*
X136849443Y-69833291D01*
X136855218Y-69835358D01*
X136860762Y-69837980D01*
X136866023Y-69841133D01*
X136870950Y-69844787D01*
X136875494Y-69848906D01*
X136879613Y-69853450D01*
X136883267Y-69858377D01*
X136886420Y-69863638D01*
X136889042Y-69869182D01*
X136891109Y-69874957D01*
X136892599Y-69880907D01*
X136893499Y-69886974D01*
X136893800Y-69893100D01*
X136893800Y-70018100D01*
X136893499Y-70024226D01*
X136892599Y-70030293D01*
X136891109Y-70036243D01*
X136889042Y-70042018D01*
X136886420Y-70047562D01*
X136883267Y-70052823D01*
X136879613Y-70057750D01*
X136875494Y-70062294D01*
X136870950Y-70066413D01*
X136866023Y-70070067D01*
X136860762Y-70073220D01*
X136855218Y-70075842D01*
X136849443Y-70077909D01*
X136843493Y-70079399D01*
X136837426Y-70080299D01*
X136831300Y-70080600D01*
X136131300Y-70080600D01*
X136125174Y-70080299D01*
X136119107Y-70079399D01*
X136113157Y-70077909D01*
X136107382Y-70075842D01*
X136101838Y-70073220D01*
X136096577Y-70070067D01*
X136091650Y-70066413D01*
X136087106Y-70062294D01*
X136082987Y-70057750D01*
X136079333Y-70052823D01*
X136076180Y-70047562D01*
X136073558Y-70042018D01*
X136071491Y-70036243D01*
X136070001Y-70030293D01*
X136069101Y-70024226D01*
X136068800Y-70018100D01*
X136068800Y-69893100D01*
X136069101Y-69886974D01*
X136070001Y-69880907D01*
X136071491Y-69874957D01*
X136073558Y-69869182D01*
X136076180Y-69863638D01*
X136079333Y-69858377D01*
X136082987Y-69853450D01*
X136087106Y-69848906D01*
X136091650Y-69844787D01*
X136096577Y-69841133D01*
X136101838Y-69837980D01*
X136107382Y-69835358D01*
X136113157Y-69833291D01*
X136119107Y-69831801D01*
X136125174Y-69830901D01*
X136131300Y-69830600D01*
X136831300Y-69830600D01*
X136837426Y-69830901D01*
X136837426Y-69830901D01*
G37*
D14*
X136481300Y-69955600D03*
D10*
G36*
X136837426Y-69330901D02*
G01*
X136843493Y-69331801D01*
X136849443Y-69333291D01*
X136855218Y-69335358D01*
X136860762Y-69337980D01*
X136866023Y-69341133D01*
X136870950Y-69344787D01*
X136875494Y-69348906D01*
X136879613Y-69353450D01*
X136883267Y-69358377D01*
X136886420Y-69363638D01*
X136889042Y-69369182D01*
X136891109Y-69374957D01*
X136892599Y-69380907D01*
X136893499Y-69386974D01*
X136893800Y-69393100D01*
X136893800Y-69518100D01*
X136893499Y-69524226D01*
X136892599Y-69530293D01*
X136891109Y-69536243D01*
X136889042Y-69542018D01*
X136886420Y-69547562D01*
X136883267Y-69552823D01*
X136879613Y-69557750D01*
X136875494Y-69562294D01*
X136870950Y-69566413D01*
X136866023Y-69570067D01*
X136860762Y-69573220D01*
X136855218Y-69575842D01*
X136849443Y-69577909D01*
X136843493Y-69579399D01*
X136837426Y-69580299D01*
X136831300Y-69580600D01*
X136131300Y-69580600D01*
X136125174Y-69580299D01*
X136119107Y-69579399D01*
X136113157Y-69577909D01*
X136107382Y-69575842D01*
X136101838Y-69573220D01*
X136096577Y-69570067D01*
X136091650Y-69566413D01*
X136087106Y-69562294D01*
X136082987Y-69557750D01*
X136079333Y-69552823D01*
X136076180Y-69547562D01*
X136073558Y-69542018D01*
X136071491Y-69536243D01*
X136070001Y-69530293D01*
X136069101Y-69524226D01*
X136068800Y-69518100D01*
X136068800Y-69393100D01*
X136069101Y-69386974D01*
X136070001Y-69380907D01*
X136071491Y-69374957D01*
X136073558Y-69369182D01*
X136076180Y-69363638D01*
X136079333Y-69358377D01*
X136082987Y-69353450D01*
X136087106Y-69348906D01*
X136091650Y-69344787D01*
X136096577Y-69341133D01*
X136101838Y-69337980D01*
X136107382Y-69335358D01*
X136113157Y-69333291D01*
X136119107Y-69331801D01*
X136125174Y-69330901D01*
X136131300Y-69330600D01*
X136831300Y-69330600D01*
X136837426Y-69330901D01*
X136837426Y-69330901D01*
G37*
D14*
X136481300Y-69455600D03*
D10*
G36*
X136837426Y-68830901D02*
G01*
X136843493Y-68831801D01*
X136849443Y-68833291D01*
X136855218Y-68835358D01*
X136860762Y-68837980D01*
X136866023Y-68841133D01*
X136870950Y-68844787D01*
X136875494Y-68848906D01*
X136879613Y-68853450D01*
X136883267Y-68858377D01*
X136886420Y-68863638D01*
X136889042Y-68869182D01*
X136891109Y-68874957D01*
X136892599Y-68880907D01*
X136893499Y-68886974D01*
X136893800Y-68893100D01*
X136893800Y-69018100D01*
X136893499Y-69024226D01*
X136892599Y-69030293D01*
X136891109Y-69036243D01*
X136889042Y-69042018D01*
X136886420Y-69047562D01*
X136883267Y-69052823D01*
X136879613Y-69057750D01*
X136875494Y-69062294D01*
X136870950Y-69066413D01*
X136866023Y-69070067D01*
X136860762Y-69073220D01*
X136855218Y-69075842D01*
X136849443Y-69077909D01*
X136843493Y-69079399D01*
X136837426Y-69080299D01*
X136831300Y-69080600D01*
X136131300Y-69080600D01*
X136125174Y-69080299D01*
X136119107Y-69079399D01*
X136113157Y-69077909D01*
X136107382Y-69075842D01*
X136101838Y-69073220D01*
X136096577Y-69070067D01*
X136091650Y-69066413D01*
X136087106Y-69062294D01*
X136082987Y-69057750D01*
X136079333Y-69052823D01*
X136076180Y-69047562D01*
X136073558Y-69042018D01*
X136071491Y-69036243D01*
X136070001Y-69030293D01*
X136069101Y-69024226D01*
X136068800Y-69018100D01*
X136068800Y-68893100D01*
X136069101Y-68886974D01*
X136070001Y-68880907D01*
X136071491Y-68874957D01*
X136073558Y-68869182D01*
X136076180Y-68863638D01*
X136079333Y-68858377D01*
X136082987Y-68853450D01*
X136087106Y-68848906D01*
X136091650Y-68844787D01*
X136096577Y-68841133D01*
X136101838Y-68837980D01*
X136107382Y-68835358D01*
X136113157Y-68833291D01*
X136119107Y-68831801D01*
X136125174Y-68830901D01*
X136131300Y-68830600D01*
X136831300Y-68830600D01*
X136837426Y-68830901D01*
X136837426Y-68830901D01*
G37*
D14*
X136481300Y-68955600D03*
D10*
G36*
X135862426Y-67855901D02*
G01*
X135868493Y-67856801D01*
X135874443Y-67858291D01*
X135880218Y-67860358D01*
X135885762Y-67862980D01*
X135891023Y-67866133D01*
X135895950Y-67869787D01*
X135900494Y-67873906D01*
X135904613Y-67878450D01*
X135908267Y-67883377D01*
X135911420Y-67888638D01*
X135914042Y-67894182D01*
X135916109Y-67899957D01*
X135917599Y-67905907D01*
X135918499Y-67911974D01*
X135918800Y-67918100D01*
X135918800Y-68618100D01*
X135918499Y-68624226D01*
X135917599Y-68630293D01*
X135916109Y-68636243D01*
X135914042Y-68642018D01*
X135911420Y-68647562D01*
X135908267Y-68652823D01*
X135904613Y-68657750D01*
X135900494Y-68662294D01*
X135895950Y-68666413D01*
X135891023Y-68670067D01*
X135885762Y-68673220D01*
X135880218Y-68675842D01*
X135874443Y-68677909D01*
X135868493Y-68679399D01*
X135862426Y-68680299D01*
X135856300Y-68680600D01*
X135731300Y-68680600D01*
X135725174Y-68680299D01*
X135719107Y-68679399D01*
X135713157Y-68677909D01*
X135707382Y-68675842D01*
X135701838Y-68673220D01*
X135696577Y-68670067D01*
X135691650Y-68666413D01*
X135687106Y-68662294D01*
X135682987Y-68657750D01*
X135679333Y-68652823D01*
X135676180Y-68647562D01*
X135673558Y-68642018D01*
X135671491Y-68636243D01*
X135670001Y-68630293D01*
X135669101Y-68624226D01*
X135668800Y-68618100D01*
X135668800Y-67918100D01*
X135669101Y-67911974D01*
X135670001Y-67905907D01*
X135671491Y-67899957D01*
X135673558Y-67894182D01*
X135676180Y-67888638D01*
X135679333Y-67883377D01*
X135682987Y-67878450D01*
X135687106Y-67873906D01*
X135691650Y-67869787D01*
X135696577Y-67866133D01*
X135701838Y-67862980D01*
X135707382Y-67860358D01*
X135713157Y-67858291D01*
X135719107Y-67856801D01*
X135725174Y-67855901D01*
X135731300Y-67855600D01*
X135856300Y-67855600D01*
X135862426Y-67855901D01*
X135862426Y-67855901D01*
G37*
D14*
X135793800Y-68268100D03*
D10*
G36*
X135362426Y-67855901D02*
G01*
X135368493Y-67856801D01*
X135374443Y-67858291D01*
X135380218Y-67860358D01*
X135385762Y-67862980D01*
X135391023Y-67866133D01*
X135395950Y-67869787D01*
X135400494Y-67873906D01*
X135404613Y-67878450D01*
X135408267Y-67883377D01*
X135411420Y-67888638D01*
X135414042Y-67894182D01*
X135416109Y-67899957D01*
X135417599Y-67905907D01*
X135418499Y-67911974D01*
X135418800Y-67918100D01*
X135418800Y-68618100D01*
X135418499Y-68624226D01*
X135417599Y-68630293D01*
X135416109Y-68636243D01*
X135414042Y-68642018D01*
X135411420Y-68647562D01*
X135408267Y-68652823D01*
X135404613Y-68657750D01*
X135400494Y-68662294D01*
X135395950Y-68666413D01*
X135391023Y-68670067D01*
X135385762Y-68673220D01*
X135380218Y-68675842D01*
X135374443Y-68677909D01*
X135368493Y-68679399D01*
X135362426Y-68680299D01*
X135356300Y-68680600D01*
X135231300Y-68680600D01*
X135225174Y-68680299D01*
X135219107Y-68679399D01*
X135213157Y-68677909D01*
X135207382Y-68675842D01*
X135201838Y-68673220D01*
X135196577Y-68670067D01*
X135191650Y-68666413D01*
X135187106Y-68662294D01*
X135182987Y-68657750D01*
X135179333Y-68652823D01*
X135176180Y-68647562D01*
X135173558Y-68642018D01*
X135171491Y-68636243D01*
X135170001Y-68630293D01*
X135169101Y-68624226D01*
X135168800Y-68618100D01*
X135168800Y-67918100D01*
X135169101Y-67911974D01*
X135170001Y-67905907D01*
X135171491Y-67899957D01*
X135173558Y-67894182D01*
X135176180Y-67888638D01*
X135179333Y-67883377D01*
X135182987Y-67878450D01*
X135187106Y-67873906D01*
X135191650Y-67869787D01*
X135196577Y-67866133D01*
X135201838Y-67862980D01*
X135207382Y-67860358D01*
X135213157Y-67858291D01*
X135219107Y-67856801D01*
X135225174Y-67855901D01*
X135231300Y-67855600D01*
X135356300Y-67855600D01*
X135362426Y-67855901D01*
X135362426Y-67855901D01*
G37*
D14*
X135293800Y-68268100D03*
D10*
G36*
X134862426Y-67855901D02*
G01*
X134868493Y-67856801D01*
X134874443Y-67858291D01*
X134880218Y-67860358D01*
X134885762Y-67862980D01*
X134891023Y-67866133D01*
X134895950Y-67869787D01*
X134900494Y-67873906D01*
X134904613Y-67878450D01*
X134908267Y-67883377D01*
X134911420Y-67888638D01*
X134914042Y-67894182D01*
X134916109Y-67899957D01*
X134917599Y-67905907D01*
X134918499Y-67911974D01*
X134918800Y-67918100D01*
X134918800Y-68618100D01*
X134918499Y-68624226D01*
X134917599Y-68630293D01*
X134916109Y-68636243D01*
X134914042Y-68642018D01*
X134911420Y-68647562D01*
X134908267Y-68652823D01*
X134904613Y-68657750D01*
X134900494Y-68662294D01*
X134895950Y-68666413D01*
X134891023Y-68670067D01*
X134885762Y-68673220D01*
X134880218Y-68675842D01*
X134874443Y-68677909D01*
X134868493Y-68679399D01*
X134862426Y-68680299D01*
X134856300Y-68680600D01*
X134731300Y-68680600D01*
X134725174Y-68680299D01*
X134719107Y-68679399D01*
X134713157Y-68677909D01*
X134707382Y-68675842D01*
X134701838Y-68673220D01*
X134696577Y-68670067D01*
X134691650Y-68666413D01*
X134687106Y-68662294D01*
X134682987Y-68657750D01*
X134679333Y-68652823D01*
X134676180Y-68647562D01*
X134673558Y-68642018D01*
X134671491Y-68636243D01*
X134670001Y-68630293D01*
X134669101Y-68624226D01*
X134668800Y-68618100D01*
X134668800Y-67918100D01*
X134669101Y-67911974D01*
X134670001Y-67905907D01*
X134671491Y-67899957D01*
X134673558Y-67894182D01*
X134676180Y-67888638D01*
X134679333Y-67883377D01*
X134682987Y-67878450D01*
X134687106Y-67873906D01*
X134691650Y-67869787D01*
X134696577Y-67866133D01*
X134701838Y-67862980D01*
X134707382Y-67860358D01*
X134713157Y-67858291D01*
X134719107Y-67856801D01*
X134725174Y-67855901D01*
X134731300Y-67855600D01*
X134856300Y-67855600D01*
X134862426Y-67855901D01*
X134862426Y-67855901D01*
G37*
D14*
X134793800Y-68268100D03*
D10*
G36*
X134362426Y-67855901D02*
G01*
X134368493Y-67856801D01*
X134374443Y-67858291D01*
X134380218Y-67860358D01*
X134385762Y-67862980D01*
X134391023Y-67866133D01*
X134395950Y-67869787D01*
X134400494Y-67873906D01*
X134404613Y-67878450D01*
X134408267Y-67883377D01*
X134411420Y-67888638D01*
X134414042Y-67894182D01*
X134416109Y-67899957D01*
X134417599Y-67905907D01*
X134418499Y-67911974D01*
X134418800Y-67918100D01*
X134418800Y-68618100D01*
X134418499Y-68624226D01*
X134417599Y-68630293D01*
X134416109Y-68636243D01*
X134414042Y-68642018D01*
X134411420Y-68647562D01*
X134408267Y-68652823D01*
X134404613Y-68657750D01*
X134400494Y-68662294D01*
X134395950Y-68666413D01*
X134391023Y-68670067D01*
X134385762Y-68673220D01*
X134380218Y-68675842D01*
X134374443Y-68677909D01*
X134368493Y-68679399D01*
X134362426Y-68680299D01*
X134356300Y-68680600D01*
X134231300Y-68680600D01*
X134225174Y-68680299D01*
X134219107Y-68679399D01*
X134213157Y-68677909D01*
X134207382Y-68675842D01*
X134201838Y-68673220D01*
X134196577Y-68670067D01*
X134191650Y-68666413D01*
X134187106Y-68662294D01*
X134182987Y-68657750D01*
X134179333Y-68652823D01*
X134176180Y-68647562D01*
X134173558Y-68642018D01*
X134171491Y-68636243D01*
X134170001Y-68630293D01*
X134169101Y-68624226D01*
X134168800Y-68618100D01*
X134168800Y-67918100D01*
X134169101Y-67911974D01*
X134170001Y-67905907D01*
X134171491Y-67899957D01*
X134173558Y-67894182D01*
X134176180Y-67888638D01*
X134179333Y-67883377D01*
X134182987Y-67878450D01*
X134187106Y-67873906D01*
X134191650Y-67869787D01*
X134196577Y-67866133D01*
X134201838Y-67862980D01*
X134207382Y-67860358D01*
X134213157Y-67858291D01*
X134219107Y-67856801D01*
X134225174Y-67855901D01*
X134231300Y-67855600D01*
X134356300Y-67855600D01*
X134362426Y-67855901D01*
X134362426Y-67855901D01*
G37*
D14*
X134293800Y-68268100D03*
D10*
G36*
X133862426Y-67855901D02*
G01*
X133868493Y-67856801D01*
X133874443Y-67858291D01*
X133880218Y-67860358D01*
X133885762Y-67862980D01*
X133891023Y-67866133D01*
X133895950Y-67869787D01*
X133900494Y-67873906D01*
X133904613Y-67878450D01*
X133908267Y-67883377D01*
X133911420Y-67888638D01*
X133914042Y-67894182D01*
X133916109Y-67899957D01*
X133917599Y-67905907D01*
X133918499Y-67911974D01*
X133918800Y-67918100D01*
X133918800Y-68618100D01*
X133918499Y-68624226D01*
X133917599Y-68630293D01*
X133916109Y-68636243D01*
X133914042Y-68642018D01*
X133911420Y-68647562D01*
X133908267Y-68652823D01*
X133904613Y-68657750D01*
X133900494Y-68662294D01*
X133895950Y-68666413D01*
X133891023Y-68670067D01*
X133885762Y-68673220D01*
X133880218Y-68675842D01*
X133874443Y-68677909D01*
X133868493Y-68679399D01*
X133862426Y-68680299D01*
X133856300Y-68680600D01*
X133731300Y-68680600D01*
X133725174Y-68680299D01*
X133719107Y-68679399D01*
X133713157Y-68677909D01*
X133707382Y-68675842D01*
X133701838Y-68673220D01*
X133696577Y-68670067D01*
X133691650Y-68666413D01*
X133687106Y-68662294D01*
X133682987Y-68657750D01*
X133679333Y-68652823D01*
X133676180Y-68647562D01*
X133673558Y-68642018D01*
X133671491Y-68636243D01*
X133670001Y-68630293D01*
X133669101Y-68624226D01*
X133668800Y-68618100D01*
X133668800Y-67918100D01*
X133669101Y-67911974D01*
X133670001Y-67905907D01*
X133671491Y-67899957D01*
X133673558Y-67894182D01*
X133676180Y-67888638D01*
X133679333Y-67883377D01*
X133682987Y-67878450D01*
X133687106Y-67873906D01*
X133691650Y-67869787D01*
X133696577Y-67866133D01*
X133701838Y-67862980D01*
X133707382Y-67860358D01*
X133713157Y-67858291D01*
X133719107Y-67856801D01*
X133725174Y-67855901D01*
X133731300Y-67855600D01*
X133856300Y-67855600D01*
X133862426Y-67855901D01*
X133862426Y-67855901D01*
G37*
D14*
X133793800Y-68268100D03*
D10*
G36*
X133362426Y-67855901D02*
G01*
X133368493Y-67856801D01*
X133374443Y-67858291D01*
X133380218Y-67860358D01*
X133385762Y-67862980D01*
X133391023Y-67866133D01*
X133395950Y-67869787D01*
X133400494Y-67873906D01*
X133404613Y-67878450D01*
X133408267Y-67883377D01*
X133411420Y-67888638D01*
X133414042Y-67894182D01*
X133416109Y-67899957D01*
X133417599Y-67905907D01*
X133418499Y-67911974D01*
X133418800Y-67918100D01*
X133418800Y-68618100D01*
X133418499Y-68624226D01*
X133417599Y-68630293D01*
X133416109Y-68636243D01*
X133414042Y-68642018D01*
X133411420Y-68647562D01*
X133408267Y-68652823D01*
X133404613Y-68657750D01*
X133400494Y-68662294D01*
X133395950Y-68666413D01*
X133391023Y-68670067D01*
X133385762Y-68673220D01*
X133380218Y-68675842D01*
X133374443Y-68677909D01*
X133368493Y-68679399D01*
X133362426Y-68680299D01*
X133356300Y-68680600D01*
X133231300Y-68680600D01*
X133225174Y-68680299D01*
X133219107Y-68679399D01*
X133213157Y-68677909D01*
X133207382Y-68675842D01*
X133201838Y-68673220D01*
X133196577Y-68670067D01*
X133191650Y-68666413D01*
X133187106Y-68662294D01*
X133182987Y-68657750D01*
X133179333Y-68652823D01*
X133176180Y-68647562D01*
X133173558Y-68642018D01*
X133171491Y-68636243D01*
X133170001Y-68630293D01*
X133169101Y-68624226D01*
X133168800Y-68618100D01*
X133168800Y-67918100D01*
X133169101Y-67911974D01*
X133170001Y-67905907D01*
X133171491Y-67899957D01*
X133173558Y-67894182D01*
X133176180Y-67888638D01*
X133179333Y-67883377D01*
X133182987Y-67878450D01*
X133187106Y-67873906D01*
X133191650Y-67869787D01*
X133196577Y-67866133D01*
X133201838Y-67862980D01*
X133207382Y-67860358D01*
X133213157Y-67858291D01*
X133219107Y-67856801D01*
X133225174Y-67855901D01*
X133231300Y-67855600D01*
X133356300Y-67855600D01*
X133362426Y-67855901D01*
X133362426Y-67855901D01*
G37*
D14*
X133293800Y-68268100D03*
D10*
G36*
X132962426Y-68830901D02*
G01*
X132968493Y-68831801D01*
X132974443Y-68833291D01*
X132980218Y-68835358D01*
X132985762Y-68837980D01*
X132991023Y-68841133D01*
X132995950Y-68844787D01*
X133000494Y-68848906D01*
X133004613Y-68853450D01*
X133008267Y-68858377D01*
X133011420Y-68863638D01*
X133014042Y-68869182D01*
X133016109Y-68874957D01*
X133017599Y-68880907D01*
X133018499Y-68886974D01*
X133018800Y-68893100D01*
X133018800Y-69018100D01*
X133018499Y-69024226D01*
X133017599Y-69030293D01*
X133016109Y-69036243D01*
X133014042Y-69042018D01*
X133011420Y-69047562D01*
X133008267Y-69052823D01*
X133004613Y-69057750D01*
X133000494Y-69062294D01*
X132995950Y-69066413D01*
X132991023Y-69070067D01*
X132985762Y-69073220D01*
X132980218Y-69075842D01*
X132974443Y-69077909D01*
X132968493Y-69079399D01*
X132962426Y-69080299D01*
X132956300Y-69080600D01*
X132256300Y-69080600D01*
X132250174Y-69080299D01*
X132244107Y-69079399D01*
X132238157Y-69077909D01*
X132232382Y-69075842D01*
X132226838Y-69073220D01*
X132221577Y-69070067D01*
X132216650Y-69066413D01*
X132212106Y-69062294D01*
X132207987Y-69057750D01*
X132204333Y-69052823D01*
X132201180Y-69047562D01*
X132198558Y-69042018D01*
X132196491Y-69036243D01*
X132195001Y-69030293D01*
X132194101Y-69024226D01*
X132193800Y-69018100D01*
X132193800Y-68893100D01*
X132194101Y-68886974D01*
X132195001Y-68880907D01*
X132196491Y-68874957D01*
X132198558Y-68869182D01*
X132201180Y-68863638D01*
X132204333Y-68858377D01*
X132207987Y-68853450D01*
X132212106Y-68848906D01*
X132216650Y-68844787D01*
X132221577Y-68841133D01*
X132226838Y-68837980D01*
X132232382Y-68835358D01*
X132238157Y-68833291D01*
X132244107Y-68831801D01*
X132250174Y-68830901D01*
X132256300Y-68830600D01*
X132956300Y-68830600D01*
X132962426Y-68830901D01*
X132962426Y-68830901D01*
G37*
D14*
X132606300Y-68955600D03*
D10*
G36*
X132962426Y-69330901D02*
G01*
X132968493Y-69331801D01*
X132974443Y-69333291D01*
X132980218Y-69335358D01*
X132985762Y-69337980D01*
X132991023Y-69341133D01*
X132995950Y-69344787D01*
X133000494Y-69348906D01*
X133004613Y-69353450D01*
X133008267Y-69358377D01*
X133011420Y-69363638D01*
X133014042Y-69369182D01*
X133016109Y-69374957D01*
X133017599Y-69380907D01*
X133018499Y-69386974D01*
X133018800Y-69393100D01*
X133018800Y-69518100D01*
X133018499Y-69524226D01*
X133017599Y-69530293D01*
X133016109Y-69536243D01*
X133014042Y-69542018D01*
X133011420Y-69547562D01*
X133008267Y-69552823D01*
X133004613Y-69557750D01*
X133000494Y-69562294D01*
X132995950Y-69566413D01*
X132991023Y-69570067D01*
X132985762Y-69573220D01*
X132980218Y-69575842D01*
X132974443Y-69577909D01*
X132968493Y-69579399D01*
X132962426Y-69580299D01*
X132956300Y-69580600D01*
X132256300Y-69580600D01*
X132250174Y-69580299D01*
X132244107Y-69579399D01*
X132238157Y-69577909D01*
X132232382Y-69575842D01*
X132226838Y-69573220D01*
X132221577Y-69570067D01*
X132216650Y-69566413D01*
X132212106Y-69562294D01*
X132207987Y-69557750D01*
X132204333Y-69552823D01*
X132201180Y-69547562D01*
X132198558Y-69542018D01*
X132196491Y-69536243D01*
X132195001Y-69530293D01*
X132194101Y-69524226D01*
X132193800Y-69518100D01*
X132193800Y-69393100D01*
X132194101Y-69386974D01*
X132195001Y-69380907D01*
X132196491Y-69374957D01*
X132198558Y-69369182D01*
X132201180Y-69363638D01*
X132204333Y-69358377D01*
X132207987Y-69353450D01*
X132212106Y-69348906D01*
X132216650Y-69344787D01*
X132221577Y-69341133D01*
X132226838Y-69337980D01*
X132232382Y-69335358D01*
X132238157Y-69333291D01*
X132244107Y-69331801D01*
X132250174Y-69330901D01*
X132256300Y-69330600D01*
X132956300Y-69330600D01*
X132962426Y-69330901D01*
X132962426Y-69330901D01*
G37*
D14*
X132606300Y-69455600D03*
D10*
G36*
X132962426Y-69830901D02*
G01*
X132968493Y-69831801D01*
X132974443Y-69833291D01*
X132980218Y-69835358D01*
X132985762Y-69837980D01*
X132991023Y-69841133D01*
X132995950Y-69844787D01*
X133000494Y-69848906D01*
X133004613Y-69853450D01*
X133008267Y-69858377D01*
X133011420Y-69863638D01*
X133014042Y-69869182D01*
X133016109Y-69874957D01*
X133017599Y-69880907D01*
X133018499Y-69886974D01*
X133018800Y-69893100D01*
X133018800Y-70018100D01*
X133018499Y-70024226D01*
X133017599Y-70030293D01*
X133016109Y-70036243D01*
X133014042Y-70042018D01*
X133011420Y-70047562D01*
X133008267Y-70052823D01*
X133004613Y-70057750D01*
X133000494Y-70062294D01*
X132995950Y-70066413D01*
X132991023Y-70070067D01*
X132985762Y-70073220D01*
X132980218Y-70075842D01*
X132974443Y-70077909D01*
X132968493Y-70079399D01*
X132962426Y-70080299D01*
X132956300Y-70080600D01*
X132256300Y-70080600D01*
X132250174Y-70080299D01*
X132244107Y-70079399D01*
X132238157Y-70077909D01*
X132232382Y-70075842D01*
X132226838Y-70073220D01*
X132221577Y-70070067D01*
X132216650Y-70066413D01*
X132212106Y-70062294D01*
X132207987Y-70057750D01*
X132204333Y-70052823D01*
X132201180Y-70047562D01*
X132198558Y-70042018D01*
X132196491Y-70036243D01*
X132195001Y-70030293D01*
X132194101Y-70024226D01*
X132193800Y-70018100D01*
X132193800Y-69893100D01*
X132194101Y-69886974D01*
X132195001Y-69880907D01*
X132196491Y-69874957D01*
X132198558Y-69869182D01*
X132201180Y-69863638D01*
X132204333Y-69858377D01*
X132207987Y-69853450D01*
X132212106Y-69848906D01*
X132216650Y-69844787D01*
X132221577Y-69841133D01*
X132226838Y-69837980D01*
X132232382Y-69835358D01*
X132238157Y-69833291D01*
X132244107Y-69831801D01*
X132250174Y-69830901D01*
X132256300Y-69830600D01*
X132956300Y-69830600D01*
X132962426Y-69830901D01*
X132962426Y-69830901D01*
G37*
D14*
X132606300Y-69955600D03*
D10*
G36*
X132962426Y-70330901D02*
G01*
X132968493Y-70331801D01*
X132974443Y-70333291D01*
X132980218Y-70335358D01*
X132985762Y-70337980D01*
X132991023Y-70341133D01*
X132995950Y-70344787D01*
X133000494Y-70348906D01*
X133004613Y-70353450D01*
X133008267Y-70358377D01*
X133011420Y-70363638D01*
X133014042Y-70369182D01*
X133016109Y-70374957D01*
X133017599Y-70380907D01*
X133018499Y-70386974D01*
X133018800Y-70393100D01*
X133018800Y-70518100D01*
X133018499Y-70524226D01*
X133017599Y-70530293D01*
X133016109Y-70536243D01*
X133014042Y-70542018D01*
X133011420Y-70547562D01*
X133008267Y-70552823D01*
X133004613Y-70557750D01*
X133000494Y-70562294D01*
X132995950Y-70566413D01*
X132991023Y-70570067D01*
X132985762Y-70573220D01*
X132980218Y-70575842D01*
X132974443Y-70577909D01*
X132968493Y-70579399D01*
X132962426Y-70580299D01*
X132956300Y-70580600D01*
X132256300Y-70580600D01*
X132250174Y-70580299D01*
X132244107Y-70579399D01*
X132238157Y-70577909D01*
X132232382Y-70575842D01*
X132226838Y-70573220D01*
X132221577Y-70570067D01*
X132216650Y-70566413D01*
X132212106Y-70562294D01*
X132207987Y-70557750D01*
X132204333Y-70552823D01*
X132201180Y-70547562D01*
X132198558Y-70542018D01*
X132196491Y-70536243D01*
X132195001Y-70530293D01*
X132194101Y-70524226D01*
X132193800Y-70518100D01*
X132193800Y-70393100D01*
X132194101Y-70386974D01*
X132195001Y-70380907D01*
X132196491Y-70374957D01*
X132198558Y-70369182D01*
X132201180Y-70363638D01*
X132204333Y-70358377D01*
X132207987Y-70353450D01*
X132212106Y-70348906D01*
X132216650Y-70344787D01*
X132221577Y-70341133D01*
X132226838Y-70337980D01*
X132232382Y-70335358D01*
X132238157Y-70333291D01*
X132244107Y-70331801D01*
X132250174Y-70330901D01*
X132256300Y-70330600D01*
X132956300Y-70330600D01*
X132962426Y-70330901D01*
X132962426Y-70330901D01*
G37*
D14*
X132606300Y-70455600D03*
D10*
G36*
X132962426Y-70830901D02*
G01*
X132968493Y-70831801D01*
X132974443Y-70833291D01*
X132980218Y-70835358D01*
X132985762Y-70837980D01*
X132991023Y-70841133D01*
X132995950Y-70844787D01*
X133000494Y-70848906D01*
X133004613Y-70853450D01*
X133008267Y-70858377D01*
X133011420Y-70863638D01*
X133014042Y-70869182D01*
X133016109Y-70874957D01*
X133017599Y-70880907D01*
X133018499Y-70886974D01*
X133018800Y-70893100D01*
X133018800Y-71018100D01*
X133018499Y-71024226D01*
X133017599Y-71030293D01*
X133016109Y-71036243D01*
X133014042Y-71042018D01*
X133011420Y-71047562D01*
X133008267Y-71052823D01*
X133004613Y-71057750D01*
X133000494Y-71062294D01*
X132995950Y-71066413D01*
X132991023Y-71070067D01*
X132985762Y-71073220D01*
X132980218Y-71075842D01*
X132974443Y-71077909D01*
X132968493Y-71079399D01*
X132962426Y-71080299D01*
X132956300Y-71080600D01*
X132256300Y-71080600D01*
X132250174Y-71080299D01*
X132244107Y-71079399D01*
X132238157Y-71077909D01*
X132232382Y-71075842D01*
X132226838Y-71073220D01*
X132221577Y-71070067D01*
X132216650Y-71066413D01*
X132212106Y-71062294D01*
X132207987Y-71057750D01*
X132204333Y-71052823D01*
X132201180Y-71047562D01*
X132198558Y-71042018D01*
X132196491Y-71036243D01*
X132195001Y-71030293D01*
X132194101Y-71024226D01*
X132193800Y-71018100D01*
X132193800Y-70893100D01*
X132194101Y-70886974D01*
X132195001Y-70880907D01*
X132196491Y-70874957D01*
X132198558Y-70869182D01*
X132201180Y-70863638D01*
X132204333Y-70858377D01*
X132207987Y-70853450D01*
X132212106Y-70848906D01*
X132216650Y-70844787D01*
X132221577Y-70841133D01*
X132226838Y-70837980D01*
X132232382Y-70835358D01*
X132238157Y-70833291D01*
X132244107Y-70831801D01*
X132250174Y-70830901D01*
X132256300Y-70830600D01*
X132956300Y-70830600D01*
X132962426Y-70830901D01*
X132962426Y-70830901D01*
G37*
D14*
X132606300Y-70955600D03*
D10*
G36*
X132962426Y-71330901D02*
G01*
X132968493Y-71331801D01*
X132974443Y-71333291D01*
X132980218Y-71335358D01*
X132985762Y-71337980D01*
X132991023Y-71341133D01*
X132995950Y-71344787D01*
X133000494Y-71348906D01*
X133004613Y-71353450D01*
X133008267Y-71358377D01*
X133011420Y-71363638D01*
X133014042Y-71369182D01*
X133016109Y-71374957D01*
X133017599Y-71380907D01*
X133018499Y-71386974D01*
X133018800Y-71393100D01*
X133018800Y-71518100D01*
X133018499Y-71524226D01*
X133017599Y-71530293D01*
X133016109Y-71536243D01*
X133014042Y-71542018D01*
X133011420Y-71547562D01*
X133008267Y-71552823D01*
X133004613Y-71557750D01*
X133000494Y-71562294D01*
X132995950Y-71566413D01*
X132991023Y-71570067D01*
X132985762Y-71573220D01*
X132980218Y-71575842D01*
X132974443Y-71577909D01*
X132968493Y-71579399D01*
X132962426Y-71580299D01*
X132956300Y-71580600D01*
X132256300Y-71580600D01*
X132250174Y-71580299D01*
X132244107Y-71579399D01*
X132238157Y-71577909D01*
X132232382Y-71575842D01*
X132226838Y-71573220D01*
X132221577Y-71570067D01*
X132216650Y-71566413D01*
X132212106Y-71562294D01*
X132207987Y-71557750D01*
X132204333Y-71552823D01*
X132201180Y-71547562D01*
X132198558Y-71542018D01*
X132196491Y-71536243D01*
X132195001Y-71530293D01*
X132194101Y-71524226D01*
X132193800Y-71518100D01*
X132193800Y-71393100D01*
X132194101Y-71386974D01*
X132195001Y-71380907D01*
X132196491Y-71374957D01*
X132198558Y-71369182D01*
X132201180Y-71363638D01*
X132204333Y-71358377D01*
X132207987Y-71353450D01*
X132212106Y-71348906D01*
X132216650Y-71344787D01*
X132221577Y-71341133D01*
X132226838Y-71337980D01*
X132232382Y-71335358D01*
X132238157Y-71333291D01*
X132244107Y-71331801D01*
X132250174Y-71330901D01*
X132256300Y-71330600D01*
X132956300Y-71330600D01*
X132962426Y-71330901D01*
X132962426Y-71330901D01*
G37*
D14*
X132606300Y-71455600D03*
M02*
