G04 #@! TF.GenerationSoftware,KiCad,Pcbnew,(5.1.4-0)*
G04 #@! TF.CreationDate,2020-07-13T22:24:35+08:00*
G04 #@! TF.ProjectId,attiny3217,61747469-6e79-4333-9231-372e6b696361,rev?*
G04 #@! TF.SameCoordinates,Original*
G04 #@! TF.FileFunction,Soldermask,Top*
G04 #@! TF.FilePolarity,Negative*
%FSLAX46Y46*%
G04 Gerber Fmt 4.6, Leading zero omitted, Abs format (unit mm)*
G04 Created by KiCad (PCBNEW (5.1.4-0)) date 2020-07-13 22:24:35*
%MOMM*%
%LPD*%
G04 APERTURE LIST*
%ADD10C,0.100000*%
G04 APERTURE END LIST*
D10*
G36*
X137984800Y-95084200D02*
G01*
X136182800Y-95084200D01*
X136182800Y-93282200D01*
X137984800Y-93282200D01*
X137984800Y-95084200D01*
X137984800Y-95084200D01*
G37*
G36*
X134654242Y-93288718D02*
G01*
X134720427Y-93295237D01*
X134890266Y-93346757D01*
X135046791Y-93430422D01*
X135082529Y-93459752D01*
X135183986Y-93543014D01*
X135267248Y-93644471D01*
X135296578Y-93680209D01*
X135380243Y-93836734D01*
X135431763Y-94006573D01*
X135449159Y-94183200D01*
X135431763Y-94359827D01*
X135380243Y-94529666D01*
X135296578Y-94686191D01*
X135279190Y-94707378D01*
X135183986Y-94823386D01*
X135082529Y-94906648D01*
X135046791Y-94935978D01*
X134890266Y-95019643D01*
X134720427Y-95071163D01*
X134654243Y-95077681D01*
X134588060Y-95084200D01*
X134499540Y-95084200D01*
X134433357Y-95077681D01*
X134367173Y-95071163D01*
X134197334Y-95019643D01*
X134040809Y-94935978D01*
X134005071Y-94906648D01*
X133903614Y-94823386D01*
X133808410Y-94707378D01*
X133791022Y-94686191D01*
X133707357Y-94529666D01*
X133655837Y-94359827D01*
X133638441Y-94183200D01*
X133655837Y-94006573D01*
X133707357Y-93836734D01*
X133791022Y-93680209D01*
X133820352Y-93644471D01*
X133903614Y-93543014D01*
X134005071Y-93459752D01*
X134040809Y-93430422D01*
X134197334Y-93346757D01*
X134367173Y-93295237D01*
X134433358Y-93288718D01*
X134499540Y-93282200D01*
X134588060Y-93282200D01*
X134654242Y-93288718D01*
X134654242Y-93288718D01*
G37*
G36*
X132114242Y-93288718D02*
G01*
X132180427Y-93295237D01*
X132350266Y-93346757D01*
X132506791Y-93430422D01*
X132542529Y-93459752D01*
X132643986Y-93543014D01*
X132727248Y-93644471D01*
X132756578Y-93680209D01*
X132840243Y-93836734D01*
X132891763Y-94006573D01*
X132909159Y-94183200D01*
X132891763Y-94359827D01*
X132840243Y-94529666D01*
X132756578Y-94686191D01*
X132739190Y-94707378D01*
X132643986Y-94823386D01*
X132542529Y-94906648D01*
X132506791Y-94935978D01*
X132350266Y-95019643D01*
X132180427Y-95071163D01*
X132114243Y-95077681D01*
X132048060Y-95084200D01*
X131959540Y-95084200D01*
X131893357Y-95077681D01*
X131827173Y-95071163D01*
X131657334Y-95019643D01*
X131500809Y-94935978D01*
X131465071Y-94906648D01*
X131363614Y-94823386D01*
X131268410Y-94707378D01*
X131251022Y-94686191D01*
X131167357Y-94529666D01*
X131115837Y-94359827D01*
X131098441Y-94183200D01*
X131115837Y-94006573D01*
X131167357Y-93836734D01*
X131251022Y-93680209D01*
X131280352Y-93644471D01*
X131363614Y-93543014D01*
X131465071Y-93459752D01*
X131500809Y-93430422D01*
X131657334Y-93346757D01*
X131827173Y-93295237D01*
X131893358Y-93288718D01*
X131959540Y-93282200D01*
X132048060Y-93282200D01*
X132114242Y-93288718D01*
X132114242Y-93288718D01*
G37*
G36*
X142274243Y-93187119D02*
G01*
X142340427Y-93193637D01*
X142510266Y-93245157D01*
X142666791Y-93328822D01*
X142688646Y-93346758D01*
X142803986Y-93441414D01*
X142887248Y-93542871D01*
X142916578Y-93578609D01*
X143000243Y-93735134D01*
X143051763Y-93904973D01*
X143069159Y-94081600D01*
X143051763Y-94258227D01*
X143000243Y-94428066D01*
X142916578Y-94584591D01*
X142908211Y-94594786D01*
X142803986Y-94721786D01*
X142702529Y-94805048D01*
X142666791Y-94834378D01*
X142510266Y-94918043D01*
X142340427Y-94969563D01*
X142274242Y-94976082D01*
X142208060Y-94982600D01*
X142119540Y-94982600D01*
X142053357Y-94976081D01*
X141987173Y-94969563D01*
X141817334Y-94918043D01*
X141660809Y-94834378D01*
X141625071Y-94805048D01*
X141523614Y-94721786D01*
X141419389Y-94594786D01*
X141411022Y-94584591D01*
X141327357Y-94428066D01*
X141275837Y-94258227D01*
X141258441Y-94081600D01*
X141275837Y-93904973D01*
X141327357Y-93735134D01*
X141411022Y-93578609D01*
X141440352Y-93542871D01*
X141523614Y-93441414D01*
X141638954Y-93346758D01*
X141660809Y-93328822D01*
X141817334Y-93245157D01*
X141987173Y-93193637D01*
X142053357Y-93187119D01*
X142119540Y-93180600D01*
X142208060Y-93180600D01*
X142274243Y-93187119D01*
X142274243Y-93187119D01*
G37*
G36*
X127161242Y-93060118D02*
G01*
X127227427Y-93066637D01*
X127397266Y-93118157D01*
X127553791Y-93201822D01*
X127589529Y-93231152D01*
X127690986Y-93314414D01*
X127774248Y-93415871D01*
X127803578Y-93451609D01*
X127887243Y-93608134D01*
X127938763Y-93777973D01*
X127956159Y-93954600D01*
X127938763Y-94131227D01*
X127887243Y-94301066D01*
X127803578Y-94457591D01*
X127774248Y-94493329D01*
X127690986Y-94594786D01*
X127589529Y-94678048D01*
X127553791Y-94707378D01*
X127397266Y-94791043D01*
X127227427Y-94842563D01*
X127161243Y-94849081D01*
X127095060Y-94855600D01*
X127006540Y-94855600D01*
X126940358Y-94849082D01*
X126874173Y-94842563D01*
X126704334Y-94791043D01*
X126547809Y-94707378D01*
X126512071Y-94678048D01*
X126410614Y-94594786D01*
X126327352Y-94493329D01*
X126298022Y-94457591D01*
X126214357Y-94301066D01*
X126162837Y-94131227D01*
X126145441Y-93954600D01*
X126162837Y-93777973D01*
X126214357Y-93608134D01*
X126298022Y-93451609D01*
X126327352Y-93415871D01*
X126410614Y-93314414D01*
X126512071Y-93231152D01*
X126547809Y-93201822D01*
X126704334Y-93118157D01*
X126874173Y-93066637D01*
X126940358Y-93060118D01*
X127006540Y-93053600D01*
X127095060Y-93053600D01*
X127161242Y-93060118D01*
X127161242Y-93060118D01*
G37*
G36*
X142274242Y-90647118D02*
G01*
X142340427Y-90653637D01*
X142510266Y-90705157D01*
X142666791Y-90788822D01*
X142702529Y-90818152D01*
X142803986Y-90901414D01*
X142887248Y-91002871D01*
X142916578Y-91038609D01*
X143000243Y-91195134D01*
X143051763Y-91364973D01*
X143069159Y-91541600D01*
X143051763Y-91718227D01*
X143000243Y-91888066D01*
X142916578Y-92044591D01*
X142908211Y-92054786D01*
X142803986Y-92181786D01*
X142702529Y-92265048D01*
X142666791Y-92294378D01*
X142510266Y-92378043D01*
X142340427Y-92429563D01*
X142274242Y-92436082D01*
X142208060Y-92442600D01*
X142119540Y-92442600D01*
X142053358Y-92436082D01*
X141987173Y-92429563D01*
X141817334Y-92378043D01*
X141660809Y-92294378D01*
X141625071Y-92265048D01*
X141523614Y-92181786D01*
X141419389Y-92054786D01*
X141411022Y-92044591D01*
X141327357Y-91888066D01*
X141275837Y-91718227D01*
X141258441Y-91541600D01*
X141275837Y-91364973D01*
X141327357Y-91195134D01*
X141411022Y-91038609D01*
X141440352Y-91002871D01*
X141523614Y-90901414D01*
X141625071Y-90818152D01*
X141660809Y-90788822D01*
X141817334Y-90705157D01*
X141987173Y-90653637D01*
X142053358Y-90647118D01*
X142119540Y-90640600D01*
X142208060Y-90640600D01*
X142274242Y-90647118D01*
X142274242Y-90647118D01*
G37*
G36*
X127161243Y-90520119D02*
G01*
X127227427Y-90526637D01*
X127397266Y-90578157D01*
X127553791Y-90661822D01*
X127589529Y-90691152D01*
X127690986Y-90774414D01*
X127774248Y-90875871D01*
X127803578Y-90911609D01*
X127887243Y-91068134D01*
X127938763Y-91237973D01*
X127956159Y-91414600D01*
X127938763Y-91591227D01*
X127887243Y-91761066D01*
X127803578Y-91917591D01*
X127774248Y-91953329D01*
X127690986Y-92054786D01*
X127589529Y-92138048D01*
X127553791Y-92167378D01*
X127397266Y-92251043D01*
X127227427Y-92302563D01*
X127161242Y-92309082D01*
X127095060Y-92315600D01*
X127006540Y-92315600D01*
X126940358Y-92309082D01*
X126874173Y-92302563D01*
X126704334Y-92251043D01*
X126547809Y-92167378D01*
X126512071Y-92138048D01*
X126410614Y-92054786D01*
X126327352Y-91953329D01*
X126298022Y-91917591D01*
X126214357Y-91761066D01*
X126162837Y-91591227D01*
X126145441Y-91414600D01*
X126162837Y-91237973D01*
X126214357Y-91068134D01*
X126298022Y-90911609D01*
X126327352Y-90875871D01*
X126410614Y-90774414D01*
X126512071Y-90691152D01*
X126547809Y-90661822D01*
X126704334Y-90578157D01*
X126874173Y-90526637D01*
X126940357Y-90520119D01*
X127006540Y-90513600D01*
X127095060Y-90513600D01*
X127161243Y-90520119D01*
X127161243Y-90520119D01*
G37*
G36*
X131927868Y-90319565D02*
G01*
X131966538Y-90331296D01*
X132002177Y-90350346D01*
X132033417Y-90375983D01*
X132059054Y-90407223D01*
X132078104Y-90442862D01*
X132089835Y-90481532D01*
X132094400Y-90527888D01*
X132094400Y-91179112D01*
X132089835Y-91225468D01*
X132078104Y-91264138D01*
X132059054Y-91299777D01*
X132033417Y-91331017D01*
X132002177Y-91356654D01*
X131966538Y-91375704D01*
X131927868Y-91387435D01*
X131881512Y-91392000D01*
X130805288Y-91392000D01*
X130758932Y-91387435D01*
X130720262Y-91375704D01*
X130684623Y-91356654D01*
X130653383Y-91331017D01*
X130627746Y-91299777D01*
X130608696Y-91264138D01*
X130596965Y-91225468D01*
X130592400Y-91179112D01*
X130592400Y-90527888D01*
X130596965Y-90481532D01*
X130608696Y-90442862D01*
X130627746Y-90407223D01*
X130653383Y-90375983D01*
X130684623Y-90350346D01*
X130720262Y-90331296D01*
X130758932Y-90319565D01*
X130805288Y-90315000D01*
X131881512Y-90315000D01*
X131927868Y-90319565D01*
X131927868Y-90319565D01*
G37*
G36*
X138836668Y-90243365D02*
G01*
X138875338Y-90255096D01*
X138910977Y-90274146D01*
X138942217Y-90299783D01*
X138967854Y-90331023D01*
X138986904Y-90366662D01*
X138998635Y-90405332D01*
X139003200Y-90451688D01*
X139003200Y-91102912D01*
X138998635Y-91149268D01*
X138986904Y-91187938D01*
X138967854Y-91223577D01*
X138942217Y-91254817D01*
X138910977Y-91280454D01*
X138875338Y-91299504D01*
X138836668Y-91311235D01*
X138790312Y-91315800D01*
X137714088Y-91315800D01*
X137667732Y-91311235D01*
X137629062Y-91299504D01*
X137593423Y-91280454D01*
X137562183Y-91254817D01*
X137536546Y-91223577D01*
X137517496Y-91187938D01*
X137505765Y-91149268D01*
X137501200Y-91102912D01*
X137501200Y-90451688D01*
X137505765Y-90405332D01*
X137517496Y-90366662D01*
X137536546Y-90331023D01*
X137562183Y-90299783D01*
X137593423Y-90274146D01*
X137629062Y-90255096D01*
X137667732Y-90243365D01*
X137714088Y-90238800D01*
X138790312Y-90238800D01*
X138836668Y-90243365D01*
X138836668Y-90243365D01*
G37*
G36*
X135598800Y-91137200D02*
G01*
X133996800Y-91137200D01*
X133996800Y-89535200D01*
X135598800Y-89535200D01*
X135598800Y-91137200D01*
X135598800Y-91137200D01*
G37*
G36*
X142274242Y-88107118D02*
G01*
X142340427Y-88113637D01*
X142510266Y-88165157D01*
X142666791Y-88248822D01*
X142702529Y-88278152D01*
X142803986Y-88361414D01*
X142872225Y-88444565D01*
X142916578Y-88498609D01*
X142916579Y-88498611D01*
X142999043Y-88652888D01*
X143000243Y-88655134D01*
X143051763Y-88824973D01*
X143069159Y-89001600D01*
X143051763Y-89178227D01*
X143000243Y-89348066D01*
X142916578Y-89504591D01*
X142908211Y-89514786D01*
X142803986Y-89641786D01*
X142702529Y-89725048D01*
X142666791Y-89754378D01*
X142510266Y-89838043D01*
X142340427Y-89889563D01*
X142274243Y-89896081D01*
X142208060Y-89902600D01*
X142119540Y-89902600D01*
X142053357Y-89896081D01*
X141987173Y-89889563D01*
X141817334Y-89838043D01*
X141660809Y-89754378D01*
X141625071Y-89725048D01*
X141523614Y-89641786D01*
X141419389Y-89514786D01*
X141411022Y-89504591D01*
X141327357Y-89348066D01*
X141275837Y-89178227D01*
X141258441Y-89001600D01*
X141275837Y-88824973D01*
X141327357Y-88655134D01*
X141328558Y-88652888D01*
X141411021Y-88498611D01*
X141411022Y-88498609D01*
X141455375Y-88444565D01*
X141523614Y-88361414D01*
X141625071Y-88278152D01*
X141660809Y-88248822D01*
X141817334Y-88165157D01*
X141987173Y-88113637D01*
X142053358Y-88107118D01*
X142119540Y-88100600D01*
X142208060Y-88100600D01*
X142274242Y-88107118D01*
X142274242Y-88107118D01*
G37*
G36*
X127161242Y-87980118D02*
G01*
X127227427Y-87986637D01*
X127397266Y-88038157D01*
X127553791Y-88121822D01*
X127589529Y-88151152D01*
X127690986Y-88234414D01*
X127774248Y-88335871D01*
X127803578Y-88371609D01*
X127803579Y-88371611D01*
X127882287Y-88518861D01*
X127887243Y-88528134D01*
X127938763Y-88697973D01*
X127956159Y-88874600D01*
X127938763Y-89051227D01*
X127887243Y-89221066D01*
X127803578Y-89377591D01*
X127780711Y-89405454D01*
X127690986Y-89514786D01*
X127589529Y-89598048D01*
X127553791Y-89627378D01*
X127397266Y-89711043D01*
X127227427Y-89762563D01*
X127161243Y-89769081D01*
X127095060Y-89775600D01*
X127006540Y-89775600D01*
X126940357Y-89769081D01*
X126874173Y-89762563D01*
X126704334Y-89711043D01*
X126547809Y-89627378D01*
X126512071Y-89598048D01*
X126410614Y-89514786D01*
X126320889Y-89405454D01*
X126298022Y-89377591D01*
X126214357Y-89221066D01*
X126162837Y-89051227D01*
X126145441Y-88874600D01*
X126162837Y-88697973D01*
X126214357Y-88528134D01*
X126219314Y-88518861D01*
X126298021Y-88371611D01*
X126298022Y-88371609D01*
X126327352Y-88335871D01*
X126410614Y-88234414D01*
X126512071Y-88151152D01*
X126547809Y-88121822D01*
X126704334Y-88038157D01*
X126874173Y-87986637D01*
X126940358Y-87980118D01*
X127006540Y-87973600D01*
X127095060Y-87973600D01*
X127161242Y-87980118D01*
X127161242Y-87980118D01*
G37*
G36*
X131927868Y-88444565D02*
G01*
X131966538Y-88456296D01*
X132002177Y-88475346D01*
X132033417Y-88500983D01*
X132059054Y-88532223D01*
X132078104Y-88567862D01*
X132089835Y-88606532D01*
X132094400Y-88652888D01*
X132094400Y-89304112D01*
X132089835Y-89350468D01*
X132078104Y-89389138D01*
X132059054Y-89424777D01*
X132033417Y-89456017D01*
X132002177Y-89481654D01*
X131966538Y-89500704D01*
X131927868Y-89512435D01*
X131881512Y-89517000D01*
X130805288Y-89517000D01*
X130758932Y-89512435D01*
X130720262Y-89500704D01*
X130684623Y-89481654D01*
X130653383Y-89456017D01*
X130627746Y-89424777D01*
X130608696Y-89389138D01*
X130596965Y-89350468D01*
X130592400Y-89304112D01*
X130592400Y-88652888D01*
X130596965Y-88606532D01*
X130608696Y-88567862D01*
X130627746Y-88532223D01*
X130653383Y-88500983D01*
X130684623Y-88475346D01*
X130720262Y-88456296D01*
X130758932Y-88444565D01*
X130805288Y-88440000D01*
X131881512Y-88440000D01*
X131927868Y-88444565D01*
X131927868Y-88444565D01*
G37*
G36*
X138836668Y-88368365D02*
G01*
X138875338Y-88380096D01*
X138910977Y-88399146D01*
X138942217Y-88424783D01*
X138967854Y-88456023D01*
X138986904Y-88491662D01*
X138998635Y-88530332D01*
X139003200Y-88576688D01*
X139003200Y-89227912D01*
X138998635Y-89274268D01*
X138986904Y-89312938D01*
X138967854Y-89348577D01*
X138942217Y-89379817D01*
X138910977Y-89405454D01*
X138875338Y-89424504D01*
X138836668Y-89436235D01*
X138790312Y-89440800D01*
X137714088Y-89440800D01*
X137667732Y-89436235D01*
X137629062Y-89424504D01*
X137593423Y-89405454D01*
X137562183Y-89379817D01*
X137536546Y-89348577D01*
X137517496Y-89312938D01*
X137505765Y-89274268D01*
X137501200Y-89227912D01*
X137501200Y-88576688D01*
X137505765Y-88530332D01*
X137517496Y-88491662D01*
X137536546Y-88456023D01*
X137562183Y-88424783D01*
X137593423Y-88399146D01*
X137629062Y-88380096D01*
X137667732Y-88368365D01*
X137714088Y-88363800D01*
X138790312Y-88363800D01*
X138836668Y-88368365D01*
X138836668Y-88368365D01*
G37*
G36*
X142274243Y-85567119D02*
G01*
X142340427Y-85573637D01*
X142510266Y-85625157D01*
X142666791Y-85708822D01*
X142671510Y-85712695D01*
X142803986Y-85821414D01*
X142872654Y-85905088D01*
X142916578Y-85958609D01*
X143000243Y-86115134D01*
X143051763Y-86284973D01*
X143069159Y-86461600D01*
X143051763Y-86638227D01*
X143000243Y-86808066D01*
X142916578Y-86964591D01*
X142908211Y-86974786D01*
X142803986Y-87101786D01*
X142702529Y-87185048D01*
X142666791Y-87214378D01*
X142510266Y-87298043D01*
X142340427Y-87349563D01*
X142274242Y-87356082D01*
X142208060Y-87362600D01*
X142119540Y-87362600D01*
X142053358Y-87356082D01*
X141987173Y-87349563D01*
X141817334Y-87298043D01*
X141660809Y-87214378D01*
X141625071Y-87185048D01*
X141523614Y-87101786D01*
X141419389Y-86974786D01*
X141411022Y-86964591D01*
X141327357Y-86808066D01*
X141275837Y-86638227D01*
X141258441Y-86461600D01*
X141275837Y-86284973D01*
X141327357Y-86115134D01*
X141411022Y-85958609D01*
X141454946Y-85905088D01*
X141523614Y-85821414D01*
X141656090Y-85712695D01*
X141660809Y-85708822D01*
X141817334Y-85625157D01*
X141987173Y-85573637D01*
X142053357Y-85567119D01*
X142119540Y-85560600D01*
X142208060Y-85560600D01*
X142274243Y-85567119D01*
X142274243Y-85567119D01*
G37*
G36*
X127161243Y-85440119D02*
G01*
X127227427Y-85446637D01*
X127397266Y-85498157D01*
X127553791Y-85581822D01*
X127589460Y-85611095D01*
X127690986Y-85694414D01*
X127764853Y-85784423D01*
X127803578Y-85831609D01*
X127887243Y-85988134D01*
X127938763Y-86157973D01*
X127956159Y-86334600D01*
X127938763Y-86511227D01*
X127888483Y-86676977D01*
X127887242Y-86681068D01*
X127872730Y-86708217D01*
X127803578Y-86837591D01*
X127774248Y-86873329D01*
X127690986Y-86974786D01*
X127589529Y-87058048D01*
X127553791Y-87087378D01*
X127397266Y-87171043D01*
X127227427Y-87222563D01*
X127161242Y-87229082D01*
X127095060Y-87235600D01*
X127006540Y-87235600D01*
X126940358Y-87229082D01*
X126874173Y-87222563D01*
X126704334Y-87171043D01*
X126547809Y-87087378D01*
X126512071Y-87058048D01*
X126410614Y-86974786D01*
X126327352Y-86873329D01*
X126298022Y-86837591D01*
X126228870Y-86708217D01*
X126214358Y-86681068D01*
X126213117Y-86676977D01*
X126162837Y-86511227D01*
X126145441Y-86334600D01*
X126162837Y-86157973D01*
X126214357Y-85988134D01*
X126298022Y-85831609D01*
X126336747Y-85784423D01*
X126410614Y-85694414D01*
X126512140Y-85611095D01*
X126547809Y-85581822D01*
X126704334Y-85498157D01*
X126874173Y-85446637D01*
X126940357Y-85440119D01*
X127006540Y-85433600D01*
X127095060Y-85433600D01*
X127161243Y-85440119D01*
X127161243Y-85440119D01*
G37*
G36*
X139014468Y-85696765D02*
G01*
X139053138Y-85708496D01*
X139088777Y-85727546D01*
X139120017Y-85753183D01*
X139145654Y-85784423D01*
X139164704Y-85820062D01*
X139176435Y-85858732D01*
X139181000Y-85905088D01*
X139181000Y-86556312D01*
X139176435Y-86602668D01*
X139164704Y-86641338D01*
X139145654Y-86676977D01*
X139120017Y-86708217D01*
X139088777Y-86733854D01*
X139053138Y-86752904D01*
X139014468Y-86764635D01*
X138968112Y-86769200D01*
X137891888Y-86769200D01*
X137845532Y-86764635D01*
X137806862Y-86752904D01*
X137771223Y-86733854D01*
X137739983Y-86708217D01*
X137714346Y-86676977D01*
X137695296Y-86641338D01*
X137683565Y-86602668D01*
X137679000Y-86556312D01*
X137679000Y-85905088D01*
X137683565Y-85858732D01*
X137695296Y-85820062D01*
X137714346Y-85784423D01*
X137739983Y-85753183D01*
X137771223Y-85727546D01*
X137806862Y-85708496D01*
X137845532Y-85696765D01*
X137891888Y-85692200D01*
X138968112Y-85692200D01*
X139014468Y-85696765D01*
X139014468Y-85696765D01*
G37*
G36*
X131953268Y-85595165D02*
G01*
X131991938Y-85606896D01*
X132027577Y-85625946D01*
X132058817Y-85651583D01*
X132084454Y-85682823D01*
X132103504Y-85718462D01*
X132115235Y-85757132D01*
X132119800Y-85803488D01*
X132119800Y-86454712D01*
X132115235Y-86501068D01*
X132103504Y-86539738D01*
X132084454Y-86575377D01*
X132058817Y-86606617D01*
X132027577Y-86632254D01*
X131991938Y-86651304D01*
X131953268Y-86663035D01*
X131906912Y-86667600D01*
X130830688Y-86667600D01*
X130784332Y-86663035D01*
X130745662Y-86651304D01*
X130710023Y-86632254D01*
X130678783Y-86606617D01*
X130653146Y-86575377D01*
X130634096Y-86539738D01*
X130622365Y-86501068D01*
X130617800Y-86454712D01*
X130617800Y-85803488D01*
X130622365Y-85757132D01*
X130634096Y-85718462D01*
X130653146Y-85682823D01*
X130678783Y-85651583D01*
X130710023Y-85625946D01*
X130745662Y-85606896D01*
X130784332Y-85595165D01*
X130830688Y-85590600D01*
X131906912Y-85590600D01*
X131953268Y-85595165D01*
X131953268Y-85595165D01*
G37*
G36*
X139014468Y-83821765D02*
G01*
X139053138Y-83833496D01*
X139088777Y-83852546D01*
X139120017Y-83878183D01*
X139145654Y-83909423D01*
X139164704Y-83945062D01*
X139176435Y-83983732D01*
X139181000Y-84030088D01*
X139181000Y-84681312D01*
X139176435Y-84727668D01*
X139164704Y-84766338D01*
X139145654Y-84801977D01*
X139120017Y-84833217D01*
X139088777Y-84858854D01*
X139053138Y-84877904D01*
X139014468Y-84889635D01*
X138968112Y-84894200D01*
X137891888Y-84894200D01*
X137845532Y-84889635D01*
X137806862Y-84877904D01*
X137771223Y-84858854D01*
X137739983Y-84833217D01*
X137714346Y-84801977D01*
X137695296Y-84766338D01*
X137683565Y-84727668D01*
X137679000Y-84681312D01*
X137679000Y-84030088D01*
X137683565Y-83983732D01*
X137695296Y-83945062D01*
X137714346Y-83909423D01*
X137739983Y-83878183D01*
X137771223Y-83852546D01*
X137806862Y-83833496D01*
X137845532Y-83821765D01*
X137891888Y-83817200D01*
X138968112Y-83817200D01*
X139014468Y-83821765D01*
X139014468Y-83821765D01*
G37*
G36*
X142274243Y-83027119D02*
G01*
X142340427Y-83033637D01*
X142510266Y-83085157D01*
X142666791Y-83168822D01*
X142702529Y-83198152D01*
X142803986Y-83281414D01*
X142887248Y-83382871D01*
X142916578Y-83418609D01*
X143000243Y-83575134D01*
X143051763Y-83744973D01*
X143069159Y-83921600D01*
X143051763Y-84098227D01*
X143000243Y-84268066D01*
X142916578Y-84424591D01*
X142908211Y-84434786D01*
X142803986Y-84561786D01*
X142702529Y-84645048D01*
X142666791Y-84674378D01*
X142510266Y-84758043D01*
X142340427Y-84809563D01*
X142281781Y-84815339D01*
X142208060Y-84822600D01*
X142119540Y-84822600D01*
X142045819Y-84815339D01*
X141987173Y-84809563D01*
X141817334Y-84758043D01*
X141660809Y-84674378D01*
X141625071Y-84645048D01*
X141523614Y-84561786D01*
X141419389Y-84434786D01*
X141411022Y-84424591D01*
X141327357Y-84268066D01*
X141275837Y-84098227D01*
X141258441Y-83921600D01*
X141275837Y-83744973D01*
X141327357Y-83575134D01*
X141411022Y-83418609D01*
X141440352Y-83382871D01*
X141523614Y-83281414D01*
X141625071Y-83198152D01*
X141660809Y-83168822D01*
X141817334Y-83085157D01*
X141987173Y-83033637D01*
X142053357Y-83027119D01*
X142119540Y-83020600D01*
X142208060Y-83020600D01*
X142274243Y-83027119D01*
X142274243Y-83027119D01*
G37*
G36*
X131953268Y-83720165D02*
G01*
X131991938Y-83731896D01*
X132027577Y-83750946D01*
X132058817Y-83776583D01*
X132084454Y-83807823D01*
X132103504Y-83843462D01*
X132115235Y-83882132D01*
X132119800Y-83928488D01*
X132119800Y-84579712D01*
X132115235Y-84626068D01*
X132103504Y-84664738D01*
X132084454Y-84700377D01*
X132058817Y-84731617D01*
X132027577Y-84757254D01*
X131991938Y-84776304D01*
X131953268Y-84788035D01*
X131906912Y-84792600D01*
X130830688Y-84792600D01*
X130784332Y-84788035D01*
X130745662Y-84776304D01*
X130710023Y-84757254D01*
X130678783Y-84731617D01*
X130653146Y-84700377D01*
X130634096Y-84664738D01*
X130622365Y-84626068D01*
X130617800Y-84579712D01*
X130617800Y-83928488D01*
X130622365Y-83882132D01*
X130634096Y-83843462D01*
X130653146Y-83807823D01*
X130678783Y-83776583D01*
X130710023Y-83750946D01*
X130745662Y-83731896D01*
X130784332Y-83720165D01*
X130830688Y-83715600D01*
X131906912Y-83715600D01*
X131953268Y-83720165D01*
X131953268Y-83720165D01*
G37*
G36*
X127161242Y-82900118D02*
G01*
X127227427Y-82906637D01*
X127397266Y-82958157D01*
X127553791Y-83041822D01*
X127589529Y-83071152D01*
X127690986Y-83154414D01*
X127774248Y-83255871D01*
X127803578Y-83291609D01*
X127887243Y-83448134D01*
X127938763Y-83617973D01*
X127956159Y-83794600D01*
X127938763Y-83971227D01*
X127887243Y-84141066D01*
X127803578Y-84297591D01*
X127774248Y-84333329D01*
X127690986Y-84434786D01*
X127589529Y-84518048D01*
X127553791Y-84547378D01*
X127553789Y-84547379D01*
X127406574Y-84626068D01*
X127397266Y-84631043D01*
X127227427Y-84682563D01*
X127161242Y-84689082D01*
X127095060Y-84695600D01*
X127006540Y-84695600D01*
X126940358Y-84689082D01*
X126874173Y-84682563D01*
X126704334Y-84631043D01*
X126695027Y-84626068D01*
X126547811Y-84547379D01*
X126547809Y-84547378D01*
X126512071Y-84518048D01*
X126410614Y-84434786D01*
X126327352Y-84333329D01*
X126298022Y-84297591D01*
X126214357Y-84141066D01*
X126162837Y-83971227D01*
X126145441Y-83794600D01*
X126162837Y-83617973D01*
X126214357Y-83448134D01*
X126298022Y-83291609D01*
X126327352Y-83255871D01*
X126410614Y-83154414D01*
X126512071Y-83071152D01*
X126547809Y-83041822D01*
X126704334Y-82958157D01*
X126874173Y-82906637D01*
X126940358Y-82900118D01*
X127006540Y-82893600D01*
X127095060Y-82893600D01*
X127161242Y-82900118D01*
X127161242Y-82900118D01*
G37*
G36*
X135598800Y-83337200D02*
G01*
X133996800Y-83337200D01*
X133996800Y-81735200D01*
X135598800Y-81735200D01*
X135598800Y-83337200D01*
X135598800Y-83337200D01*
G37*
G36*
X142274242Y-80487118D02*
G01*
X142340427Y-80493637D01*
X142510266Y-80545157D01*
X142666791Y-80628822D01*
X142702529Y-80658152D01*
X142803986Y-80741414D01*
X142887248Y-80842871D01*
X142916578Y-80878609D01*
X143000243Y-81035134D01*
X143051763Y-81204973D01*
X143069159Y-81381600D01*
X143051763Y-81558227D01*
X143000243Y-81728066D01*
X142916578Y-81884591D01*
X142908211Y-81894786D01*
X142803986Y-82021786D01*
X142702529Y-82105048D01*
X142666791Y-82134378D01*
X142510266Y-82218043D01*
X142340427Y-82269563D01*
X142274242Y-82276082D01*
X142208060Y-82282600D01*
X142119540Y-82282600D01*
X142053358Y-82276082D01*
X141987173Y-82269563D01*
X141817334Y-82218043D01*
X141660809Y-82134378D01*
X141625071Y-82105048D01*
X141523614Y-82021786D01*
X141419389Y-81894786D01*
X141411022Y-81884591D01*
X141327357Y-81728066D01*
X141275837Y-81558227D01*
X141258441Y-81381600D01*
X141275837Y-81204973D01*
X141327357Y-81035134D01*
X141411022Y-80878609D01*
X141440352Y-80842871D01*
X141523614Y-80741414D01*
X141625071Y-80658152D01*
X141660809Y-80628822D01*
X141817334Y-80545157D01*
X141987173Y-80493637D01*
X142053358Y-80487118D01*
X142119540Y-80480600D01*
X142208060Y-80480600D01*
X142274242Y-80487118D01*
X142274242Y-80487118D01*
G37*
G36*
X127161242Y-80360118D02*
G01*
X127227427Y-80366637D01*
X127397266Y-80418157D01*
X127553791Y-80501822D01*
X127589529Y-80531152D01*
X127690986Y-80614414D01*
X127774248Y-80715871D01*
X127803578Y-80751609D01*
X127887243Y-80908134D01*
X127938763Y-81077973D01*
X127956159Y-81254600D01*
X127938763Y-81431227D01*
X127887243Y-81601066D01*
X127803578Y-81757591D01*
X127774248Y-81793329D01*
X127690986Y-81894786D01*
X127589529Y-81978048D01*
X127553791Y-82007378D01*
X127397266Y-82091043D01*
X127227427Y-82142563D01*
X127161242Y-82149082D01*
X127095060Y-82155600D01*
X127006540Y-82155600D01*
X126940358Y-82149082D01*
X126874173Y-82142563D01*
X126704334Y-82091043D01*
X126547809Y-82007378D01*
X126512071Y-81978048D01*
X126410614Y-81894786D01*
X126327352Y-81793329D01*
X126298022Y-81757591D01*
X126214357Y-81601066D01*
X126162837Y-81431227D01*
X126145441Y-81254600D01*
X126162837Y-81077973D01*
X126214357Y-80908134D01*
X126298022Y-80751609D01*
X126327352Y-80715871D01*
X126410614Y-80614414D01*
X126512071Y-80531152D01*
X126547809Y-80501822D01*
X126704334Y-80418157D01*
X126874173Y-80366637D01*
X126940358Y-80360118D01*
X127006540Y-80353600D01*
X127095060Y-80353600D01*
X127161242Y-80360118D01*
X127161242Y-80360118D01*
G37*
G36*
X132251068Y-78831765D02*
G01*
X132289738Y-78843496D01*
X132325377Y-78862546D01*
X132356617Y-78888183D01*
X132382254Y-78919423D01*
X132401304Y-78955062D01*
X132413035Y-78993732D01*
X132417600Y-79040088D01*
X132417600Y-80116312D01*
X132413035Y-80162668D01*
X132401304Y-80201338D01*
X132382254Y-80236977D01*
X132356617Y-80268217D01*
X132325377Y-80293854D01*
X132289738Y-80312904D01*
X132251068Y-80324635D01*
X132204712Y-80329200D01*
X131553488Y-80329200D01*
X131507132Y-80324635D01*
X131468462Y-80312904D01*
X131432823Y-80293854D01*
X131401583Y-80268217D01*
X131375946Y-80236977D01*
X131356896Y-80201338D01*
X131345165Y-80162668D01*
X131340600Y-80116312D01*
X131340600Y-79040088D01*
X131345165Y-78993732D01*
X131356896Y-78955062D01*
X131375946Y-78919423D01*
X131401583Y-78888183D01*
X131432823Y-78862546D01*
X131468462Y-78843496D01*
X131507132Y-78831765D01*
X131553488Y-78827200D01*
X132204712Y-78827200D01*
X132251068Y-78831765D01*
X132251068Y-78831765D01*
G37*
G36*
X134126068Y-78831765D02*
G01*
X134164738Y-78843496D01*
X134200377Y-78862546D01*
X134231617Y-78888183D01*
X134257254Y-78919423D01*
X134276304Y-78955062D01*
X134288035Y-78993732D01*
X134292600Y-79040088D01*
X134292600Y-80116312D01*
X134288035Y-80162668D01*
X134276304Y-80201338D01*
X134257254Y-80236977D01*
X134231617Y-80268217D01*
X134200377Y-80293854D01*
X134164738Y-80312904D01*
X134126068Y-80324635D01*
X134079712Y-80329200D01*
X133428488Y-80329200D01*
X133382132Y-80324635D01*
X133343462Y-80312904D01*
X133307823Y-80293854D01*
X133276583Y-80268217D01*
X133250946Y-80236977D01*
X133231896Y-80201338D01*
X133220165Y-80162668D01*
X133215600Y-80116312D01*
X133215600Y-79040088D01*
X133220165Y-78993732D01*
X133231896Y-78955062D01*
X133250946Y-78919423D01*
X133276583Y-78888183D01*
X133307823Y-78862546D01*
X133343462Y-78843496D01*
X133382132Y-78831765D01*
X133428488Y-78827200D01*
X134079712Y-78827200D01*
X134126068Y-78831765D01*
X134126068Y-78831765D01*
G37*
G36*
X136111868Y-78831765D02*
G01*
X136150538Y-78843496D01*
X136186177Y-78862546D01*
X136217417Y-78888183D01*
X136243054Y-78919423D01*
X136262104Y-78955062D01*
X136273835Y-78993732D01*
X136278400Y-79040088D01*
X136278400Y-80116312D01*
X136273835Y-80162668D01*
X136262104Y-80201338D01*
X136243054Y-80236977D01*
X136217417Y-80268217D01*
X136186177Y-80293854D01*
X136150538Y-80312904D01*
X136111868Y-80324635D01*
X136065512Y-80329200D01*
X135414288Y-80329200D01*
X135367932Y-80324635D01*
X135329262Y-80312904D01*
X135293623Y-80293854D01*
X135262383Y-80268217D01*
X135236746Y-80236977D01*
X135217696Y-80201338D01*
X135205965Y-80162668D01*
X135201400Y-80116312D01*
X135201400Y-79040088D01*
X135205965Y-78993732D01*
X135217696Y-78955062D01*
X135236746Y-78919423D01*
X135262383Y-78888183D01*
X135293623Y-78862546D01*
X135329262Y-78843496D01*
X135367932Y-78831765D01*
X135414288Y-78827200D01*
X136065512Y-78827200D01*
X136111868Y-78831765D01*
X136111868Y-78831765D01*
G37*
G36*
X137986868Y-78831765D02*
G01*
X138025538Y-78843496D01*
X138061177Y-78862546D01*
X138092417Y-78888183D01*
X138118054Y-78919423D01*
X138137104Y-78955062D01*
X138148835Y-78993732D01*
X138153400Y-79040088D01*
X138153400Y-80116312D01*
X138148835Y-80162668D01*
X138137104Y-80201338D01*
X138118054Y-80236977D01*
X138092417Y-80268217D01*
X138061177Y-80293854D01*
X138025538Y-80312904D01*
X137986868Y-80324635D01*
X137940512Y-80329200D01*
X137289288Y-80329200D01*
X137242932Y-80324635D01*
X137204262Y-80312904D01*
X137168623Y-80293854D01*
X137137383Y-80268217D01*
X137111746Y-80236977D01*
X137092696Y-80201338D01*
X137080965Y-80162668D01*
X137076400Y-80116312D01*
X137076400Y-79040088D01*
X137080965Y-78993732D01*
X137092696Y-78955062D01*
X137111746Y-78919423D01*
X137137383Y-78888183D01*
X137168623Y-78862546D01*
X137204262Y-78843496D01*
X137242932Y-78831765D01*
X137289288Y-78827200D01*
X137940512Y-78827200D01*
X137986868Y-78831765D01*
X137986868Y-78831765D01*
G37*
G36*
X142274243Y-77947119D02*
G01*
X142340427Y-77953637D01*
X142510266Y-78005157D01*
X142666791Y-78088822D01*
X142702529Y-78118152D01*
X142803986Y-78201414D01*
X142887248Y-78302871D01*
X142916578Y-78338609D01*
X143000243Y-78495134D01*
X143051763Y-78664973D01*
X143069159Y-78841600D01*
X143051763Y-79018227D01*
X143000243Y-79188066D01*
X142916578Y-79344591D01*
X142908211Y-79354786D01*
X142803986Y-79481786D01*
X142702529Y-79565048D01*
X142666791Y-79594378D01*
X142510266Y-79678043D01*
X142340427Y-79729563D01*
X142274243Y-79736081D01*
X142208060Y-79742600D01*
X142119540Y-79742600D01*
X142053357Y-79736081D01*
X141987173Y-79729563D01*
X141817334Y-79678043D01*
X141660809Y-79594378D01*
X141625071Y-79565048D01*
X141523614Y-79481786D01*
X141419389Y-79354786D01*
X141411022Y-79344591D01*
X141327357Y-79188066D01*
X141275837Y-79018227D01*
X141258441Y-78841600D01*
X141275837Y-78664973D01*
X141327357Y-78495134D01*
X141411022Y-78338609D01*
X141440352Y-78302871D01*
X141523614Y-78201414D01*
X141625071Y-78118152D01*
X141660809Y-78088822D01*
X141817334Y-78005157D01*
X141987173Y-77953637D01*
X142053357Y-77947119D01*
X142119540Y-77940600D01*
X142208060Y-77940600D01*
X142274243Y-77947119D01*
X142274243Y-77947119D01*
G37*
G36*
X127161242Y-77820118D02*
G01*
X127227427Y-77826637D01*
X127397266Y-77878157D01*
X127553791Y-77961822D01*
X127589529Y-77991152D01*
X127690986Y-78074414D01*
X127774248Y-78175871D01*
X127803578Y-78211609D01*
X127887243Y-78368134D01*
X127938763Y-78537973D01*
X127956159Y-78714600D01*
X127938763Y-78891227D01*
X127887243Y-79061066D01*
X127803578Y-79217591D01*
X127774248Y-79253329D01*
X127690986Y-79354786D01*
X127589529Y-79438048D01*
X127553791Y-79467378D01*
X127397266Y-79551043D01*
X127227427Y-79602563D01*
X127161243Y-79609081D01*
X127095060Y-79615600D01*
X127006540Y-79615600D01*
X126940357Y-79609081D01*
X126874173Y-79602563D01*
X126704334Y-79551043D01*
X126547809Y-79467378D01*
X126512071Y-79438048D01*
X126410614Y-79354786D01*
X126327352Y-79253329D01*
X126298022Y-79217591D01*
X126214357Y-79061066D01*
X126162837Y-78891227D01*
X126145441Y-78714600D01*
X126162837Y-78537973D01*
X126214357Y-78368134D01*
X126298022Y-78211609D01*
X126327352Y-78175871D01*
X126410614Y-78074414D01*
X126512071Y-77991152D01*
X126547809Y-77961822D01*
X126704334Y-77878157D01*
X126874173Y-77826637D01*
X126940358Y-77820118D01*
X127006540Y-77813600D01*
X127095060Y-77813600D01*
X127161242Y-77820118D01*
X127161242Y-77820118D01*
G37*
G36*
X142274243Y-75407119D02*
G01*
X142340427Y-75413637D01*
X142510266Y-75465157D01*
X142666791Y-75548822D01*
X142702529Y-75578152D01*
X142803986Y-75661414D01*
X142887248Y-75762871D01*
X142916578Y-75798609D01*
X143000243Y-75955134D01*
X143051763Y-76124973D01*
X143069159Y-76301600D01*
X143051763Y-76478227D01*
X143000243Y-76648066D01*
X143000242Y-76648068D01*
X142984463Y-76677589D01*
X142916578Y-76804591D01*
X142908211Y-76814786D01*
X142803986Y-76941786D01*
X142702529Y-77025048D01*
X142666791Y-77054378D01*
X142510266Y-77138043D01*
X142340427Y-77189563D01*
X142274243Y-77196081D01*
X142208060Y-77202600D01*
X142119540Y-77202600D01*
X142053357Y-77196081D01*
X141987173Y-77189563D01*
X141817334Y-77138043D01*
X141660809Y-77054378D01*
X141625071Y-77025048D01*
X141523614Y-76941786D01*
X141419389Y-76814786D01*
X141411022Y-76804591D01*
X141343137Y-76677589D01*
X141327358Y-76648068D01*
X141327357Y-76648066D01*
X141275837Y-76478227D01*
X141258441Y-76301600D01*
X141275837Y-76124973D01*
X141327357Y-75955134D01*
X141411022Y-75798609D01*
X141440352Y-75762871D01*
X141523614Y-75661414D01*
X141625071Y-75578152D01*
X141660809Y-75548822D01*
X141817334Y-75465157D01*
X141987173Y-75413637D01*
X142053357Y-75407119D01*
X142119540Y-75400600D01*
X142208060Y-75400600D01*
X142274243Y-75407119D01*
X142274243Y-75407119D01*
G37*
G36*
X127161243Y-75280119D02*
G01*
X127227427Y-75286637D01*
X127397266Y-75338157D01*
X127553791Y-75421822D01*
X127589529Y-75451152D01*
X127690986Y-75534414D01*
X127774248Y-75635871D01*
X127803578Y-75671609D01*
X127887243Y-75828134D01*
X127938763Y-75997973D01*
X127956159Y-76174600D01*
X127938763Y-76351227D01*
X127887243Y-76521066D01*
X127803578Y-76677591D01*
X127802473Y-76678937D01*
X127690986Y-76814786D01*
X127589529Y-76898048D01*
X127553791Y-76927378D01*
X127397266Y-77011043D01*
X127227427Y-77062563D01*
X127161242Y-77069082D01*
X127095060Y-77075600D01*
X127006540Y-77075600D01*
X126940358Y-77069082D01*
X126874173Y-77062563D01*
X126704334Y-77011043D01*
X126547809Y-76927378D01*
X126512071Y-76898048D01*
X126410614Y-76814786D01*
X126299127Y-76678937D01*
X126298022Y-76677591D01*
X126214357Y-76521066D01*
X126162837Y-76351227D01*
X126145441Y-76174600D01*
X126162837Y-75997973D01*
X126214357Y-75828134D01*
X126298022Y-75671609D01*
X126327352Y-75635871D01*
X126410614Y-75534414D01*
X126512071Y-75451152D01*
X126547809Y-75421822D01*
X126704334Y-75338157D01*
X126874173Y-75286637D01*
X126940357Y-75280119D01*
X127006540Y-75273600D01*
X127095060Y-75273600D01*
X127161243Y-75280119D01*
X127161243Y-75280119D01*
G37*
G36*
X135853268Y-75301165D02*
G01*
X135891938Y-75312896D01*
X135927577Y-75331946D01*
X135958817Y-75357583D01*
X135984454Y-75388823D01*
X136003504Y-75424462D01*
X136015235Y-75463132D01*
X136019800Y-75509488D01*
X136019800Y-76585712D01*
X136015235Y-76632068D01*
X136003504Y-76670738D01*
X135984454Y-76706377D01*
X135958817Y-76737617D01*
X135927577Y-76763254D01*
X135891938Y-76782304D01*
X135853268Y-76794035D01*
X135806912Y-76798600D01*
X135155688Y-76798600D01*
X135109332Y-76794035D01*
X135070662Y-76782304D01*
X135035023Y-76763254D01*
X135003783Y-76737617D01*
X134978146Y-76706377D01*
X134959096Y-76670738D01*
X134947365Y-76632068D01*
X134942800Y-76585712D01*
X134942800Y-75509488D01*
X134947365Y-75463132D01*
X134959096Y-75424462D01*
X134978146Y-75388823D01*
X135003783Y-75357583D01*
X135035023Y-75331946D01*
X135070662Y-75312896D01*
X135109332Y-75301165D01*
X135155688Y-75296600D01*
X135806912Y-75296600D01*
X135853268Y-75301165D01*
X135853268Y-75301165D01*
G37*
G36*
X133978268Y-75301165D02*
G01*
X134016938Y-75312896D01*
X134052577Y-75331946D01*
X134083817Y-75357583D01*
X134109454Y-75388823D01*
X134128504Y-75424462D01*
X134140235Y-75463132D01*
X134144800Y-75509488D01*
X134144800Y-76585712D01*
X134140235Y-76632068D01*
X134128504Y-76670738D01*
X134109454Y-76706377D01*
X134083817Y-76737617D01*
X134052577Y-76763254D01*
X134016938Y-76782304D01*
X133978268Y-76794035D01*
X133931912Y-76798600D01*
X133280688Y-76798600D01*
X133234332Y-76794035D01*
X133195662Y-76782304D01*
X133160023Y-76763254D01*
X133128783Y-76737617D01*
X133103146Y-76706377D01*
X133084096Y-76670738D01*
X133072365Y-76632068D01*
X133067800Y-76585712D01*
X133067800Y-75509488D01*
X133072365Y-75463132D01*
X133084096Y-75424462D01*
X133103146Y-75388823D01*
X133128783Y-75357583D01*
X133160023Y-75331946D01*
X133195662Y-75312896D01*
X133234332Y-75301165D01*
X133280688Y-75296600D01*
X133931912Y-75296600D01*
X133978268Y-75301165D01*
X133978268Y-75301165D01*
G37*
G36*
X142274243Y-72867119D02*
G01*
X142340427Y-72873637D01*
X142510266Y-72925157D01*
X142666791Y-73008822D01*
X142702529Y-73038152D01*
X142803986Y-73121414D01*
X142887248Y-73222871D01*
X142916578Y-73258609D01*
X143000243Y-73415134D01*
X143051763Y-73584973D01*
X143069159Y-73761600D01*
X143051763Y-73938227D01*
X143000243Y-74108066D01*
X142916578Y-74264591D01*
X142908211Y-74274786D01*
X142803986Y-74401786D01*
X142702529Y-74485048D01*
X142666791Y-74514378D01*
X142510266Y-74598043D01*
X142340427Y-74649563D01*
X142274243Y-74656081D01*
X142208060Y-74662600D01*
X142119540Y-74662600D01*
X142053357Y-74656081D01*
X141987173Y-74649563D01*
X141817334Y-74598043D01*
X141660809Y-74514378D01*
X141625071Y-74485048D01*
X141523614Y-74401786D01*
X141419389Y-74274786D01*
X141411022Y-74264591D01*
X141327357Y-74108066D01*
X141275837Y-73938227D01*
X141258441Y-73761600D01*
X141275837Y-73584973D01*
X141327357Y-73415134D01*
X141411022Y-73258609D01*
X141440352Y-73222871D01*
X141523614Y-73121414D01*
X141625071Y-73038152D01*
X141660809Y-73008822D01*
X141817334Y-72925157D01*
X141987173Y-72873637D01*
X142053357Y-72867119D01*
X142119540Y-72860600D01*
X142208060Y-72860600D01*
X142274243Y-72867119D01*
X142274243Y-72867119D01*
G37*
G36*
X127161243Y-72740119D02*
G01*
X127227427Y-72746637D01*
X127397266Y-72798157D01*
X127553791Y-72881822D01*
X127589529Y-72911152D01*
X127690986Y-72994414D01*
X127774248Y-73095871D01*
X127803578Y-73131609D01*
X127887243Y-73288134D01*
X127938763Y-73457973D01*
X127956159Y-73634600D01*
X127938763Y-73811227D01*
X127887243Y-73981066D01*
X127803578Y-74137591D01*
X127774248Y-74173329D01*
X127690986Y-74274786D01*
X127589529Y-74358048D01*
X127553791Y-74387378D01*
X127397266Y-74471043D01*
X127227427Y-74522563D01*
X127161243Y-74529081D01*
X127095060Y-74535600D01*
X127006540Y-74535600D01*
X126940357Y-74529081D01*
X126874173Y-74522563D01*
X126704334Y-74471043D01*
X126547809Y-74387378D01*
X126512071Y-74358048D01*
X126410614Y-74274786D01*
X126327352Y-74173329D01*
X126298022Y-74137591D01*
X126214357Y-73981066D01*
X126162837Y-73811227D01*
X126145441Y-73634600D01*
X126162837Y-73457973D01*
X126214357Y-73288134D01*
X126298022Y-73131609D01*
X126327352Y-73095871D01*
X126410614Y-72994414D01*
X126512071Y-72911152D01*
X126547809Y-72881822D01*
X126704334Y-72798157D01*
X126874173Y-72746637D01*
X126940357Y-72740119D01*
X127006540Y-72733600D01*
X127095060Y-72733600D01*
X127161243Y-72740119D01*
X127161243Y-72740119D01*
G37*
G36*
X133449155Y-67805683D02*
G01*
X133453829Y-67807101D01*
X133458130Y-67809400D01*
X133464502Y-67814629D01*
X133484876Y-67828243D01*
X133507515Y-67837620D01*
X133531549Y-67842400D01*
X133556053Y-67842400D01*
X133580086Y-67837619D01*
X133602725Y-67828242D01*
X133623098Y-67814629D01*
X133629470Y-67809400D01*
X133633771Y-67807101D01*
X133638445Y-67805683D01*
X133649441Y-67804600D01*
X133938159Y-67804600D01*
X133949155Y-67805683D01*
X133953829Y-67807101D01*
X133958130Y-67809400D01*
X133964502Y-67814629D01*
X133984876Y-67828243D01*
X134007515Y-67837620D01*
X134031549Y-67842400D01*
X134056053Y-67842400D01*
X134080086Y-67837619D01*
X134102725Y-67828242D01*
X134123098Y-67814629D01*
X134129470Y-67809400D01*
X134133771Y-67807101D01*
X134138445Y-67805683D01*
X134149441Y-67804600D01*
X134438159Y-67804600D01*
X134449155Y-67805683D01*
X134453829Y-67807101D01*
X134458130Y-67809400D01*
X134464502Y-67814629D01*
X134484876Y-67828243D01*
X134507515Y-67837620D01*
X134531549Y-67842400D01*
X134556053Y-67842400D01*
X134580086Y-67837619D01*
X134602725Y-67828242D01*
X134623098Y-67814629D01*
X134629470Y-67809400D01*
X134633771Y-67807101D01*
X134638445Y-67805683D01*
X134649441Y-67804600D01*
X134938159Y-67804600D01*
X134949155Y-67805683D01*
X134953829Y-67807101D01*
X134958130Y-67809400D01*
X134964502Y-67814629D01*
X134984876Y-67828243D01*
X135007515Y-67837620D01*
X135031549Y-67842400D01*
X135056053Y-67842400D01*
X135080086Y-67837619D01*
X135102725Y-67828242D01*
X135123098Y-67814629D01*
X135129470Y-67809400D01*
X135133771Y-67807101D01*
X135138445Y-67805683D01*
X135149441Y-67804600D01*
X135438159Y-67804600D01*
X135449155Y-67805683D01*
X135453829Y-67807101D01*
X135458130Y-67809400D01*
X135464502Y-67814629D01*
X135484876Y-67828243D01*
X135507515Y-67837620D01*
X135531549Y-67842400D01*
X135556053Y-67842400D01*
X135580086Y-67837619D01*
X135602725Y-67828242D01*
X135623098Y-67814629D01*
X135629470Y-67809400D01*
X135633771Y-67807101D01*
X135638445Y-67805683D01*
X135649441Y-67804600D01*
X135938159Y-67804600D01*
X135949155Y-67805683D01*
X135953829Y-67807101D01*
X135958131Y-67809400D01*
X135961904Y-67812496D01*
X135965000Y-67816269D01*
X135967299Y-67820571D01*
X135968717Y-67825245D01*
X135969800Y-67836241D01*
X135969800Y-68654601D01*
X135972202Y-68678987D01*
X135979315Y-68702436D01*
X135990866Y-68724047D01*
X136006411Y-68742989D01*
X136025353Y-68758534D01*
X136046964Y-68770085D01*
X136070413Y-68777198D01*
X136094799Y-68779600D01*
X136913159Y-68779600D01*
X136924155Y-68780683D01*
X136928829Y-68782101D01*
X136933131Y-68784400D01*
X136936904Y-68787496D01*
X136940000Y-68791269D01*
X136942299Y-68795571D01*
X136943717Y-68800245D01*
X136944800Y-68811241D01*
X136944800Y-69099959D01*
X136943717Y-69110955D01*
X136942299Y-69115629D01*
X136940000Y-69119930D01*
X136934771Y-69126302D01*
X136921157Y-69146676D01*
X136911780Y-69169315D01*
X136907000Y-69193349D01*
X136907000Y-69217853D01*
X136911781Y-69241886D01*
X136921158Y-69264525D01*
X136934771Y-69284898D01*
X136940000Y-69291270D01*
X136942299Y-69295571D01*
X136943717Y-69300245D01*
X136944800Y-69311241D01*
X136944800Y-69599959D01*
X136943717Y-69610955D01*
X136942299Y-69615629D01*
X136940000Y-69619930D01*
X136934771Y-69626302D01*
X136921157Y-69646676D01*
X136911780Y-69669315D01*
X136907000Y-69693349D01*
X136907000Y-69717853D01*
X136911781Y-69741886D01*
X136921158Y-69764525D01*
X136934771Y-69784898D01*
X136940000Y-69791270D01*
X136942299Y-69795571D01*
X136943717Y-69800245D01*
X136944800Y-69811241D01*
X136944800Y-70099959D01*
X136943717Y-70110955D01*
X136942299Y-70115629D01*
X136940000Y-70119930D01*
X136934771Y-70126302D01*
X136921157Y-70146676D01*
X136911780Y-70169315D01*
X136907000Y-70193349D01*
X136907000Y-70217853D01*
X136911781Y-70241886D01*
X136921158Y-70264525D01*
X136934771Y-70284898D01*
X136940000Y-70291270D01*
X136942299Y-70295571D01*
X136943717Y-70300245D01*
X136944800Y-70311241D01*
X136944800Y-70599959D01*
X136943717Y-70610955D01*
X136942299Y-70615629D01*
X136940000Y-70619930D01*
X136934771Y-70626302D01*
X136921157Y-70646676D01*
X136911780Y-70669315D01*
X136907000Y-70693349D01*
X136907000Y-70717853D01*
X136911781Y-70741886D01*
X136921158Y-70764525D01*
X136934771Y-70784898D01*
X136940000Y-70791270D01*
X136942299Y-70795571D01*
X136943717Y-70800245D01*
X136944800Y-70811241D01*
X136944800Y-71099959D01*
X136943717Y-71110955D01*
X136942299Y-71115629D01*
X136940000Y-71119930D01*
X136934771Y-71126302D01*
X136921157Y-71146676D01*
X136911780Y-71169315D01*
X136907000Y-71193349D01*
X136907000Y-71217853D01*
X136911781Y-71241886D01*
X136921158Y-71264525D01*
X136934771Y-71284898D01*
X136940000Y-71291270D01*
X136942299Y-71295571D01*
X136943717Y-71300245D01*
X136944800Y-71311241D01*
X136944800Y-71599959D01*
X136943717Y-71610955D01*
X136942299Y-71615629D01*
X136940000Y-71619931D01*
X136936904Y-71623704D01*
X136933131Y-71626800D01*
X136928829Y-71629099D01*
X136924155Y-71630517D01*
X136913159Y-71631600D01*
X136094799Y-71631600D01*
X136070413Y-71634002D01*
X136046964Y-71641115D01*
X136025353Y-71652666D01*
X136006411Y-71668211D01*
X135990866Y-71687153D01*
X135979315Y-71708764D01*
X135972202Y-71732213D01*
X135969800Y-71756599D01*
X135969800Y-72574959D01*
X135968717Y-72585955D01*
X135967299Y-72590629D01*
X135965000Y-72594931D01*
X135961904Y-72598704D01*
X135958131Y-72601800D01*
X135953829Y-72604099D01*
X135949155Y-72605517D01*
X135938159Y-72606600D01*
X135649441Y-72606600D01*
X135638445Y-72605517D01*
X135633771Y-72604099D01*
X135629470Y-72601800D01*
X135623098Y-72596571D01*
X135602724Y-72582957D01*
X135580085Y-72573580D01*
X135556051Y-72568800D01*
X135531547Y-72568800D01*
X135507514Y-72573581D01*
X135484875Y-72582958D01*
X135464502Y-72596571D01*
X135458130Y-72601800D01*
X135453829Y-72604099D01*
X135449155Y-72605517D01*
X135438159Y-72606600D01*
X135149441Y-72606600D01*
X135138445Y-72605517D01*
X135133771Y-72604099D01*
X135129470Y-72601800D01*
X135123098Y-72596571D01*
X135102724Y-72582957D01*
X135080085Y-72573580D01*
X135056051Y-72568800D01*
X135031547Y-72568800D01*
X135007514Y-72573581D01*
X134984875Y-72582958D01*
X134964502Y-72596571D01*
X134958130Y-72601800D01*
X134953829Y-72604099D01*
X134949155Y-72605517D01*
X134938159Y-72606600D01*
X134649441Y-72606600D01*
X134638445Y-72605517D01*
X134633771Y-72604099D01*
X134629470Y-72601800D01*
X134623098Y-72596571D01*
X134602724Y-72582957D01*
X134580085Y-72573580D01*
X134556051Y-72568800D01*
X134531547Y-72568800D01*
X134507514Y-72573581D01*
X134484875Y-72582958D01*
X134464502Y-72596571D01*
X134458130Y-72601800D01*
X134453829Y-72604099D01*
X134449155Y-72605517D01*
X134438159Y-72606600D01*
X134149441Y-72606600D01*
X134138445Y-72605517D01*
X134133771Y-72604099D01*
X134129470Y-72601800D01*
X134123098Y-72596571D01*
X134102724Y-72582957D01*
X134080085Y-72573580D01*
X134056051Y-72568800D01*
X134031547Y-72568800D01*
X134007514Y-72573581D01*
X133984875Y-72582958D01*
X133964502Y-72596571D01*
X133958130Y-72601800D01*
X133953829Y-72604099D01*
X133949155Y-72605517D01*
X133938159Y-72606600D01*
X133649441Y-72606600D01*
X133638445Y-72605517D01*
X133633771Y-72604099D01*
X133629470Y-72601800D01*
X133623098Y-72596571D01*
X133602724Y-72582957D01*
X133580085Y-72573580D01*
X133556051Y-72568800D01*
X133531547Y-72568800D01*
X133507514Y-72573581D01*
X133484875Y-72582958D01*
X133464502Y-72596571D01*
X133458130Y-72601800D01*
X133453829Y-72604099D01*
X133449155Y-72605517D01*
X133438159Y-72606600D01*
X133149441Y-72606600D01*
X133138445Y-72605517D01*
X133133771Y-72604099D01*
X133129469Y-72601800D01*
X133125696Y-72598704D01*
X133122600Y-72594931D01*
X133120301Y-72590629D01*
X133118883Y-72585955D01*
X133117800Y-72574959D01*
X133117800Y-71756599D01*
X133115398Y-71732213D01*
X133108285Y-71708764D01*
X133096734Y-71687153D01*
X133081189Y-71668211D01*
X133062247Y-71652666D01*
X133040636Y-71641115D01*
X133017187Y-71634002D01*
X132992801Y-71631600D01*
X132174441Y-71631600D01*
X132163445Y-71630517D01*
X132158771Y-71629099D01*
X132154469Y-71626800D01*
X132150696Y-71623704D01*
X132147600Y-71619931D01*
X132145301Y-71615629D01*
X132143883Y-71610955D01*
X132142800Y-71599959D01*
X132142800Y-71311241D01*
X132143883Y-71300245D01*
X132145301Y-71295571D01*
X132147600Y-71291270D01*
X132152829Y-71284898D01*
X132166443Y-71264524D01*
X132175820Y-71241885D01*
X132180600Y-71217851D01*
X132180600Y-71193347D01*
X132175819Y-71169314D01*
X132166442Y-71146675D01*
X132152829Y-71126302D01*
X132147600Y-71119930D01*
X132145301Y-71115629D01*
X132143883Y-71110955D01*
X132142800Y-71099959D01*
X132142800Y-70811241D01*
X132143883Y-70800245D01*
X132145301Y-70795571D01*
X132147600Y-70791270D01*
X132152829Y-70784898D01*
X132166443Y-70764524D01*
X132175820Y-70741885D01*
X132180600Y-70717851D01*
X132180600Y-70693347D01*
X132175819Y-70669314D01*
X132166442Y-70646675D01*
X132152829Y-70626302D01*
X132147600Y-70619930D01*
X132145301Y-70615629D01*
X132143883Y-70610955D01*
X132142800Y-70599959D01*
X132142800Y-70311241D01*
X132143883Y-70300245D01*
X132145301Y-70295571D01*
X132147600Y-70291270D01*
X132152829Y-70284898D01*
X132166443Y-70264524D01*
X132175820Y-70241885D01*
X132180600Y-70217851D01*
X132180600Y-70193347D01*
X132175819Y-70169314D01*
X132166442Y-70146675D01*
X132152829Y-70126302D01*
X132147600Y-70119930D01*
X132145301Y-70115629D01*
X132143883Y-70110955D01*
X132142800Y-70099959D01*
X132142800Y-69811241D01*
X132143883Y-69800245D01*
X132145301Y-69795571D01*
X132147600Y-69791270D01*
X132152829Y-69784898D01*
X132166443Y-69764524D01*
X132175820Y-69741885D01*
X132180600Y-69717851D01*
X132180600Y-69693347D01*
X132175819Y-69669314D01*
X132166442Y-69646675D01*
X132152829Y-69626302D01*
X132147600Y-69619930D01*
X132145301Y-69615629D01*
X132143883Y-69610955D01*
X132142800Y-69599959D01*
X132142800Y-69311241D01*
X132143883Y-69300245D01*
X132145301Y-69295571D01*
X132147600Y-69291270D01*
X132152829Y-69284898D01*
X132166443Y-69264524D01*
X132175820Y-69241885D01*
X132180600Y-69217851D01*
X132180600Y-69193347D01*
X132175819Y-69169314D01*
X132166442Y-69146675D01*
X132152829Y-69126302D01*
X132147600Y-69119930D01*
X132145301Y-69115629D01*
X132143883Y-69110955D01*
X132142800Y-69099959D01*
X132142800Y-68811241D01*
X132143883Y-68800245D01*
X132145301Y-68795571D01*
X132147600Y-68791269D01*
X132150696Y-68787496D01*
X132154469Y-68784400D01*
X132158771Y-68782101D01*
X132163445Y-68780683D01*
X132174441Y-68779600D01*
X132992801Y-68779600D01*
X133017187Y-68777198D01*
X133040636Y-68770085D01*
X133062247Y-68758534D01*
X133081189Y-68742989D01*
X133096734Y-68724047D01*
X133108285Y-68702436D01*
X133115398Y-68678987D01*
X133117800Y-68654601D01*
X133117800Y-67836241D01*
X133118883Y-67825245D01*
X133120301Y-67820571D01*
X133122600Y-67816269D01*
X133125696Y-67812496D01*
X133129469Y-67809400D01*
X133133771Y-67807101D01*
X133138445Y-67805683D01*
X133149441Y-67804600D01*
X133438159Y-67804600D01*
X133449155Y-67805683D01*
X133449155Y-67805683D01*
G37*
G36*
X142274242Y-70327118D02*
G01*
X142340427Y-70333637D01*
X142510266Y-70385157D01*
X142666791Y-70468822D01*
X142702529Y-70498152D01*
X142803986Y-70581414D01*
X142876123Y-70669315D01*
X142916578Y-70718609D01*
X143000243Y-70875134D01*
X143051763Y-71044973D01*
X143069159Y-71221600D01*
X143051763Y-71398227D01*
X143000243Y-71568066D01*
X142916578Y-71724591D01*
X142887248Y-71760329D01*
X142803986Y-71861786D01*
X142702529Y-71945048D01*
X142666791Y-71974378D01*
X142510266Y-72058043D01*
X142340427Y-72109563D01*
X142274242Y-72116082D01*
X142208060Y-72122600D01*
X142119540Y-72122600D01*
X142053358Y-72116082D01*
X141987173Y-72109563D01*
X141817334Y-72058043D01*
X141660809Y-71974378D01*
X141625071Y-71945048D01*
X141523614Y-71861786D01*
X141440352Y-71760329D01*
X141411022Y-71724591D01*
X141327357Y-71568066D01*
X141275837Y-71398227D01*
X141258441Y-71221600D01*
X141275837Y-71044973D01*
X141327357Y-70875134D01*
X141411022Y-70718609D01*
X141451477Y-70669315D01*
X141523614Y-70581414D01*
X141625071Y-70498152D01*
X141660809Y-70468822D01*
X141817334Y-70385157D01*
X141987173Y-70333637D01*
X142053358Y-70327118D01*
X142119540Y-70320600D01*
X142208060Y-70320600D01*
X142274242Y-70327118D01*
X142274242Y-70327118D01*
G37*
G36*
X127161242Y-70200118D02*
G01*
X127227427Y-70206637D01*
X127397266Y-70258157D01*
X127553791Y-70341822D01*
X127564282Y-70350432D01*
X127690986Y-70454414D01*
X127764178Y-70543600D01*
X127803578Y-70591609D01*
X127887243Y-70748134D01*
X127938763Y-70917973D01*
X127956159Y-71094600D01*
X127938763Y-71271227D01*
X127887243Y-71441066D01*
X127803578Y-71597591D01*
X127796820Y-71605825D01*
X127690986Y-71734786D01*
X127589529Y-71818048D01*
X127553791Y-71847378D01*
X127397266Y-71931043D01*
X127227427Y-71982563D01*
X127161242Y-71989082D01*
X127095060Y-71995600D01*
X127006540Y-71995600D01*
X126940358Y-71989082D01*
X126874173Y-71982563D01*
X126704334Y-71931043D01*
X126547809Y-71847378D01*
X126512071Y-71818048D01*
X126410614Y-71734786D01*
X126304780Y-71605825D01*
X126298022Y-71597591D01*
X126214357Y-71441066D01*
X126162837Y-71271227D01*
X126145441Y-71094600D01*
X126162837Y-70917973D01*
X126214357Y-70748134D01*
X126298022Y-70591609D01*
X126337422Y-70543600D01*
X126410614Y-70454414D01*
X126537318Y-70350432D01*
X126547809Y-70341822D01*
X126704334Y-70258157D01*
X126874173Y-70206637D01*
X126940358Y-70200118D01*
X127006540Y-70193600D01*
X127095060Y-70193600D01*
X127161242Y-70200118D01*
X127161242Y-70200118D01*
G37*
G36*
X142274243Y-67787119D02*
G01*
X142340427Y-67793637D01*
X142510266Y-67845157D01*
X142666791Y-67928822D01*
X142702529Y-67958152D01*
X142803986Y-68041414D01*
X142887248Y-68142871D01*
X142916578Y-68178609D01*
X143000243Y-68335134D01*
X143051763Y-68504973D01*
X143069159Y-68681600D01*
X143051763Y-68858227D01*
X143000243Y-69028066D01*
X142916578Y-69184591D01*
X142908211Y-69194786D01*
X142803986Y-69321786D01*
X142702529Y-69405048D01*
X142666791Y-69434378D01*
X142510266Y-69518043D01*
X142340427Y-69569563D01*
X142274242Y-69576082D01*
X142208060Y-69582600D01*
X142119540Y-69582600D01*
X142053358Y-69576082D01*
X141987173Y-69569563D01*
X141817334Y-69518043D01*
X141660809Y-69434378D01*
X141625071Y-69405048D01*
X141523614Y-69321786D01*
X141419389Y-69194786D01*
X141411022Y-69184591D01*
X141327357Y-69028066D01*
X141275837Y-68858227D01*
X141258441Y-68681600D01*
X141275837Y-68504973D01*
X141327357Y-68335134D01*
X141411022Y-68178609D01*
X141440352Y-68142871D01*
X141523614Y-68041414D01*
X141625071Y-67958152D01*
X141660809Y-67928822D01*
X141817334Y-67845157D01*
X141987173Y-67793637D01*
X142053357Y-67787119D01*
X142119540Y-67780600D01*
X142208060Y-67780600D01*
X142274243Y-67787119D01*
X142274243Y-67787119D01*
G37*
G36*
X127161242Y-67660118D02*
G01*
X127227427Y-67666637D01*
X127397266Y-67718157D01*
X127553791Y-67801822D01*
X127582332Y-67825245D01*
X127690986Y-67914414D01*
X127774248Y-68015871D01*
X127803578Y-68051609D01*
X127887243Y-68208134D01*
X127938763Y-68377973D01*
X127956159Y-68554600D01*
X127938763Y-68731227D01*
X127887243Y-68901066D01*
X127803578Y-69057591D01*
X127798546Y-69063722D01*
X127690986Y-69194786D01*
X127589529Y-69278048D01*
X127553791Y-69307378D01*
X127397266Y-69391043D01*
X127227427Y-69442563D01*
X127161243Y-69449081D01*
X127095060Y-69455600D01*
X127006540Y-69455600D01*
X126940357Y-69449081D01*
X126874173Y-69442563D01*
X126704334Y-69391043D01*
X126547809Y-69307378D01*
X126512071Y-69278048D01*
X126410614Y-69194786D01*
X126303054Y-69063722D01*
X126298022Y-69057591D01*
X126214357Y-68901066D01*
X126162837Y-68731227D01*
X126145441Y-68554600D01*
X126162837Y-68377973D01*
X126214357Y-68208134D01*
X126298022Y-68051609D01*
X126327352Y-68015871D01*
X126410614Y-67914414D01*
X126519268Y-67825245D01*
X126547809Y-67801822D01*
X126704334Y-67718157D01*
X126874173Y-67666637D01*
X126940358Y-67660118D01*
X127006540Y-67653600D01*
X127095060Y-67653600D01*
X127161242Y-67660118D01*
X127161242Y-67660118D01*
G37*
G36*
X143064800Y-67042600D02*
G01*
X141262800Y-67042600D01*
X141262800Y-65240600D01*
X143064800Y-65240600D01*
X143064800Y-67042600D01*
X143064800Y-67042600D01*
G37*
G36*
X127951800Y-66915600D02*
G01*
X126149800Y-66915600D01*
X126149800Y-65113600D01*
X127951800Y-65113600D01*
X127951800Y-66915600D01*
X127951800Y-66915600D01*
G37*
M02*
